<svg viewBox="76.5 114.74999999999989 879.7499999999999 816.0000000000001" xmlns="http://www.w3.org/2000/svg" xmlns:xlink="http://www.w3.org/1999/xlink" overflow="visible" width="879.7499999999999px" height="816.0000000000001px"><defs><polygon id="masterspot-illustrationplanning-path-1" points="0.6017 0.148 107.7217 0.148 107.7217 265 0.6017 265"/><polygon id="masterspot-illustrationplanning-path-3" points="0.302904145 0.494 189.197939 0.494 189.197939 192.743236 0.302904145 192.743236"/></defs><g id="Master/Spot Illustration/Planning" stroke="none" stroke-width="1" fill="none" fill-rule="evenodd"><g id="Planning" transform="translate(25.000000, 63.000000) scale(1 1)"><defs><polygon id="planningorganizer-path-1" points="0 0.4389 619.6408 0.4389 619.6408 503.3349 0 503.3349"/><polygon id="planningorganizer-path-3" points="0.749994555 0.451650553 685.027 0.451650553 685.027 544 0.749994555 544"/></defs><g id="Planning/Organizer" stroke="none" stroke-width="1" fill="none" fill-rule="evenodd"><g id="Group-27" transform="translate(569.000000, 417.500000) scale(-1, 1) translate(-569.000000, -417.500000) translate(211.000000, 68.000000)"><g id="Group-3" transform="translate(0.000000, 142.785000)"><mask id="planningorganizer-mask-2" fill="#ffffff"><use xlink:href="#planningorganizer-path-1" fill="#ffffff"/></mask><g id="Clip-2"/><path d="M0.3908,486.5739 C0.3908,486.5739 0.4398,502.6999 11.6308,503.1389 C22.8208,503.5799 68.1208,503.1389 68.1208,503.1389 L619.6408,254.0649 L619.6408,0.4389 L0.0418,0.4389 C-0.1522,153.4699 0.3908,486.5739 0.3908,486.5739" id="Fill-1" fill="#70A0E6" mask="url(#planningorganizer-mask-2)"/></g><path d="M593.0314,46.0269 C563.7844,46.6859 23.2604,49.1049 23.2604,49.1049 C23.2604,49.1049 1.2704,46.8339 0.3904,68.6399 C0.2024,73.3019 0.0954,101.6119 0.0424,143.2239 L619.6404,143.2239 L619.6404,72.8549 C619.6404,72.8549 622.2794,45.3669 593.0314,46.0269" id="Fill-4" fill="#FF0048"/><path d="M88.7077,101.3501 L88.6877,101.0751 C88.3527,96.4831 91.3557,92.3581 95.7967,91.1401 C107.2117,88.0121 126.5207,78.2761 125.2467,48.2611 C124.3577,27.3591 109.2407,19.7561 96.5647,19.5971 C82.1557,19.4321 67.0877,27.9181 65.7177,48.1651 L46.1397,48.2541 C48.2457,17.1491 72.7907,9.99999999e-05 96.1727,9.99999999e-05 C96.3857,9.99999999e-05 96.5977,9.99999999e-05 96.8117,0.0031 C118.9757,0.2821 143.4547,15.2421 144.8247,47.4291 C146.6527,90.4821 117.5807,105.0401 100.8587,109.8401 C95.0317,111.5131 89.1487,107.3961 88.7077,101.3501" id="Fill-6" fill="#232E68"/><path d="M229.508,101.3501 L229.487,101.0751 C229.153,96.4831 232.156,92.3581 236.597,91.1401 C248.012,88.0121 267.321,78.2761 266.046,48.2611 C265.157,27.3591 250.04,19.7561 237.364,19.5971 C222.956,19.4321 207.887,27.9181 206.518,48.1651 L186.94,48.2541 C189.045,17.1491 213.591,9.99999999e-05 236.973,9.99999999e-05 C237.186,9.99999999e-05 237.398,9.99999999e-05 237.611,0.0031 C259.775,0.2821 284.254,15.2421 285.624,47.4291 C287.453,90.4821 258.381,105.0401 241.658,109.8401 C235.831,111.5131 229.948,107.3961 229.508,101.3501" id="Fill-8" fill="#232E68"/><path d="M372.0734,101.3501 L372.0524,101.0751 C371.7184,96.4831 374.7214,92.3581 379.1624,91.1401 C390.5774,88.0121 409.8864,78.2761 408.6114,48.2611 C407.7224,27.3591 392.6064,19.7561 379.9304,19.5971 C365.5214,19.4321 350.4534,27.9181 349.0834,48.1651 L329.5054,48.2541 C331.6114,17.1491 356.1564,9.99999999e-05 379.5384,9.99999999e-05 C379.7514,9.99999999e-05 379.9634,9.99999999e-05 380.1774,0.0031 C402.3414,0.2821 426.8204,15.2421 428.1894,47.4291 C430.0184,90.4821 400.9464,105.0401 384.2244,109.8401 C378.3974,111.5131 372.5144,107.3961 372.0734,101.3501" id="Fill-10" fill="#232E68"/><path d="M512.8732,101.3501 L512.8522,101.0751 C512.5182,96.4831 515.5212,92.3581 519.9622,91.1401 C531.3772,88.0121 550.6862,78.2761 549.4112,48.2611 C548.5222,27.3591 533.4062,19.7561 520.7302,19.5971 C506.3212,19.4321 491.2532,27.9181 489.8832,48.1651 L470.3052,48.2541 C472.4112,17.1491 496.9562,9.99999999e-05 520.3382,9.99999999e-05 C520.5512,9.99999999e-05 520.7632,9.99999999e-05 520.9772,0.0031 C543.1412,0.2821 567.6202,15.2421 568.9892,47.4291 C570.8182,90.4821 541.7462,105.0401 525.0242,109.8401 C519.1972,111.5131 513.3142,107.3961 512.8732,101.3501" id="Fill-12" fill="#232E68"/><path d="M30.7497,143.2241 L54.0477,639.0351 C54.0477,639.0351 58.7387,667.1821 86.2997,663.0771 C113.8617,658.9721 144.9407,650.1761 144.9407,650.1761 L72.4917,234.4101 L619.6407,187.4981 L619.7027,143.2241 L30.7497,143.2241 Z" id="Fill-14" fill="#AFDCFD"/><g id="Group-18" transform="translate(30.000000, 154.785000)"><mask id="planningorganizer-mask-4" fill="#ffffff"><use xlink:href="#planningorganizer-path-3" fill="#ffffff"/></mask><g id="Clip-17"/><path d="M591.2687,19.8454 C589.0567,7.6214 577.7477,-0.7826 565.4037,0.6004 L17.0107,62.0334 C17.0107,62.0334 -2.3413,62.0334 1.1777,87.8354 C4.6957,113.6384 48.0907,385.7324 107.3177,521.1934 C107.3177,521.1934 116.7007,549.9274 151.2977,542.8904 C185.8967,535.8534 608.1127,451.4104 634.5007,447.3054 C660.8887,443.2004 674.3767,438.5094 674.3767,438.5094 C674.3767,438.5094 692.5557,436.7494 681.4137,403.3244 C671.0087,372.1114 611.5117,131.7434 591.2687,19.8454" id="Fill-16" fill="#F8FBF8" mask="url(#planningorganizer-mask-4)"/></g><path d="M156.0827,398.606 C156.0827,398.606 120.3117,402.125 127.9357,440.241 C135.5587,478.358 178.3667,609.713 178.3667,609.713 C178.3667,609.713 183.6437,626.719 206.5137,624.961 C229.3837,623.202 599.4097,538.171 599.4097,538.171 C599.4097,538.171 622.9887,533.48 619.7027,504.16 C616.4147,474.839 577.1247,341.724 571.2617,329.41 C565.3977,317.095 556.0147,305.367 526.6947,311.231 C497.3747,317.095 156.0827,398.606 156.0827,398.606" id="Fill-19" fill="#D5E1D5"/><path d="M162.028,358.5083 L303.272,327.0643 C303.272,327.0643 334.938,321.1993 329.074,291.8793 C323.21,262.5593 286.266,269.5963 286.266,269.5963 C286.266,269.5963 168.103,289.6143 140.307,297.9973 C95.481,311.5153 111.295,371.3943 162.028,358.5083" id="Fill-21" fill="#EFD638"/><path d="M501.4787,213.8872 C458.0207,222.1162 469.9827,288.8682 514.9657,281.9282 C556.8947,275.4592 551.0307,204.5042 501.4787,213.8872" id="Fill-23" fill="#FF0048"/><path d="M0.0421,143.2241 L46.1391,143.2241 C46.1391,143.2241 49.8881,52.4761 23.2611,49.1051 C-1.1479,46.0151 0.3911,68.6401 0.3911,68.6401 L0.0421,143.2241 Z" id="Fill-25" fill="#B02D1C"/></g></g></g><g transform="translate(-28.000000, 174.000000) scale(1 1)" id="Master/Character/Standing"><g id="Master/Character/Standing" stroke="none" stroke-width="1" fill="none" fill-rule="evenodd"><g id="Standing/Lower Body" transform="translate(14.000000, 442.000000) scale(1 1)"><g id="Standing/Lower Body/Circles" stroke="none" stroke-width="1" fill="none" fill-rule="evenodd"><g id="Group-332" transform="translate(93.000000, -1.000000)"><g id="Group-207" transform="translate(0.000000, 0.142000)"><path d="M329.297,293.9017 C329.75,293.8997 330.192,293.8977 330.628,293.8957 C330.193,293.8977 329.75,293.8997 329.297,293.9017 L329.297,293.9017 Z M326.787,293.9127 C324.875,293.9197 322.856,293.9267 320.768,293.9347 C322.855,293.9267 324.875,293.9207 326.787,293.9127 L326.787,293.9127 Z M328.6,293.9047 C328.289,293.9057 327.975,293.9067 327.657,293.9087 C327.974,293.9067 328.29,293.9057 328.6,293.9047 L328.6,293.9047 Z M316.432,293.9487 C316.835,293.9467 317.236,293.9457 317.636,293.9447 C317.236,293.9457 316.835,293.9467 316.432,293.9487 L316.432,293.9487 Z M311.08,293.9617 C312.554,293.9587 314.026,293.9557 315.484,293.9507 C314.026,293.9557 312.554,293.9587 311.08,293.9617 L311.08,293.9617 Z M308.9,293.9657 C309.41,293.9647 309.922,293.9637 310.433,293.9637 C309.921,293.9637 309.41,293.9647 308.9,293.9657 L308.9,293.9657 Z M318.586,293.9417 C319.003,293.9407 319.418,293.9387 319.832,293.9377 C319.418,293.9387 319.003,293.9407 318.586,293.9417 L318.586,293.9417 Z M296.917,293.9707 C297.578,293.9717 298.25,293.9717 298.929,293.9727 C298.249,293.9717 297.578,293.9717 296.917,293.9707 L296.917,293.9707 Z M299.173,293.9727 L301.36,293.9727 C303.575,293.9727 305.858,293.9707 308.156,293.9667 C305.857,293.9707 303.576,293.9727 301.36,293.9727 L299.173,293.9727 Z M281.503,293.8617 C281.425,293.8597 281.346,293.8577 281.273,293.8557 C281.346,293.8577 281.425,293.8597 281.503,293.8617 L281.503,293.8617 Z M282.341,293.8787 C282.238,293.8767 282.138,293.8747 282.039,293.8727 C282.138,293.8747 282.238,293.8767 282.341,293.8787 L282.341,293.8787 Z M283.22,293.8927 C283.155,293.8917 283.096,293.8907 283.032,293.8897 C283.096,293.8907 283.155,293.8917 283.22,293.8927 L283.22,293.8927 Z M284.536,293.9097 C284.42,293.9087 284.3,293.9077 284.188,293.9057 C284.3,293.9077 284.42,293.9087 284.536,293.9097 L284.536,293.9097 Z M285.735,293.9227 C285.578,293.9217 285.422,293.9197 285.27,293.9177 C285.423,293.9197 285.578,293.9217 285.735,293.9227 L285.735,293.9227 Z M286.916,293.9317 C286.742,293.9307 286.576,293.9297 286.406,293.9277 C286.575,293.9297 286.742,293.9307 286.916,293.9317 L286.916,293.9317 Z M288.744,293.9447 C288.386,293.9427 288.036,293.9407 287.694,293.9377 C288.036,293.9407 288.386,293.9427 288.744,293.9447 L288.744,293.9447 Z M290.152,293.9527 C289.879,293.9507 289.607,293.9497 289.341,293.9477 C289.608,293.9497 289.879,293.9507 290.152,293.9527 L290.152,293.9527 Z M291.499,293.9577 C291.201,293.9567 290.91,293.9557 290.619,293.9547 C290.909,293.9557 291.201,293.9567 291.499,293.9577 L291.499,293.9577 Z M293.967,293.9647 C293.253,293.9637 292.557,293.9617 291.877,293.9597 C292.556,293.9617 293.253,293.9637 293.967,293.9647 L293.967,293.9647 Z M295.419,293.9677 C295.003,293.9677 294.589,293.9667 294.183,293.9657 C294.59,293.9667 295.003,293.9677 295.419,293.9677 L295.419,293.9677 Z M296.79,293.9707 C296.357,293.9697 295.929,293.9687 295.505,293.9687 C295.928,293.9687 296.358,293.9697 296.79,293.9707 L296.79,293.9707 Z M332.827,293.8857 C332.318,293.8877 331.792,293.8897 331.252,293.8927 C331.79,293.8897 332.32,293.8877 332.827,293.8857 C330.194,283.1067 316.128,279.3577 303.131,274.9567 C292.104,271.2227 281.845,267.0197 279.992,257.6557 L226.713,259.1827 L228.064,293.2817 L228.086,293.8377 C228.086,293.8377 227.629,306.2037 243.658,306.6617 C259.688,307.1197 319.533,307.5777 319.533,307.5777 C319.533,307.5777 333.273,308.2277 333.273,297.6547 C333.273,296.3067 333.113,295.0567 332.827,293.8857 L332.827,293.8857 Z" id="Fill-165" fill="#FF0048"/><path d="M227.0778,268.3939 L285.9038,266.8309 C285.9038,266.8309 284.2468,265.3469 283.6328,264.4599 C283.2998,263.9789 282.6898,262.2159 282.6898,262.2159 L226.8408,262.4089 L227.0778,268.3939 Z" id="Fill-167" fill="#000"/><path d="M101.5643,296.6565 C101.6903,296.6915 101.8143,296.7265 101.9363,296.7625 C101.8143,296.7265 101.6903,296.6915 101.5643,296.6565 L101.5643,296.6565 Z M104.1043,297.3815 C104.1933,297.4065 104.2803,297.4325 104.3663,297.4575 C104.2803,297.4325 104.1933,297.4065 104.1043,297.3815 L104.1043,297.3815 Z M100.3403,296.3115 C100.3753,296.3215 100.4093,296.3315 100.4443,296.3415 C100.4093,296.3315 100.3753,296.3215 100.3403,296.3115 L100.3403,296.3115 Z M98.5753,295.8195 C98.7233,295.8605 98.8713,295.9015 99.0173,295.9425 C98.8713,295.9015 98.7233,295.8605 98.5753,295.8195 L98.5753,295.8195 Z M97.1803,295.4325 C97.2173,295.4425 97.2523,295.4525 97.2893,295.4625 C97.2523,295.4525 97.2173,295.4425 97.1803,295.4325 L97.1803,295.4325 Z M95.2053,294.8875 C95.3413,294.9255 95.4783,294.9625 95.6133,294.9995 C95.4783,294.9625 95.3423,294.9255 95.2053,294.8875 L95.2053,294.8875 Z M93.4713,294.4105 C93.6653,294.4645 93.8553,294.5165 94.0473,294.5685 C93.8553,294.5165 93.6663,294.4645 93.4713,294.4105 L93.4713,294.4105 Z M91.3633,293.8335 C91.5803,293.8925 91.7973,293.9525 92.0123,294.0115 C91.7973,293.9525 91.5793,293.8925 91.3633,293.8335 L91.3633,293.8335 Z M89.6703,293.3705 C89.7653,293.3965 89.8573,293.4225 89.9513,293.4475 C89.8573,293.4225 89.7653,293.3965 89.6703,293.3705 L89.6703,293.3705 Z M87.2023,292.6985 C87.4473,292.7655 87.6933,292.8315 87.9343,292.8975 C87.6923,292.8315 87.4473,292.7655 87.2023,292.6985 L87.2023,292.6985 Z M84.2803,291.9035 C84.9233,292.0785 85.5583,292.2515 86.1853,292.4215 C85.5573,292.2505 84.9233,292.0785 84.2803,291.9035 L84.2803,291.9035 Z M82.6263,291.4545 C82.9793,291.5505 83.3323,291.6455 83.6823,291.7405 C83.3323,291.6455 82.9793,291.5505 82.6263,291.4545 L82.6263,291.4545 Z M80.7363,290.9415 C81.0813,291.0355 81.4233,291.1285 81.7643,291.2215 C81.4223,291.1285 81.0813,291.0355 80.7363,290.9415 L80.7363,290.9415 Z M23.1933,274.9725 C23.0013,274.9125 22.8203,274.8555 22.6383,274.7985 C22.8203,274.8555 23.0013,274.9125 23.1933,274.9725 L23.1933,274.9725 Z M24.0543,275.2365 C23.8673,275.1795 23.6893,275.1245 23.5113,275.0695 C23.6893,275.1245 23.8673,275.1805 24.0543,275.2365 L24.0543,275.2365 Z M24.9913,275.5205 C24.8013,275.4635 24.6183,275.4075 24.4343,275.3515 C24.6183,275.4075 24.8013,275.4635 24.9913,275.5205 L24.9913,275.5205 Z M26.0093,275.8255 C25.7773,275.7565 25.5533,275.6885 25.3293,275.6225 C25.5533,275.6885 25.7773,275.7565 26.0093,275.8255 L26.0093,275.8255 Z M27.0443,276.1325 C26.7813,276.0545 26.5253,275.9775 26.2713,275.9025 C26.5243,275.9775 26.7813,276.0545 27.0443,276.1325 L27.0443,276.1325 Z M28.1473,276.4555 C27.8803,276.3775 27.6193,276.3015 27.3613,276.2255 C27.6193,276.3015 27.8803,276.3775 28.1473,276.4555 L28.1473,276.4555 Z M29.3033,276.7925 C29.0143,276.7085 28.7303,276.6255 28.4493,276.5435 C28.7303,276.6255 29.0143,276.7085 29.3033,276.7925 L29.3033,276.7925 Z M30.5403,277.1495 C30.2173,277.0575 29.9003,276.9655 29.5863,276.8745 C29.9003,276.9655 30.2173,277.0575 30.5403,277.1495 L30.5403,277.1495 Z M31.7763,277.5045 C31.4303,277.4055 31.0883,277.3075 30.7513,277.2105 C31.0883,277.3075 31.4303,277.4055 31.7763,277.5045 L31.7763,277.5045 Z M33.0873,277.8785 C32.7213,277.7745 32.3603,277.6725 32.0043,277.5695 C32.3613,277.6725 32.7213,277.7745 33.0873,277.8785 L33.0873,277.8785 Z M22.3803,274.7185 C22.1723,274.6525 21.9753,274.5905 21.7823,274.5275 C21.9753,274.5905 22.1723,274.6525 22.3803,274.7185 L22.3803,274.7185 Z M35.8083,278.6495 C35.4073,278.5365 35.0103,278.4245 34.6183,278.3125 C35.0103,278.4245 35.4073,278.5365 35.8083,278.6495 L35.8083,278.6495 Z M37.2523,279.0555 C36.8273,278.9355 36.4073,278.8175 35.9923,278.7015 C36.4073,278.8175 36.8273,278.9355 37.2523,279.0555 L37.2523,279.0555 Z M38.7003,279.4615 C38.2573,279.3375 37.8193,279.2145 37.3863,279.0935 C37.8193,279.2145 38.2573,279.3375 38.7003,279.4615 L38.7003,279.4615 Z M80.6503,290.9185 C67.1633,287.2615 51.2423,282.9675 38.8233,279.4955 C51.2433,282.9675 67.1643,287.2615 80.6503,290.9185 L80.6503,290.9185 Z M34.4283,278.2595 C34.0443,278.1505 33.6643,278.0435 33.2903,277.9365 C33.6643,278.0435 34.0443,278.1505 34.4283,278.2595 L34.4283,278.2595 Z M67.0113,252.2075 C62.4513,255.7165 47.7763,255.4465 33.3953,256.3325 C19.1043,257.2135 5.1033,259.2355 1.6043,267.2405 C2.3493,267.5485 8.4493,269.9165 11.1873,270.9015 C13.9263,271.8865 17.1703,273.0115 20.9443,274.2565 C21.1633,274.3285 21.3933,274.4025 21.6333,274.4805 C21.3933,274.4035 21.1623,274.3285 20.9443,274.2565 C17.1703,273.0115 13.9263,271.8865 11.1873,270.9015 C8.4493,269.9165 2.3493,267.5485 1.6043,267.2405 C1.5253,267.4205 1.4463,267.5995 1.3783,267.7845 C-3.0707,279.9645 14.0443,284.3395 14.0443,284.3395 C28.6043,288.4345 90.0373,306.6255 90.0373,306.6255 C90.0373,306.6255 100.8783,310.8605 104.9733,298.6765 C105.0763,298.3695 105.1823,298.0525 105.2903,297.7265 C108.8693,286.9715 115.0393,266.7935 115.0393,266.7935 L67.0113,252.2075 Z" id="Fill-169" fill="#FF0048"/><path d="M67.0114,252.2074 L115.0394,266.7934 L114.0144,270.1314 L62.8894,253.9644 C62.8894,253.9644 65.0064,253.2964 65.6174,253.0364 C66.0374,252.8564 67.0114,252.2074 67.0114,252.2074" id="Fill-171" fill="#000"/><path d="M47.5866,267.5658 C46.8046,267.5658 46.1446,266.9578 46.0916,266.1658 C45.8136,261.9718 43.0486,256.5338 43.0206,256.4788 C42.6426,255.7418 42.9346,254.8378 43.6716,254.4608 C44.4076,254.0838 45.3126,254.3738 45.6906,255.1108 C45.8156,255.3558 48.7656,261.1628 49.0856,265.9658 C49.1406,266.7928 48.5146,267.5068 47.6886,267.5618 C47.6536,267.5648 47.6206,267.5658 47.5866,267.5658" id="Fill-173" fill="#F8FBF8"/><path d="M56.0817,267.1615 C55.4337,267.1615 54.8357,266.7375 54.6437,266.0845 C53.6727,262.7825 50.6867,256.0665 50.6567,255.9995 C50.3197,255.2425 50.6597,254.3555 51.4167,254.0185 C52.1737,253.6825 53.0607,254.0215 53.3967,254.7785 C53.5227,255.0615 56.4947,261.7445 57.5217,265.2385 C57.7557,266.0325 57.3007,266.8665 56.5057,267.0995 C56.3647,267.1415 56.2227,267.1615 56.0817,267.1615" id="Fill-175" fill="#F8FBF8"/><path d="M62.3503,265.6703 C61.6513,265.6703 61.0253,265.1783 60.8813,264.4653 C59.9173,259.6713 57.9733,255.3193 57.9543,255.2753 C57.6143,254.5213 57.9513,253.6333 58.7063,253.2923 C59.4613,252.9513 60.3493,253.2903 60.6893,254.0443 C60.7753,254.2323 62.7893,258.7363 63.8233,263.8733 C63.9863,264.6863 63.4603,265.4773 62.6483,265.6403 C62.5483,265.6603 62.4493,265.6703 62.3503,265.6703" id="Fill-177" fill="#F8FBF8"/><path d="M87.6237,276.35 C84.3487,285.673 97.3347,291.368 102.0777,282.109 C107.1437,272.218 91.0107,266.708 87.6237,276.35" id="Fill-179" fill="#F8FBF8"/><path d="M236.3805,276.7611 C233.1055,286.0851 246.0915,291.7801 250.8345,282.5201 C255.9005,272.6291 239.7675,267.1191 236.3805,276.7611" id="Fill-181" fill="#F8FBF8"/><path d="M290.7419,285.2816 C290.4009,285.2816 290.0589,285.1666 289.7779,284.9296 C289.1429,284.3966 289.0609,283.4506 289.5949,282.8166 L297.7249,273.1426 C298.2589,272.5106 299.2059,272.4276 299.8389,272.9596 C300.4729,273.4926 300.5549,274.4386 300.0219,275.0736 L291.8909,284.7476 C291.5949,285.0996 291.1699,285.2816 290.7419,285.2816" id="Fill-183" fill="#F8FBF8"/><path d="M285.235,281.9232 C284.888,281.9232 284.541,281.8042 284.257,281.5602 C283.63,281.0192 283.558,280.0722 284.099,279.4442 L292.047,270.2112 C292.588,269.5842 293.534,269.5122 294.162,270.0532 C294.79,270.5942 294.861,271.5402 294.32,272.1682 L286.373,281.4022 C286.076,281.7462 285.657,281.9232 285.235,281.9232" id="Fill-185" fill="#F8FBF8"/><path d="M281.4303,275.6078 C281.0223,275.6078 280.6153,275.4418 280.3193,275.1158 C279.7623,274.5028 279.8093,273.5528 280.4223,272.9978 L287.5933,266.4938 C288.2053,265.9378 289.1563,265.9828 289.7123,266.5958 C290.2693,267.2108 290.2223,268.1588 289.6093,268.7148 L282.4383,275.2188 C282.1513,275.4798 281.7893,275.6078 281.4303,275.6078" id="Fill-187" fill="#F8FBF8"/><path d="M253.0763,34.9066 L253.0803,34.9066 C253.0803,34.9066 239.5353,0.5496 218.3803,0.5496 L180.3723,0.5496 C162.2473,0.5496 139.4863,34.8306 139.4863,34.8306 L139.4873,34.8306 C121.4323,61.5686 67.7873,145.2616 39.3673,235.4866 C38.0183,239.7686 40.4183,244.3316 44.7143,245.6366 L120.4043,268.6246 C123.9643,269.7056 127.7493,267.8186 129.0303,264.3246 L194.1503,110.6596 L207.3903,259.3796 C207.5553,262.8886 210.4933,265.6236 214.0063,265.5366 L308.6253,263.1846 C312.0893,263.0986 314.8503,260.2646 314.832388,256.8006 C314.7073,232.8956 300.8013,150.5036 253.0763,34.9066" id="Fill-189" fill="#232E68"/><path d="M101.6798,141.7572 C105.4448,128.3422 102.8038,114.9592 98.3168,102.2232 C86.4948,123.5182 73.9098,148.1192 62.4098,174.4972 C63.9758,174.2342 65.5508,173.9042 67.1268,173.5252 C83.6438,169.5402 97.0078,158.4042 101.6798,141.7572" id="Fill-191" fill="#4947D9"/><path d="M168.8087,67.4467 C181.6517,67.6107 194.6367,67.0757 207.3007,64.7837 C220.8987,62.3227 236.1827,52.4337 237.5177,37.7307 C239.1257,20.0247 231.0187,8.0807 218.3807,0.5497 L180.3717,0.5497 C162.0817,0.5497 139.4867,34.8307 139.4867,34.8307 L139.4867,34.8307 C135.7287,40.3957 130.4247,48.4367 124.1307,58.4837 C125.4977,59.3087 126.9067,60.0577 128.3517,60.7197 C141.1557,66.5947 154.9237,67.2697 168.8087,67.4467" id="Fill-193" fill="#4947D9"/><path d="M212.946,107.7728 C211.064,103.7978 208.57,100.0728 205.686,96.7508 C198.072,87.9788 186.581,84.1018 175.354,86.3328 C173.378,86.2408 171.34,86.4368 169.282,86.9638 C145.493,93.0578 136.677,119.2968 138.804,141.4678 C140.113,155.1088 149.196,166.2128 161.603,171.8248 C163.49,172.6778 165.411,173.3548 167.351,173.8988 L194.15,110.6598 L199.454,170.2378 C199.894,170.0168 200.336,169.8048 200.771,169.5718 C221.769,158.2968 227.356,126.4518 212.946,107.7728" id="Fill-195" fill="#4947D9"/><path d="M259.3273,61.3285 C251.8333,69.8885 248.4233,81.6955 248.8143,92.9885 C249.2513,105.5795 254.3703,117.8075 265.6363,124.4345 C272.3073,128.3585 279.9323,129.7665 287.5713,129.7285 C280.7823,108.0045 272.4843,84.0645 262.4283,58.2295 C261.3483,59.1795 260.3103,60.2055 259.3273,61.3285" id="Fill-197" fill="#4947D9"/><path d="M314.508,258.8236 C314.718,258.1866 314.836,257.5086 314.833056,256.8006 C314.763,243.5706 310.469,212.4206 298.561,167.6486 C296.996,167.9466 295.43,168.2346 293.858,168.4936 C293.439,168.5626 287.26,169.4266 291.697,168.8616 C281.7,170.1336 272.348,171.1636 264.611,178.3246 C252.893,189.1716 249.45,208.7046 249.651,224.0006 C249.872,240.8696 258.098,258.1796 274.392,264.0356 L305.566,263.2606 C305.699,263.2176 305.836,263.1756 305.967,263.1306 C309.133,262.0396 311.955,260.5806 314.508,258.8236" id="Fill-199" fill="#4947D9"/><path d="M124.9572,191.2445 C108.1352,197.0975 96.8042,214.7065 93.1392,231.5745 C91.1352,240.7955 91.0762,249.4525 92.4992,258.7215 C92.5782,259.2365 92.6872,259.7355 92.7902,260.2375 L120.4042,268.6245 C123.9642,269.7055 127.7492,267.8185 129.0302,264.3245 L158.8832,193.8795 C156.6162,192.4375 154.1442,191.3155 151.6222,190.6185 C143.6912,188.4275 132.6652,188.5625 124.9572,191.2445" id="Fill-201" fill="#4947D9"/><path d="M203.1169,211.3773 L207.3899,259.3793 C207.4919,261.5353 208.6419,263.3963 210.3269,264.4913 C212.8879,258.8533 214.0849,252.6683 214.088918,246.2423 C214.0969,234.7203 211.4549,220.0643 203.1169,211.3773" id="Fill-203" fill="#4947D9"/><path d="M42.7599,238.0609 C50.5259,229.1599 51.4249,217.5869 49.5699,206.3979 C49.5569,206.3189 49.5369,206.2449 49.5239,206.1659 C45.8889,215.8179 42.4769,225.6129 39.3669,235.4869 C38.7599,237.4149 38.9179,239.3979 39.6609,241.1169 C40.7519,240.1829 41.7919,239.1699 42.7599,238.0609" id="Fill-205" fill="#4947D9"/></g></g></g></g><g id="Upper Body" transform="translate(-1.000000, 0.000000) scale(1 1)"><g id="Upper Body/Scientist" stroke="none" stroke-width="1" fill="none" fill-rule="evenodd"><g id="Group-691" transform="translate(202.500000, 272.500000)"><g id="Group-508" transform="translate(0.000000, 0.095000)"><path d="M88.4009,29.9342 C88.4009,29.9342 -11.6231,99.6842 1.9399,159.4312 C9.2159,191.4822 33.1019,194.6812 33.1019,194.6812 L88.4009,29.9342 Z" id="Fill-454" fill="#D5E1D5"/><path d="M44.3399,139.7135 C44.3399,139.7135 12.2059,140.0225 9.8999,168.1835 L39.0989,165.5065 L44.3399,139.7135 Z" id="Fill-456" fill="#FEF864"/><path d="M42.8428,147.1959 C42.8428,147.1959 15.1448,142.5239 8.6348,172.8829 C2.0128,203.7679 30.2768,208.6559 30.2768,208.6559 L42.8428,147.1959 Z" id="Fill-458" fill="#ef9e89"/><path d="M32.4244,198.1764 C32.2964,198.1764 32.1664,198.1594 32.0364,198.1254 C28.7364,197.2454 13.8514,192.9854 13.2184,192.8044 C12.4224,192.5754 11.9614,191.7454 12.1894,190.9494 C12.4174,190.1534 13.2414,189.6924 14.0444,189.9204 C14.1984,189.9644 29.5354,194.3544 32.8104,195.2274 C33.6104,195.4404 34.0864,196.2624 33.8724,197.0634 C33.6944,197.7344 33.0874,198.1764 32.4244,198.1764" id="Fill-460" fill="#000"/><path d="M36.1529,185.5983 C36.0549,185.5983 35.9569,185.5883 35.8569,185.5693 C30.6109,184.5203 13.9479,180.0363 13.2419,179.8463 C12.4409,179.6303 11.9669,178.8073 12.1829,178.0073 C12.3979,177.2073 13.2209,176.7343 14.0209,176.9503 C14.1939,176.9953 31.2959,181.5983 36.4449,182.6273 C37.2569,182.7893 37.7839,183.5793 37.6219,184.3923 C37.4789,185.1053 36.8529,185.5983 36.1529,185.5983" id="Fill-462" fill="#000"/><path d="M37.9498,172.6344 C37.8388,172.6344 37.7258,172.6214 37.6128,172.5964 C33.3048,171.6054 15.7878,167.9864 15.6108,167.9494 C14.8008,167.7814 14.2778,166.9884 14.4458,166.1774 C14.6138,165.3654 15.4038,164.8474 16.2188,165.0114 C16.3948,165.0484 33.9448,168.6744 38.2848,169.6724 C39.0928,169.8584 39.5958,170.6624 39.4108,171.4704 C39.2508,172.1644 38.6338,172.6344 37.9498,172.6344" id="Fill-464" fill="#000"/><path d="M40.4859,160.2281 C40.3789,160.2281 40.2689,160.2161 40.1599,160.1921 L35.8049,159.2211 C30.8039,158.1041 25.1349,156.8381 23.7319,156.5841 C22.9169,156.4381 22.3759,155.6581 22.5219,154.8421 C22.6699,154.0271 23.4449,153.4911 24.2649,153.6321 C25.7289,153.8971 31.1839,155.1151 36.4589,156.2931 L40.8099,157.2631 C41.6189,157.4431 42.1289,158.2451 41.9489,159.0531 C41.7939,159.7521 41.1739,160.2281 40.4859,160.2281" id="Fill-466" fill="#000"/><path d="M225.0865,68.861 L213.9595,66.424 C213.9595,66.424 205.2635,64.18 203.1565,71.442 C200.6415,80.116 209.4005,82.479 209.4005,82.479 L223.5745,85.904 L224.0685,75.518 C224.0685,75.518 224.0485,71.955 225.0865,68.861" id="Fill-468" fill="#3164CF"/><path d="M235.8672,82.5905 C235.8672,82.5905 239.4922,77.2475 242.9442,72.7715 L234.7032,70.9665 C235.9472,76.1785 235.8672,82.5905 235.8672,82.5905" id="Fill-470" fill="#3164CF"/><path d="M247.397,91.7408 C247.397,91.7408 247.407,91.7118 247.423,91.6678 L247.508,91.6878 C247.436,91.7208 247.397,91.7408 247.397,91.7408 M248.425,91.9098 L248.424,91.9098 C248.731,91.0628 250.963,84.3738 253.674,80.1668 C255.394,77.4968 255.899,76.7578 256.636,75.7688 C261.367,69.4318 266.351,62.6348 263.888,59.6598 C259.834,54.7628 252.447,62.1228 247.531,67.4738 C246.481,68.6168 244.676,70.5258 242.944,72.7708 C239.492,77.2478 235.867,82.5908 235.867,82.5908 C235.867,82.5908 235.947,76.1778 234.703,70.9668 C233.851,67.3968 232.378,64.3898 229.834,64.3898 C227.302,64.3898 225.883,66.4878 225.086,68.8608 C224.049,71.9548 224.069,75.5178 224.069,75.5178 L223.574,85.9038 L222.862,100.8568 L236.299,138.3958 L260.402,123.3818 C272.889,114.4738 273.965,104.3188 271.109,97.3918 L249.377,92.1398 C249.306,92.1738 248.425,91.9098 248.425,91.9098" id="Fill-472" fill="#ef9e89"/><path d="M247.397,91.7408 C247.397,91.7408 247.436,91.7208 247.508,91.6878 L247.423,91.6678 C247.407,91.7118 247.397,91.7408 247.397,91.7408" id="Fill-474" fill="#ef9e89"/><path d="M249.377,92.1403 L271.109,97.3923 L249.377,92.1403 Z" id="Fill-476" fill="#ef9e89"/><path d="M248.9029,102.3375 C248.3909,102.3375 247.8929,102.0755 247.6129,101.6055 C247.1879,100.8935 247.4219,99.9735 248.1329,99.5485 C248.4799,99.3425 256.7149,94.4565 263.8499,92.1815 C264.6459,91.9285 265.4839,92.3655 265.7349,93.1545 C265.9869,93.9435 265.5509,94.7875 264.7619,95.0395 C257.9589,97.2085 249.7509,102.0765 249.6689,102.1255 C249.4279,102.2695 249.1639,102.3375 248.9029,102.3375" id="Fill-478" fill="#000"/><path d="M253.8795,113.2946 C253.3905,113.2946 252.9105,113.0556 252.6225,112.6146 C252.1695,111.9216 252.3645,110.9916 253.0585,110.5386 C253.5435,110.2226 265.0235,102.7476 271.7365,100.2526 C272.5095,99.9626 273.3765,100.3576 273.6655,101.1356 C273.9535,101.9116 273.5585,102.7746 272.7815,103.0646 C266.3795,105.4436 254.8155,112.9756 254.6985,113.0506 C254.4455,113.2166 254.1605,113.2946 253.8795,113.2946" id="Fill-480" fill="#000"/><path d="M281.191,81.1461 L256.636,75.7691 C255.899,76.7571 255.394,77.4971 253.674,80.1671 C250.963,84.3741 248.731,91.0631 248.424,91.9101 L248.425,91.9101 L249.377,92.1401 L271.109,97.3921 L277.333,98.8961 C277.848,99.0211 278.37,99.1141 278.893,99.1921 C276.681,90.5841 279.147,84.4341 281.191,81.1461" id="Fill-482" fill="#3164CF"/><path d="M284.3174,99.1696 L295.7184,97.3416 C296.5654,97.2056 297.2564,96.5936 297.4934,95.7706 L298.1184,93.5996 C298.3774,92.7006 298.0424,91.7356 297.2814,91.1906 L286.3144,83.3316 C284.9034,82.3206 283.3024,81.6076 281.6074,81.2366 L281.1914,81.1466 C279.1464,84.4346 276.6804,90.5836 278.8924,99.1916 C280.6894,99.4596 282.5184,99.4576 284.3174,99.1696" id="Fill-484" fill="#FEF864"/><path d="M296.5626,91.6647 C295.7706,91.5617 294.8246,91.5107 294.1606,93.7607 C293.4956,96.0097 296.0006,96.6227 296.0006,96.6227 L300.5076,97.7467 C300.5076,97.7467 302.1856,98.3037 302.7476,97.0537 C303.3106,95.8047 304.0226,93.6357 302.5406,93.1757 C301.0586,92.7157 298.0846,91.8607 296.5626,91.6647" id="Fill-486" fill="#000"/><path d="M63.3399,46.7877 L21.5539,246.8657 C20.8709,250.2077 23.4239,253.3357 26.8349,253.3357 L195.0019,253.3357 C198.2529,253.3357 200.7639,250.4787 200.3479,247.2547 L165.2179,29.9337 L83.9879,29.9337 C73.9759,29.9337 65.3449,36.9787 63.3399,46.7877" id="Fill-488" fill="#F8FBF8"/><path d="M88.4009,29.9342 C88.4009,29.9342 122.6519,48.0302 135.2889,49.6932 C147.9259,51.3562 165.8829,51.7442 165.2179,29.9342 L88.4009,29.9342 Z" id="Fill-490" fill="#D5E1D5"/><path d="M144.9835,72.8092 L170.1795,120.2212 C170.5725,120.9592 171.4605,121.2812 172.2345,120.9642 L207.4505,106.5572 L226.3675,159.4062 C227.5025,162.5752 225.9255,166.0752 222.7995,167.3252 L173.5315,187.0332 C173.5315,187.0332 139.6125,198.3382 121.9875,164.0872 C104.3625,129.8352 88.4005,98.2442 88.4005,98.2442 C88.4005,98.2442 73.0575,64.3562 102.3675,56.5572 C136.2865,47.5322 144.9835,72.8092 144.9835,72.8092" id="Fill-492" fill="#F8FBF8"/><path d="M192.3199,162.0084 C193.3829,167.0114 201.3769,166.4974 201.381904,161.4264 C201.3889,154.0284 190.9069,155.3584 192.3199,162.0084" id="Fill-494" fill="#D5E1D5"/><path d="M80.7525,253.3356 L96.4945,204.8506 C97.0225,203.2256 98.5365,202.1246 100.2445,202.1246 L155.9525,202.1246 C157.5805,202.1246 158.8995,203.4436 158.8995,205.0716 L158.8995,253.3356 L80.7525,253.3356 Z" id="Fill-496" fill="#D5E1D5"/><path d="M207.4507,106.5573 L223.1527,100.4263 L239.5737,146.3013 C240.2957,148.3183 239.3137,150.5473 237.3387,151.3753 L225.3007,156.4243 L207.4507,106.5573 Z" id="Fill-498" fill="#FEF864"/><path d="M159.3912,190.2731 C158.6912,190.2731 158.0942,190.0441 157.6142,189.8611 C157.3832,189.7731 157.0962,189.6641 156.9682,189.6581 C156.8422,189.6561 156.5342,189.7471 156.2902,189.8231 C155.7982,189.9771 155.1862,190.1691 154.4952,190.1061 C154.2342,190.0831 153.9162,190.1051 153.5812,190.1271 C153.1092,190.1611 152.5732,190.2001 152.0092,190.1191 C151.2102,190.0051 150.6262,189.5661 150.1572,189.2121 C150.0052,189.0981 149.7762,188.9251 149.6852,188.8911 C149.6202,188.8911 149.3132,188.9611 149.1092,189.0091 C148.5632,189.1341 147.8862,189.2901 147.1532,189.1021 C146.5762,188.9541 146.0762,188.7111 145.6342,188.4981 C145.3482,188.3591 145.0782,188.2281 144.8482,188.1541 C144.1672,187.9351 143.6642,187.5221 143.2592,187.1901 C143.0722,187.0361 142.8372,186.8441 142.7192,186.7971 C142.5892,186.7471 142.2732,186.7351 142.0182,186.7261 C141.4952,186.7081 140.8462,186.6851 140.2102,186.3851 C139.6282,186.1111 139.1012,185.8061 138.5912,185.5121 L138.0252,185.1881 C137.3892,184.8341 136.9772,184.3191 136.6452,183.9061 C136.4952,183.7191 136.3082,183.4871 136.2072,183.4211 C136.0402,183.3121 135.7632,183.2191 135.4702,183.1211 C134.9842,182.9581 134.4322,182.7731 133.9192,182.3811 C133.4162,181.9981 133.0512,181.5571 132.7282,181.1691 C132.5372,180.9401 132.3582,180.7231 132.1952,180.5791 C131.9562,180.3671 131.7042,180.1791 131.4612,179.9971 C131.0652,179.6981 130.6552,179.3901 130.2792,179.0001 C130.0862,178.8001 129.8272,178.6101 129.5522,178.4081 C129.1622,178.1221 128.7202,177.7961 128.3592,177.3551 C127.8192,176.6961 127.6382,175.9461 127.5072,175.3991 C127.4662,175.2311 127.4112,175.0011 127.3752,174.9271 C127.1132,174.5441 126.9452,174.3161 126.8232,174.1511 C126.5372,173.7641 126.4182,173.5911 126.0352,172.8361 C125.9512,172.6691 125.9422,172.6651 125.7122,172.5211 C125.3402,172.2891 124.7782,171.9371 124.3122,171.0481 C123.8542,170.1701 123.8712,169.5241 123.8832,169.0951 C123.8902,168.8331 123.8912,168.7991 123.7942,168.6141 C123.4992,168.0511 123.3662,167.7631 123.2322,167.4741 C123.1142,167.2201 122.9952,166.9641 122.7362,166.4671 C122.4262,165.8771 122.2992,165.5661 122.1722,165.2541 C122.0722,165.0091 121.9722,164.7641 121.7272,164.2971 C121.6742,164.1971 121.6742,164.1971 121.4492,164.0841 C121.0392,163.8781 120.3562,163.5371 119.8542,162.5781 C119.4942,161.8881 119.3882,161.4601 119.3032,161.1161 C119.2412,160.8621 119.2002,160.6951 119.0062,160.3261 C118.7472,159.8321 118.6062,159.5911 118.4632,159.3511 C118.3012,159.0781 118.1392,158.8031 117.8452,158.2411 C117.5132,157.6071 117.3912,157.2431 117.2832,156.9211 C117.1962,156.6641 117.1272,156.4601 116.9062,156.0361 C116.6252,155.4991 116.4882,155.2281 116.3512,154.9591 C116.2182,154.6961 116.0852,154.4331 115.8122,153.9111 C115.3952,153.1141 115.3472,152.5441 115.3152,152.1671 C115.2932,151.9101 115.2862,151.8231 115.1502,151.5621 C115.0902,151.4471 115.0902,151.4471 114.8622,151.3271 C114.4662,151.1191 113.8042,150.7711 113.3112,149.8271 C112.9672,149.1701 112.8482,148.7711 112.7512,148.4511 C112.6742,148.1921 112.6192,148.0061 112.4092,147.6041 C111.9762,146.7771 111.9522,146.1771 111.9362,145.7811 C111.9252,145.5261 111.9222,145.4571 111.8022,145.2251 C111.6522,144.9391 111.5722,144.8681 111.3792,144.6951 C111.0932,144.4391 110.7032,144.0881 110.3002,143.3191 C110.0422,142.8261 109.9002,142.5861 109.7572,142.3471 C109.5942,142.0721 109.4312,141.7971 109.1352,141.2321 C108.8232,140.6341 108.6902,140.3001 108.5732,140.0051 C108.4762,139.7631 108.3792,139.5211 108.1392,139.0601 C107.9862,138.7681 107.9002,138.6901 107.7132,138.5191 C107.4322,138.2631 107.0472,137.9131 106.6482,137.1491 C106.1942,136.2811 106.2062,135.6411 106.2142,135.2171 C106.2192,134.9541 106.2202,134.9201 106.1212,134.7321 C106.0042,134.5081 105.9552,134.4711 105.7482,134.3181 C105.4262,134.0791 104.9402,133.7171 104.5042,132.8841 C104.0372,131.9931 104.0732,131.3301 104.0962,130.8911 C104.1102,130.6261 104.1112,130.6101 104.0252,130.4471 C103.9082,130.2211 103.8592,130.1851 103.6522,130.0321 C103.3312,129.7931 102.8472,129.4321 102.4122,128.6011 C102.2312,128.2521 102.1232,128.1391 101.9482,127.9501 C101.6982,127.6821 101.3872,127.3491 101.0172,126.6411 C100.5852,125.8171 100.5602,125.2191 100.5422,124.8251 C100.5322,124.5691 100.5292,124.5001 100.4072,124.2671 C100.0212,123.5281 99.9372,123.0361 99.8762,122.6771 C99.8332,122.4211 99.8112,122.2931 99.6452,121.9751 C99.4302,121.5621 99.3092,121.4061 99.1412,121.1881 C98.9412,120.9281 98.6922,120.6051 98.3562,119.9611 C98.2772,119.8111 98.2732,119.8091 98.0402,119.6711 C97.6772,119.4571 97.0692,119.0961 96.5952,118.1891 C96.1812,117.3981 96.1312,116.8551 96.0952,116.4601 C96.0732,116.2071 96.0642,116.1131 95.9252,115.8471 C95.7582,115.5281 95.6642,115.4361 95.4792,115.2531 C95.2202,114.9991 94.8652,114.6491 94.4792,113.9121 C94.1592,113.2981 94.0302,112.9521 93.9172,112.6451 C93.8192,112.3801 93.7422,112.1711 93.5092,111.7281 C93.2992,111.3241 93.1772,111.1711 93.0102,110.9601 C92.8012,110.6991 92.5422,110.3731 92.2002,109.7161 C91.7152,108.7921 91.7872,108.0671 91.8312,107.6331 C91.8582,107.3711 91.8582,107.3711 91.7892,107.2411 C91.6332,106.9411 91.5472,106.8611 91.3592,106.6871 C91.0822,106.4311 90.7042,106.0821 90.3082,105.3241 C89.9282,104.5961 89.8382,104.1161 89.7722,103.7651 C89.7252,103.5111 89.6992,103.3721 89.5262,103.0421 C89.4342,102.8661 89.4152,102.8541 89.1912,102.7101 C88.8272,102.4771 88.2772,102.1251 87.8162,101.2431 C87.4822,100.6041 87.3562,100.2201 87.2542,99.9121 C87.1712,99.6571 87.1052,99.4551 86.8862,99.0361 C86.5022,98.3011 86.7862,97.3951 87.5212,97.0111 C88.2522,96.6291 89.1612,96.9121 89.5442,97.6461 C89.8782,98.2851 90.0042,98.6691 90.1062,98.9771 C90.1892,99.2331 90.2552,99.4341 90.4742,99.8531 C90.5662,100.0291 90.5842,100.0411 90.8092,100.1841 C91.1732,100.4181 91.7232,100.7701 92.1842,101.6521 C92.5652,102.3781 92.6552,102.8601 92.7212,103.2111 C92.7682,103.4641 92.7942,103.6041 92.9672,103.9341 C93.1222,104.2311 93.2082,104.3111 93.3972,104.4851 C93.6732,104.7411 94.0522,105.0911 94.4492,105.8501 C94.9332,106.7761 94.8602,107.5011 94.8172,107.9341 C94.7892,108.1971 94.7892,108.1971 94.8582,108.3271 C95.0682,108.7301 95.1902,108.8821 95.3572,109.0931 C95.5662,109.3551 95.8252,109.6811 96.1672,110.3371 C96.4902,110.9511 96.6182,111.2981 96.7312,111.6061 C96.8252,111.8601 96.9062,112.0801 97.1372,112.5221 C97.3042,112.8401 97.3972,112.9321 97.5822,113.1151 C97.8422,113.3701 98.1982,113.7191 98.5832,114.4581 C98.9972,115.2491 99.0472,115.7921 99.0832,116.1871 C99.1062,116.4401 99.1152,116.5341 99.2532,116.7991 C99.3322,116.9501 99.3362,116.9531 99.5692,117.0891 C99.9322,117.3051 100.5402,117.6651 101.0142,118.5721 C101.2292,118.9831 101.3502,119.1391 101.5182,119.3571 C101.7182,119.6171 101.9672,119.9401 102.3042,120.5851 C102.6902,121.3231 102.7732,121.8161 102.8342,122.1751 C102.8772,122.4311 102.9002,122.5591 103.0652,122.8771 C103.4962,123.7021 103.5232,124.2991 103.5392,124.6951 C103.5512,124.9511 103.5542,125.0191 103.6752,125.2521 C103.8572,125.5991 103.9632,125.7131 104.1402,125.9021 C104.3902,126.1691 104.7012,126.5021 105.0712,127.2111 C105.1882,127.4351 105.2372,127.4711 105.4432,127.6251 C105.7642,127.8641 106.2482,128.2241 106.6832,129.0561 C107.1502,129.9471 107.1152,130.6111 107.0912,131.0491 C107.0782,131.3141 107.0772,131.3301 107.1622,131.4941 C107.2802,131.7181 107.3292,131.7551 107.5362,131.9091 C107.8582,132.1481 108.3442,132.5091 108.7802,133.3421 C109.2342,134.2101 109.2222,134.8501 109.2132,135.2741 C109.2082,135.5371 109.2082,135.5701 109.3072,135.7581 C109.4602,136.0531 109.5462,136.1311 109.7342,136.3021 C110.0142,136.5571 110.3982,136.9081 110.7972,137.6701 C111.1102,138.2681 111.2432,138.6021 111.3602,138.8971 C111.4562,139.1391 111.5532,139.3811 111.7932,139.8421 C112.0512,140.3351 112.1942,140.5751 112.3362,140.8141 C112.4992,141.0881 112.6622,141.3631 112.9582,141.9281 C113.1092,142.2161 113.1892,142.2891 113.3812,142.4601 C113.6662,142.7161 114.0572,143.0671 114.4602,143.8351 C114.8932,144.6641 114.9172,145.2621 114.9332,145.6591 C114.9442,145.9151 114.9472,145.9831 115.0672,146.2141 C115.4112,146.8701 115.5302,147.2691 115.6252,147.5901 C115.7032,147.8481 115.7592,148.0351 115.9692,148.4361 C116.0302,148.5511 116.0302,148.5511 116.2582,148.6711 C116.6532,148.8791 117.3152,149.2271 117.8082,150.1711 C118.2252,150.9681 118.2732,151.5391 118.3052,151.9161 C118.3272,152.1721 118.3332,152.2591 118.4702,152.5201 C118.7522,153.0601 118.8902,153.3311 119.0282,153.6021 C119.1602,153.8641 119.2922,154.1261 119.5642,154.6451 C119.8962,155.2791 120.0182,155.6431 120.1262,155.9641 C120.2132,156.2221 120.2822,156.4261 120.5032,156.8511 C120.7612,157.3431 120.9032,157.5841 121.0452,157.8231 C121.2072,158.0971 121.3702,158.3711 121.6642,158.9351 C122.0262,159.6251 122.1312,160.0531 122.2162,160.3981 C122.2792,160.6521 122.3202,160.8191 122.5122,161.1881 C122.5652,161.2881 122.5652,161.2881 122.7912,161.4011 C123.2002,161.6051 123.8842,161.9481 124.3852,162.9071 C124.6952,163.4991 124.8222,163.8091 124.9492,164.1211 C125.0492,164.3661 125.1492,164.6111 125.3942,165.0781 C125.6862,165.6371 125.8202,165.9241 125.9532,166.2111 C126.0722,166.4671 126.1902,166.7231 126.4532,167.2231 C126.9112,168.1011 126.8932,168.7491 126.8812,169.1761 C126.8742,169.4391 126.8732,169.4731 126.9702,169.6591 C127.0572,169.8241 127.0762,169.8361 127.3012,169.9761 C127.6782,170.2111 128.2472,170.5671 128.7092,171.4771 C128.9992,172.0481 129.0362,172.0971 129.2372,172.3691 C129.3722,172.5541 129.5612,172.8091 129.8762,173.2731 C130.1942,173.7401 130.3162,174.2491 130.4242,174.6981 C130.4952,174.9921 130.5752,175.3261 130.6802,175.4541 C130.8022,175.6031 131.0582,175.7921 131.3292,175.9911 C131.6762,176.2461 132.0692,176.5351 132.4392,176.9191 C132.6482,177.1351 132.9472,177.3601 133.2632,177.5981 C133.5722,177.8301 133.8862,178.0681 134.1892,178.3361 C134.5212,178.6321 134.7942,178.9611 135.0362,179.2521 C135.2782,179.5441 135.5072,179.8191 135.7412,179.9981 C135.8582,180.0861 136.1582,180.1871 136.4232,180.2761 C136.8402,180.4171 137.3602,180.5901 137.8512,180.9121 C138.3492,181.2381 138.7012,181.6751 138.9842,182.0271 C139.1532,182.2381 139.3632,182.5001 139.4882,182.5691 C139.6872,182.6801 139.8882,182.7961 140.0912,182.9141 C140.5482,183.1781 141.0212,183.4511 141.4902,183.6711 C141.5842,183.7101 141.9092,183.7201 142.1232,183.7281 C142.6082,183.7461 143.2102,183.7661 143.8182,184.0061 C144.3742,184.2251 144.8112,184.5831 145.1622,184.8711 C145.3812,185.0501 145.6292,185.2541 145.7682,185.2981 C146.1972,185.4371 146.5762,185.6201 146.9412,185.7971 C147.2872,185.9641 147.6142,186.1231 147.9012,186.1971 C147.9582,186.1951 148.2452,186.1291 148.4362,186.0861 C148.9532,185.9661 149.5972,185.8171 150.3032,185.9581 C151.0032,186.0951 151.5342,186.4951 151.9602,186.8151 C152.1222,186.9371 152.3702,187.1231 152.4672,187.1561 C152.6772,187.1831 153.0152,187.1601 153.3732,187.1351 C153.7912,187.1061 154.2652,187.0731 154.7682,187.1191 C154.8562,187.1181 155.1852,187.0251 155.3922,186.9601 C155.8592,186.8141 156.4382,186.6311 157.1002,186.6611 C157.7142,186.6871 158.2522,186.8931 158.6852,187.0591 C158.9482,187.1601 159.2452,187.2731 159.3902,187.2731 C159.6582,187.2731 159.9922,187.2101 160.3462,187.1451 C160.7472,187.0701 161.2032,186.9861 161.6922,186.9651 C162.0862,186.9491 162.4842,186.9661 162.8872,186.9861 C163.2882,187.0051 163.6672,187.0231 164.0142,186.9971 L164.7792,186.9421 C165.2902,186.9071 165.8102,186.8721 166.3332,186.8101 C166.4512,186.7971 166.7432,186.6461 166.9552,186.5361 C167.3832,186.3141 167.9142,186.0391 168.5542,185.9431 C169.1042,185.8621 169.6102,185.9071 170.0552,185.9461 C170.3862,185.9761 170.6982,186.0041 170.9162,185.9641 C171.4392,185.8701 171.9472,185.8831 172.3912,185.8961 C172.7122,185.9051 173.0152,185.9141 173.2452,185.8791 C173.5892,185.7531 173.7262,185.6621 173.9422,185.5171 C174.2312,185.3241 174.5912,185.0841 175.2862,184.8101 C176.0302,184.5161 176.4802,184.4601 176.8412,184.4141 C177.1072,184.3791 177.2822,184.3571 177.6762,184.2021 C178.2732,183.9661 178.5762,183.8611 178.8782,183.7551 C179.1542,183.6591 179.4292,183.5621 179.9712,183.3491 C180.2272,183.2491 180.2762,183.1961 180.4592,183.0001 C180.7372,182.7041 181.1552,182.2561 182.0392,181.9081 C182.6892,181.6521 183.0502,181.5551 183.3692,181.4701 C183.6442,181.3971 183.8812,181.3341 184.3712,181.1401 C185.1422,180.8361 186.0132,181.2141 186.3172,181.9861 C186.6202,182.7571 186.2422,183.6281 185.4712,183.9311 C184.8212,184.1871 184.4602,184.2841 184.1422,184.3691 C183.8682,184.4421 183.6292,184.5051 183.1392,184.6991 C182.8832,184.7991 182.8342,184.8521 182.6512,185.0481 C182.3732,185.3441 181.9552,185.7921 181.0712,186.1401 C180.4742,186.3761 180.1712,186.4811 179.8692,186.5861 C179.5932,186.6831 179.3182,186.7801 178.7762,186.9931 C178.0322,187.2861 177.5822,187.3431 177.2202,187.3891 C176.9552,187.4231 176.7812,187.4451 176.3852,187.6011 C175.9902,187.7561 175.8302,187.8631 175.6102,188.0111 C175.2982,188.2191 174.9122,188.4771 174.1272,188.7501 C174.0682,188.7701 174.0082,188.7871 173.9472,188.8001 C173.3602,188.9251 172.8002,188.9091 172.3072,188.8951 C171.9762,188.8841 171.6652,188.8771 171.4542,188.9161 C170.8392,189.0281 170.2812,188.9781 169.7892,188.9341 C169.4832,188.9081 169.1962,188.8831 168.9982,188.9101 C168.8522,188.9321 168.5782,189.0741 168.3352,189.2001 C167.8922,189.4281 167.3422,189.7131 166.6792,189.7911 C166.1092,189.8571 165.5422,189.8961 164.9842,189.9341 L164.2522,189.9871 C163.7112,190.0301 163.1952,190.0041 162.7402,189.9831 C162.4292,189.9671 162.1222,189.9501 161.8162,189.9621 C161.5412,189.9741 161.2272,190.0331 160.8952,190.0941 C160.4452,190.1781 159.9352,190.2731 159.3912,190.2731" id="Fill-500" fill="#000"/><path d="M170.8365,121.9586 C170.4825,121.9586 170.0785,121.8916 169.6135,121.7156 C168.1435,121.1576 167.9005,120.1296 167.7565,119.5156 C167.7015,119.2836 167.6575,119.1006 167.5475,118.8926 C167.1445,118.1326 167.0675,117.6186 167.0125,117.2436 C166.9745,116.9846 166.9575,116.8676 166.7965,116.5646 C166.6825,116.3506 166.6375,116.3186 166.4245,116.1686 C166.0885,115.9316 165.5805,115.5736 165.1305,114.7276 C164.8575,114.2156 164.7155,113.9586 164.5745,113.7056 C164.4235,113.4336 164.2735,113.1646 163.9815,112.6136 L162.8485,110.4956 C162.5575,109.9486 162.4185,109.6756 162.2775,109.3996 C162.1465,109.1406 162.0135,108.8786 161.7395,108.3636 C161.3955,107.7176 161.2705,107.3236 161.1685,107.0086 C161.0845,106.7456 161.0235,106.5566 160.8065,106.1456 C160.3975,105.3776 160.3275,104.8556 160.2765,104.4756 C160.2425,104.2236 160.2275,104.1076 160.0725,103.8156 C159.8045,103.3116 159.6595,103.0626 159.5165,102.8156 C159.3575,102.5436 159.2005,102.2716 158.9055,101.7166 C158.7665,101.4536 158.6975,101.3986 158.4955,101.2336 C158.1065,100.9166 157.7245,100.5696 157.3325,99.8336 C157.0825,99.3636 156.9365,99.1406 156.7895,98.9176 C156.6065,98.6366 156.4215,98.3546 156.1075,97.7646 C155.7435,97.0786 155.6335,96.6526 155.5435,96.3116 C155.4775,96.0546 155.4335,95.8846 155.2335,95.5106 C154.8895,94.8606 154.7645,94.4676 154.6625,94.1496 C154.5795,93.8876 154.5195,93.6976 154.3015,93.2876 C154.1515,93.0076 154.0715,92.9386 153.8785,92.7716 C153.5815,92.5176 153.1765,92.1676 152.7625,91.3896 C152.3855,90.6796 152.2865,90.2316 152.2065,89.8716 C152.1495,89.6166 152.1155,89.4636 151.9305,89.1136 C151.7135,88.7056 151.5895,88.5506 151.4195,88.3356 C151.2125,88.0746 150.9545,87.7506 150.6075,87.0996 C150.3005,86.5196 150.1685,86.2166 150.0365,85.9146 C149.9285,85.6656 149.8205,85.4176 149.5665,84.9396 C149.3545,84.5396 149.2315,84.3886 149.0605,84.1786 C148.8475,83.9166 148.5825,83.5906 148.2325,82.9316 C147.8165,82.1486 147.7575,81.6136 147.7135,81.2226 C147.6855,80.9636 147.6745,80.8656 147.5265,80.5896 C147.4045,80.3596 147.3505,80.3186 147.1445,80.1666 C146.8245,79.9286 146.3405,79.5696 145.9005,78.7426 C145.5125,78.0116 145.7895,77.1026 146.5215,76.7136 C147.2465,76.3236 148.1595,76.6016 148.5495,77.3336 C148.6725,77.5636 148.7275,77.6046 148.9335,77.7576 C149.2525,77.9956 149.7365,78.3546 150.1765,79.1816 C150.5925,79.9656 150.6515,80.5006 150.6955,80.8916 C150.7245,81.1506 150.7345,81.2476 150.8825,81.5236 C151.0955,81.9256 151.2185,82.0766 151.3885,82.2866 C151.6015,82.5486 151.8655,82.8736 152.2155,83.5306 C152.5245,84.1116 152.6555,84.4146 152.7875,84.7166 C152.8965,84.9656 153.0035,85.2136 153.2575,85.6906 C153.4755,86.1006 153.5985,86.2556 153.7695,86.4706 C153.9755,86.7306 154.2325,87.0556 154.5785,87.7046 C154.9565,88.4156 155.0555,88.8626 155.1355,89.2236 C155.1915,89.4786 155.2265,89.6316 155.4115,89.9806 C155.5615,90.2626 155.6415,90.3316 155.8355,90.4976 C156.1315,90.7526 156.5365,91.1026 156.9495,91.8806 C157.2955,92.5296 157.4205,92.9236 157.5225,93.2406 C157.6055,93.5036 157.6655,93.6926 157.8835,94.1036 C158.2475,94.7886 158.3575,95.2146 158.4475,95.5566 C158.5145,95.8126 158.5585,95.9826 158.7575,96.3566 C159.0065,96.8256 159.1525,97.0496 159.2995,97.2726 C159.4825,97.5546 159.6675,97.8346 159.9815,98.4266 C160.1205,98.6876 160.1895,98.7436 160.3915,98.9076 C160.7805,99.2266 161.1625,99.5716 161.5545,100.3086 C161.8225,100.8136 161.9675,101.0616 162.1105,101.3096 C162.2695,101.5806 162.4265,101.8536 162.7215,102.4086 C163.1295,103.1766 163.1995,103.6976 163.2505,104.0776 C163.2835,104.3306 163.2995,104.4456 163.4545,104.7376 C163.7995,105.3856 163.9245,105.7776 164.0255,106.0936 C164.1095,106.3556 164.1705,106.5456 164.3895,106.9566 C164.6755,107.4946 164.8145,107.7686 164.9515,108.0396 C165.0865,108.3036 165.2195,108.5646 165.4965,109.0876 L166.6305,111.2066 C166.9085,111.7316 167.0515,111.9876 167.1955,112.2466 C167.3445,112.5136 167.4935,112.7816 167.7785,113.3176 C167.8935,113.5336 167.9385,113.5646 168.1505,113.7156 C168.4865,113.9516 168.9945,114.3096 169.4445,115.1566 C169.8495,115.9166 169.9255,116.4306 169.9815,116.8066 C170.0195,117.0636 170.0355,117.1826 170.1965,117.4846 C170.4885,118.0346 170.6025,118.5126 170.6765,118.8276 C170.6835,118.8576 170.6905,118.8886 170.6955,118.9166 C170.7385,118.9326 170.7715,118.9426 170.7955,118.9496 C170.8575,118.9186 170.9185,118.8796 170.9875,118.8396 C171.2405,118.6946 171.5875,118.4966 172.0665,118.3206 C172.3195,118.2286 172.3695,118.1776 172.5545,117.9886 C172.8365,117.7016 173.2625,117.2686 174.1495,116.9426 C175.0645,116.6076 175.6935,116.6876 176.1085,116.7416 C176.3685,116.7756 176.4235,116.7826 176.6505,116.6996 C176.9805,116.5796 177.0735,116.5016 177.2785,116.3316 C177.5715,116.0886 177.9745,115.7556 178.7865,115.4576 C179.2235,115.2976 179.3945,115.1936 179.6305,115.0516 C179.9215,114.8756 180.2835,114.6566 180.9895,114.3976 C181.6815,114.1456 182.0865,114.0696 182.4125,114.0096 C182.6825,113.9586 182.8965,113.9196 183.3495,113.7536 C183.9505,113.5326 184.2555,113.4356 184.5605,113.3376 C184.8355,113.2486 185.1115,113.1596 185.6545,112.9606 C186.4335,112.6766 187.2935,113.0746 187.5795,113.8536 C187.8645,114.6306 187.4655,115.4926 186.6885,115.7766 C186.0865,115.9976 185.7815,116.0956 185.4775,116.1926 C185.2015,116.2816 184.9255,116.3706 184.3825,116.5696 C183.6915,116.8226 183.2855,116.8976 182.9595,116.9586 C182.6905,117.0096 182.4765,117.0486 182.0235,117.2146 C181.5875,117.3746 181.4175,117.4776 181.1815,117.6196 C180.8895,117.7956 180.5265,118.0156 179.8185,118.2736 C179.4915,118.3946 179.3985,118.4716 179.1925,118.6416 C178.8995,118.8846 178.4975,119.2186 177.6845,119.5166 C176.7685,119.8526 176.1405,119.7706 175.7255,119.7176 C175.4655,119.6836 175.4105,119.6766 175.1835,119.7596 C174.9305,119.8526 174.8805,119.9026 174.6955,120.0916 C174.4135,120.3786 173.9875,120.8126 173.1005,121.1376 C172.8575,121.2276 172.6805,121.3276 172.4755,121.4446 C172.0915,121.6636 171.5745,121.9586 170.8365,121.9586" id="Fill-502" fill="#000"/><path d="M126.1665,0.7819 L114.7675,0.7819 C109.6135,0.7819 105.2275,4.4759 104.3115,9.5169 C104.3015,9.5799 104.2925,9.6409 104.2835,9.7039 L104.2775,9.7379 C104.2405,9.9829 104.2025,10.2339 104.1655,10.4829 C102.8385,19.2239 101.2005,29.9339 101.2005,29.9339 L136.6335,29.9339 L136.7055,22.1699 L136.8035,11.5179 C136.8585,5.6049 132.0805,0.7819 126.1665,0.7819" id="Fill-504" fill="#ef9e89"/><path d="M136.6334,29.9342 C122.7584,28.9582 118.9674,25.9842 119.1014,23.5072 C119.2204,21.2882 121.3054,21.5972 122.2164,21.6182 C126.2304,21.7082 136.7054,22.1692 136.7054,22.1692" id="Fill-506" fill="#000"/></g></g></g></g><g id="Head" transform="translate(204.000000, 145.000000) scale(1 1)"><g id="Head/Long Wavy Hair" stroke="none" stroke-width="1" fill="none" fill-rule="evenodd"><g id="Group-183" transform="translate(39.000000, 66.000000)"><g id="Group-84" transform="translate(0.000000, 0.738000)"><path d="M112.4501,55.6588 C110.2791,52.3878 105.0021,56.2198 103.8661,51.7408 C102.4351,45.4408 100.8491,39.5968 99.4241,36.9298 C96.7191,31.8728 88.4721,26.5578 75.2831,28.5988 C66.5261,29.9548 57.2001,38.1238 63.2581,52.3448 C63.2581,52.3448 64.9911,55.7918 64.1611,61.4758 C64.0691,62.1018 63.9391,62.9768 63.7831,64.0178 L63.7831,64.0258 C63.5191,65.7858 63.1791,68.0418 62.8051,70.5068 C62.7951,70.5688 62.7861,70.6298 62.7771,70.6928 L62.7721,70.7268 L62.7711,70.7268 C62.7341,70.9718 62.6971,71.2218 62.6581,71.4718 C62.4291,74.0608 63.1361,82.5368 82.2131,82.6338 L95.1991,83.1588 L95.3971,83.1668 C95.3971,83.1668 99.7481,83.1178 102.3821,83.1178 C107.8561,83.1178 108.7961,77.8988 108.1821,74.0368 C107.9541,72.6088 107.1851,68.0728 106.1261,62.5888 C111.1541,61.7528 114.7751,59.1628 112.4501,55.6588" id="Fill-63" fill="#ef9e89"/><g id="Group-67" fill="#3164cf"><path d="M77.723,44.2672 L102.789,42.6072 C108.308,42.2412 113.231,38.8512 115.357,33.7452 C116.81,30.2542 118.037,25.7462 118.134,20.3702 C118.376,7.0022 109.542,3.9912 104.708,4.1242 C99.875,4.2592 93.565,6.9442 92.491,12.5822 C92.491,12.5822 89.659,-0.7088 76.198,0.5742 C64.558,1.6822 64.566,14.5972 64.566,14.5972 C64.566,14.5972 47.809,2.3612 34.868,12.1012 C18.665,24.2952 29.794,45.3412 29.794,45.3412 C29.794,45.3412 9.051,41.0512 5.426,60.6532 C1.801,80.2532 17.925,85.2152 17.925,85.2152 C17.925,85.2152 2.478,88.5722 3.718,106.0252 C4.956,123.4782 16.771,125.3582 16.771,125.3582 C16.771,125.3582 -1.313,126.8342 0.076,154.0882 C1.466,181.3422 45.473,182.2692 51.275,161.8752 C54.769,149.5932 49.126,142.5422 49.126,142.5422 C49.126,142.5422 64.969,142.9462 66.983,130.8632 C68.996,118.7802 56.999,109.7042 56.999,109.7042 C56.999,109.7042 70.575,107.4542 73.664,95.9092 C75.431,89.3052 72.895,78.3292 66.182,73.8992 C66.182,73.8992 83.973,63.0912 77.723,44.2672" id="Fill-65"/></g><path d="M33.9405,92.1434 C33.7855,92.1434 33.6275,92.1184 33.4725,92.0684 C32.6845,91.8094 32.2565,90.9624 32.5145,90.1744 C32.6715,89.6964 32.8885,89.2814 33.0785,88.9134 C33.2375,88.6094 33.3875,88.3214 33.4485,88.0934 C33.5905,87.5714 33.6905,87.0494 33.7885,86.5424 L33.9195,85.8854 C33.9885,85.5494 34.0725,85.2194 34.1555,84.8944 C34.2645,84.4634 34.3685,84.0574 34.4175,83.6914 C34.4665,83.3424 34.5315,82.9974 34.5975,82.6574 C34.6805,82.2294 34.7585,81.8244 34.7795,81.4734 L34.8215,80.8524 C34.8625,80.2724 34.9015,79.7234 34.8895,79.2344 C34.8815,78.9154 34.7925,78.5434 34.6985,78.1484 C34.6085,77.7714 34.5235,77.4004 34.4795,77.0384 C34.4445,76.7554 34.4195,76.4724 34.3935,76.1934 C34.3495,75.7004 34.3075,75.2364 34.2185,74.8494 C34.1505,74.5504 34.0935,74.2484 34.0375,73.9494 C33.9505,73.4824 33.8675,73.0384 33.7455,72.6934 C33.5905,72.2544 33.3465,71.7944 33.1105,71.3504 C32.9965,71.1354 32.8845,70.9244 32.7825,70.7184 C32.6245,70.4004 32.3705,70.0784 32.1005,69.7404 C31.8895,69.4724 31.6835,69.2104 31.5085,68.9474 C31.3825,68.7554 31.1195,68.5564 30.8415,68.3464 C30.5365,68.1164 30.1925,67.8554 29.8915,67.5074 C29.4025,66.9424 29.1855,66.2744 29.0275,65.7864 C28.9835,65.6534 28.9215,65.4604 28.8775,65.3624 C28.5485,65.0774 28.4705,65.0564 28.2825,65.0044 C28.0265,64.9344 27.6395,64.8284 27.0785,64.5194 C26.3525,64.1184 26.0885,63.2064 26.4885,62.4814 C26.8885,61.7554 27.8005,61.4904 28.5265,61.8924 C28.7755,62.0294 28.8945,62.0624 29.0755,62.1124 C29.6105,62.2584 30.0875,62.4294 30.9355,63.1754 C31.4925,63.6654 31.7075,64.3274 31.8805,64.8604 C31.9595,65.1044 32.0685,65.4384 32.1605,65.5444 C32.2545,65.6534 32.4555,65.8054 32.6515,65.9534 C33.0745,66.2744 33.6005,66.6724 34.0105,67.2904 C34.1405,67.4864 34.2945,67.6774 34.4505,67.8744 C34.7885,68.3004 35.1725,68.7834 35.4715,69.3864 C35.5615,69.5694 35.6605,69.7544 35.7605,69.9444 C36.0345,70.4604 36.3445,71.0444 36.5745,71.6944 C36.7735,72.2594 36.8815,72.8384 36.9865,73.3994 C37.0355,73.6574 37.0835,73.9194 37.1425,74.1774 C37.2775,74.7634 37.3305,75.3534 37.3815,75.9234 C37.4045,76.1724 37.4265,76.4254 37.4575,76.6774 C37.4885,76.9294 37.5535,77.1884 37.6165,77.4524 C37.7365,77.9554 37.8715,78.5264 37.8885,79.1584 C37.9035,79.7924 37.8585,80.4394 37.8135,81.0634 L37.7735,81.6554 C37.7415,82.2004 37.6405,82.7224 37.5425,83.2264 C37.4875,83.5144 37.4305,83.8054 37.3905,84.0994 C37.3175,84.6324 37.1875,85.1424 37.0625,85.6344 C36.9905,85.9164 36.9175,86.2024 36.8565,86.4934 L36.7335,87.1154 C36.6215,87.6914 36.5055,88.2824 36.3445,88.8764 C36.1995,89.4164 35.9545,89.8854 35.7405,90.2984 C35.5885,90.5894 35.4455,90.8644 35.3655,91.1104 C35.1575,91.7414 34.5705,92.1434 33.9405,92.1434 L33.9405,92.1434 Z" id="Fill-68" fill="#000"/><path d="M80.1932,40.0534 C79.4902,40.0534 78.8622,39.5564 78.7222,38.8404 C78.5632,38.0284 79.0932,37.2404 79.9062,37.0804 C79.9342,37.0744 79.9592,37.0704 79.9822,37.0644 C79.9932,37.0504 80.0032,37.0364 80.0142,37.0224 C80.3202,36.6254 80.7202,36.1674 81.5992,35.7464 C82.1692,35.4734 82.7332,35.1274 83.3732,34.6604 C83.8942,34.2804 84.4962,34.1494 84.9792,34.0424 C85.1932,33.9964 85.5142,33.9254 85.6082,33.8664 C86.0612,33.3754 86.5552,32.6204 86.8842,32.0984 C87.3202,31.4064 87.6702,30.7384 87.9222,30.1154 C88.0242,29.8614 88.0772,29.4614 88.1332,29.0384 C88.1842,28.6574 88.2382,28.2694 88.3262,27.8904 C88.3822,27.6464 88.3722,27.2824 88.3612,26.8974 C88.3512,26.5194 88.3392,26.0894 88.3822,25.6344 L88.4362,25.1064 C88.4992,24.5154 88.5582,23.9574 88.5492,23.3764 C88.5372,22.5484 89.1982,21.8664 90.0272,21.8544 C90.8352,21.8584 91.5372,22.5044 91.5492,23.3324 C91.5602,24.0934 91.4852,24.7994 91.4202,25.4214 L91.3692,25.9174 C91.3402,26.2204 91.3522,26.5214 91.3602,26.8144 C91.3752,27.3454 91.3912,27.9484 91.2492,28.5654 C91.1832,28.8514 91.1462,29.1454 91.1082,29.4344 C91.0332,29.9954 90.9482,30.6334 90.7032,31.2404 C90.3842,32.0274 89.9542,32.8544 89.4222,33.6984 C89.0272,34.3244 88.4262,35.2384 87.7612,35.9494 C87.1082,36.6484 86.2482,36.8364 85.6202,36.9734 C85.4462,37.0114 85.1832,37.0694 85.1022,37.1094 C84.3502,37.6614 83.6362,38.0964 82.8962,38.4514 C82.5862,38.6004 82.5252,38.6804 82.3892,38.8554 C82.0392,39.3094 81.5742,39.8114 80.4832,40.0254 C80.3852,40.0434 80.2882,40.0534 80.1932,40.0534" id="Fill-70" fill="#000"/><path d="M101.5814,37.3336 C101.0364,37.3336 100.5104,37.0356 100.2454,36.5176 C99.8674,35.7796 100.1594,34.8756 100.8964,34.4986 L101.3124,34.2886 C101.7784,34.0556 101.7784,34.0556 102.4984,33.3976 C102.7614,33.1576 103.0204,32.9666 103.2924,32.7686 C103.6504,32.5096 103.9874,32.2656 104.1844,31.9836 C104.6194,31.3626 105.0334,30.7706 105.2684,30.1476 C105.2764,30.0766 105.2254,29.7536 105.1924,29.5396 C105.1244,29.1116 105.0414,28.5786 105.1014,28.0056 C105.1454,27.5746 105.2614,27.1856 105.3634,26.8416 C105.4674,26.4896 105.5664,26.1576 105.5374,25.9326 C105.4894,25.5506 105.3314,25.1026 105.1484,24.5836 C105.0634,24.3426 104.9764,24.0966 104.8944,23.8426 C104.6414,23.0536 105.0764,22.2086 105.8644,21.9556 C106.6514,21.7016 107.4984,22.1366 107.7514,22.9256 C107.8244,23.1506 107.9014,23.3706 107.9774,23.5856 C108.1974,24.2096 108.4254,24.8546 108.5144,25.5546 C108.6224,26.4056 108.4104,27.1206 108.2394,27.6946 C108.1684,27.9356 108.1014,28.1606 108.0854,28.3146 C108.0654,28.5006 108.1114,28.7926 108.1564,29.0756 C108.2504,29.6796 108.3684,30.4306 108.0754,31.2076 C107.7074,32.1816 107.1354,32.9986 106.6764,33.6556 C106.1574,34.3976 105.5444,34.8416 105.0534,35.1976 C104.8764,35.3256 104.7054,35.4456 104.5614,35.5766 C103.5804,36.4726 103.4704,36.5626 102.6544,36.9716 L102.2644,37.1686 C102.0454,37.2806 101.8114,37.3336 101.5814,37.3336" id="Fill-72" fill="#000"/><path d="M54.2401,66.901 C53.7321,66.901 53.2361,66.643 52.9541,66.175 L52.8161,65.948 C52.4201,65.295 52.0471,64.677 51.7281,63.945 C51.6321,63.723 51.4841,63.482 51.3271,63.228 C51.0511,62.778 50.7381,62.269 50.5571,61.634 C50.3451,60.89 50.1081,60.02 49.9701,59.119 C49.9281,58.839 49.8621,58.564 49.7981,58.291 C49.6781,57.774 49.5421,57.189 49.5191,56.565 C49.4961,55.917 49.5631,55.294 49.6231,54.744 C49.6501,54.493 49.6771,54.243 49.6941,53.997 C49.7091,53.772 49.6671,53.471 49.6231,53.152 C49.5501,52.629 49.4681,52.035 49.5721,51.397 C49.6831,50.716 49.9751,50.141 50.2091,49.678 C50.3441,49.413 50.4711,49.162 50.5151,48.99 L50.5511,48.844 C50.7521,48.041 50.9431,47.281 51.1831,46.562 C51.4221,45.849 51.8191,45.316 52.1371,44.887 C52.2781,44.698 52.4381,44.483 52.4841,44.374 L52.7511,43.735 C53.0441,43.032 53.0731,42.972 53.5471,42.143 C53.9581,41.423 54.8881,41.147 55.6091,41.557 C56.3281,41.968 56.5941,42.857 56.1831,43.577 L56.1521,43.631 C55.7531,44.329 55.7531,44.329 55.5221,44.886 L55.2471,45.543 C55.0611,45.983 54.7871,46.351 54.5451,46.676 C54.3241,46.974 54.1151,47.256 54.0281,47.515 C53.8241,48.123 53.6481,48.827 53.4611,49.573 L53.4251,49.72 C53.2991,50.219 53.0791,50.653 52.8851,51.036 C52.7221,51.356 52.5691,51.659 52.5321,51.88 C52.5011,52.071 52.5491,52.411 52.5941,52.739 C52.6551,53.174 52.7231,53.668 52.6871,54.203 C52.6671,54.487 52.6361,54.774 52.6051,55.065 C52.5531,55.558 52.5021,56.025 52.5171,56.459 C52.5301,56.791 52.6221,57.189 52.7201,57.61 C52.8021,57.96 52.8821,58.311 52.9361,58.666 C53.0471,59.395 53.2561,60.157 53.4431,60.813 C53.5101,61.049 53.6831,61.331 53.8841,61.657 C54.0781,61.974 54.2991,62.334 54.4801,62.751 C54.7181,63.297 55.0251,63.804 55.3821,64.393 L55.5231,64.627 C55.9511,65.336 55.7221,66.258 55.0131,66.686 C54.7711,66.832 54.5041,66.901 54.2401,66.901" id="Fill-74" fill="#000"/><path d="M38.4789,116.9459 C38.3939,116.9459 38.3069,116.9389 38.2199,116.9239 C37.4039,116.7819 36.8569,116.0049 36.9989,115.1889 C37.1189,114.5029 37.4239,113.9369 37.6689,113.4819 C37.8049,113.2319 37.9439,112.9719 37.9859,112.8059 C38.1349,112.2069 38.3519,111.6709 38.5419,111.1989 C38.6459,110.9429 38.7499,110.6899 38.8359,110.4309 C38.8999,110.2419 38.9189,109.9479 38.9389,109.6359 C38.9729,109.1289 39.0139,108.4959 39.2869,107.8759 C39.3839,107.6559 39.4759,107.4339 39.5669,107.2149 C39.7999,106.6539 40.0409,106.0739 40.3549,105.5199 C40.4939,105.2739 40.6209,105.0199 40.7479,104.7679 C41.0039,104.2579 41.2689,103.7279 41.6269,103.2309 C42.0369,102.6609 42.5089,102.1629 42.9259,101.7229 C43.0749,101.5659 43.2219,101.4119 43.3629,101.2579 C43.8169,100.7559 44.3329,100.4149 44.7869,100.1139 C45.0139,99.9639 45.2409,99.8189 45.4369,99.6479 C45.9379,99.2119 46.4669,98.8959 46.9329,98.6179 C47.1539,98.4849 47.3739,98.3549 47.5829,98.2129 C47.8299,98.0439 48.0549,97.8519 48.2769,97.6649 C48.6719,97.3329 49.1209,96.9569 49.6619,96.6709 C49.9009,96.5439 50.1539,96.3619 50.4209,96.1689 C50.8439,95.8639 51.3219,95.5189 51.8949,95.2929 C52.6299,95.0009 53.3409,95.0239 53.9129,95.0469 C54.1209,95.0529 54.4329,95.0649 54.5319,95.0379 C54.7669,94.9719 55.0439,94.8039 55.3369,94.6259 C55.7869,94.3509 56.2979,94.0409 56.9289,93.9349 C58.0749,93.7429 58.3249,93.7259 58.9879,93.7449 C59.1489,93.7489 59.3479,93.7539 59.6289,93.7539 C60.4579,93.7539 61.1289,94.4249 61.1289,95.2539 C61.1289,96.0829 60.4579,96.7539 59.6289,96.7539 C59.3149,96.7539 59.0929,96.7489 58.9139,96.7439 C58.4679,96.7319 58.3959,96.7309 57.4229,96.8939 C57.3399,96.9179 57.0739,97.0809 56.8969,97.1879 C56.4849,97.4389 55.9719,97.7509 55.3379,97.9269 C54.7919,98.0809 54.2689,98.0619 53.8059,98.0449 C53.4989,98.0339 53.1499,98.0209 52.9989,98.0819 C52.7739,98.1709 52.4839,98.3799 52.1769,98.6009 C51.8539,98.8349 51.4869,99.0989 51.0639,99.3229 C50.8059,99.4599 50.5149,99.7039 50.2069,99.9629 C49.9089,100.2129 49.6049,100.4649 49.2749,100.6889 C49.0169,100.8659 48.7459,101.0289 48.4709,101.1929 C48.0779,101.4279 47.7069,101.6499 47.4069,101.9109 C47.0879,102.1889 46.7599,102.4059 46.4429,102.6159 C46.1049,102.8399 45.7869,103.0499 45.5839,103.2739 C45.4289,103.4449 45.2669,103.6159 45.1019,103.7889 C44.7169,104.1939 44.3539,104.5769 44.0629,104.9819 C43.8439,105.2869 43.6419,105.6889 43.4289,106.1139 C43.2799,106.4099 43.1289,106.7089 42.9649,106.9979 C42.7419,107.3929 42.5449,107.8659 42.3369,108.3659 C42.2379,108.6049 42.1379,108.8459 42.0319,109.0859 C41.9729,109.2199 41.9519,109.5449 41.9329,109.8309 C41.9039,110.2749 41.8689,110.8279 41.6789,111.3889 C41.5739,111.7029 41.4499,112.0109 41.3239,112.3229 C41.1549,112.7409 40.9959,113.1349 40.8969,113.5319 C40.7639,114.0659 40.5219,114.5129 40.3089,114.9079 C40.1459,115.2119 39.9899,115.4979 39.9549,115.7029 C39.8279,116.4319 39.1939,116.9459 38.4789,116.9459" id="Fill-76" fill="#000"/><path d="M26.8503,163.7119 C26.4603,163.7119 26.0723,163.5609 25.7783,163.2609 C25.7013,163.1829 25.4043,163.0449 25.2083,162.9529 C24.7103,162.7209 24.0903,162.4319 23.6313,161.8459 C23.1273,161.2039 22.6283,160.4809 22.1903,159.7589 C21.7363,159.0079 21.7683,158.1959 21.7913,157.6029 C21.7973,157.4319 21.8083,157.1729 21.7903,157.0869 C21.7433,156.9919 21.5783,156.7859 21.4033,156.5679 C21.0813,156.1669 20.6813,155.6679 20.4853,154.9949 C20.4193,154.7679 20.3463,154.5459 20.2733,154.3239 C20.0923,153.7669 19.9043,153.1919 19.8093,152.5679 C19.7673,152.2969 19.6903,152.0239 19.6183,151.7549 C19.4843,151.2519 19.3323,150.6809 19.3143,150.0729 C19.2943,149.3139 19.5533,148.6779 19.7623,148.1679 C19.8393,147.9799 19.9553,147.6969 19.9643,147.5939 C20.0243,146.9209 20.2373,146.3459 20.4083,145.8849 C20.5003,145.6389 20.5863,145.4069 20.6213,145.2309 C20.6293,145.1299 20.5353,144.7979 20.4793,144.5989 C20.3223,144.0449 20.1273,143.3549 20.3593,142.6189 C20.7263,141.4569 21.2823,141.0159 21.7743,140.6949 C21.8153,140.6689 21.8583,140.6469 21.8993,140.6089 C21.8993,140.6089 21.9213,140.5849 21.9603,140.5089 C22.3333,139.7689 23.2373,139.4729 23.9753,139.8469 C24.7143,140.2209 25.0103,141.1239 24.6363,141.8629 C24.2243,142.6779 23.7173,143.0099 23.4153,143.2069 C23.3803,143.2289 23.3443,143.2499 23.3113,143.2769 C23.3133,143.2789 23.2943,143.3149 23.2643,143.3939 C23.2863,143.4989 23.3323,143.6639 23.3653,143.7809 C23.5153,144.3099 23.7213,145.0339 23.5633,145.8219 C23.4813,146.2299 23.3423,146.6009 23.2213,146.9289 C23.0953,147.2669 22.9773,147.5879 22.9523,147.8599 C22.9033,148.4129 22.7103,148.8859 22.5393,149.3029 C22.4483,149.5269 22.3103,149.8649 22.3133,149.9899 C22.3203,150.2459 22.4163,150.6009 22.5163,150.9779 C22.6173,151.3529 22.7153,151.7329 22.7733,152.1119 C22.8323,152.4939 22.9753,152.9299 23.1263,153.3929 C23.2083,153.6449 23.2913,153.8999 23.3653,154.1569 C23.3943,154.2559 23.6053,154.5179 23.7443,154.6919 C24.0043,155.0169 24.3293,155.4219 24.5553,155.9339 C24.8343,156.5659 24.8093,157.2069 24.7893,157.7199 C24.7813,157.9079 24.7703,158.1909 24.7943,158.2849 C25.1333,158.8259 25.5603,159.4449 25.9913,159.9949 C26.0383,160.0299 26.3013,160.1529 26.4753,160.2339 C26.9153,160.4389 27.4633,160.6939 27.9213,161.1619 C28.5013,161.7539 28.4913,162.7039 27.8993,163.2839 C27.6073,163.5689 27.2293,163.7119 26.8503,163.7119 L26.8503,163.7119 Z" id="Fill-78" fill="#000"/><path d="M23.4022,111.1452 C23.2282,111.1452 23.0512,111.1152 22.8792,111.0502 C22.1032,110.7622 21.7072,109.8982 21.9962,109.1222 C22.2212,108.5182 22.4152,107.8302 22.5902,107.0162 C22.7602,106.2302 22.8602,105.4812 22.8722,104.9072 C22.8852,104.2412 22.8832,103.4012 22.7522,102.8292 C22.7132,102.7542 22.4522,102.5122 22.2972,102.3672 C21.9792,102.0712 21.6202,101.7362 21.3642,101.2762 C21.1012,100.8032 20.9552,100.3162 20.8382,99.9242 C20.7782,99.7252 20.6882,99.4242 20.6322,99.3372 C20.4342,99.1462 20.3402,99.0992 20.3372,99.0972 C20.2912,99.0822 20.2392,99.0772 20.1842,99.0662 C19.9092,99.0132 19.4942,98.9332 18.9182,98.6602 C18.1702,98.3052 17.8502,97.4122 18.2052,96.6632 C18.5602,95.9142 19.4542,95.5942 20.2022,95.9492 C20.4352,96.0592 20.5612,96.0832 20.7522,96.1202 C21.3602,96.2372 21.9322,96.4042 22.7912,97.2602 C23.3332,97.8012 23.5432,98.5002 23.7112,99.0622 C23.7982,99.3542 23.8812,99.6302 23.9862,99.8182 C24.0272,99.8782 24.2172,100.0552 24.3422,100.1722 C24.8132,100.6122 25.4582,101.2132 25.6762,102.1572 C25.8802,103.0442 25.8892,104.0762 25.8712,104.9672 C25.8512,105.9432 25.6712,106.9632 25.5232,107.6492 C25.3172,108.6042 25.0832,109.4282 24.8082,110.1672 C24.5832,110.7722 24.0102,111.1452 23.4022,111.1452" id="Fill-80" fill="#000"/><path d="M61.8427,25.5133 C61.8137,25.5133 61.7847,25.5123 61.7547,25.5113 C61.0487,25.4873 60.4237,25.3313 59.8727,25.1943 C59.6047,25.1273 59.3467,25.0603 59.1007,25.0263 C58.3207,24.9153 57.6817,24.6333 57.1677,24.4073 C56.9257,24.3003 56.6977,24.2003 56.5427,24.1593 C56.0277,24.0213 55.8137,24.0153 55.5877,24.0093 C55.0797,23.9963 54.6237,23.9513 53.7777,23.5203 C53.0397,23.1433 52.7477,22.2393 53.1247,21.5013 C53.5017,20.7633 54.4057,20.4733 55.1427,20.8483 C55.4497,21.0053 55.4667,21.0053 55.6667,21.0103 C55.9817,21.0193 56.4587,21.0323 57.3137,21.2593 C57.6947,21.3613 58.0417,21.5143 58.3787,21.6613 C58.7757,21.8373 59.1517,22.0023 59.5207,22.0553 C59.8637,22.1033 60.2237,22.1903 60.5977,22.2833 C61.0447,22.3953 61.4677,22.4993 61.8587,22.5133 C61.8697,22.4953 62.1307,22.3523 62.3027,22.2573 C62.8037,21.9823 63.4257,21.6383 64.1967,21.5893 C64.9837,21.5393 65.7667,21.4283 66.4967,21.3143 C66.9847,21.2383 67.4487,21.2533 67.8607,21.2673 C68.2397,21.2773 68.6007,21.2913 68.8727,21.2243 C69.5917,21.0483 70.3377,20.8303 71.1537,20.5613 C71.4127,20.4753 71.7227,20.2913 72.0497,20.0973 C72.4067,19.8853 72.8107,19.6463 73.2767,19.4523 C74.0397,19.1363 74.9187,19.4983 75.2367,20.2643 C75.5537,21.0303 75.1907,21.9073 74.4247,22.2243 C74.1567,22.3353 73.8767,22.5013 73.5797,22.6773 C73.1507,22.9323 72.6647,23.2213 72.0967,23.4093 C71.2047,23.7043 70.3837,23.9433 69.5867,24.1383 C68.9157,24.3023 68.2777,24.2823 67.7627,24.2653 C67.4567,24.2553 67.1677,24.2453 66.9587,24.2783 C66.1587,24.4033 65.2937,24.5263 64.3867,24.5833 C64.2717,24.5983 63.9587,24.7713 63.7507,24.8853 C63.2407,25.1653 62.6107,25.5133 61.8427,25.5133" id="Fill-82" fill="#000"/></g></g></g></g><g id="Expression" transform="translate(315.000000, 246.000000) scale(1 1)"><g id="Expression/Smile" stroke="none" stroke-width="1" fill="none" fill-rule="evenodd"><g id="Expression" transform="translate(14.000000, 12.000000)" fill="#000"><path d="M8.5371,3.6102 C8.8431,6.5462 13.2671,6.1902 13.3041,3.3662 C13.3451,0.1732 8.1761,0.1392 8.5371,3.6102" id="Fill-95"/><path d="M3.8824,24.6669 C10.1784,28.8049 17.2924,27.1859 17.6314,27.1049 C18.4374,26.9129 18.9354,26.1039 18.7434,25.2989 C18.5514,24.4919 17.7444,23.9949 16.9394,24.1859 C16.8054,24.2169 9.0204,25.9289 3.5054,20.5259 C2.9134,19.9499 1.9634,19.9569 1.3834,20.5479 C0.8044,21.1409 0.8144,22.0899 1.4064,22.6699 C2.2044,23.4509 3.0364,24.1109 3.8824,24.6669" id="Fill-97"/></g></g></g><g id="Facial Hair" transform="translate(311.300000, 250.950000) scale(1 1)"><g id="Facial Hair/None" stroke="none" stroke-width="1" fill="none" fill-rule="evenodd" fill-opacity="0"/></g><g id="Accesories" transform="translate(311.300000, 250.950000) scale(1 1)"><g id="Accesories/None" stroke="none" stroke-width="1" fill="none" fill-rule="evenodd" fill-opacity="0"/></g></g></g></g></svg>