<svg viewBox="78 39 884.0000000000002 962.0000000000002" xmlns="http://www.w3.org/2000/svg" overflow="visible" xmlns:xlink="http://www.w3.org/1999/xlink" width="884.0000000000002px" height="962.0000000000002px"><g id="Master/Composition/Sticker" stroke="none" stroke-width="1" fill="none" fill-rule="evenodd"><g id="Stickers" fill="#000" transform="scale(1 1)"><g id="Stickers/Hug" stroke="none" stroke-width="1" fill="none" fill-rule="evenodd"><g id="Ink" transform="translate(82.000000, 45.000000)" fill="#000"><path d="M465.3755,77.2074 C409.2965,58.2494 447.8335,7.2164 488.3465,4.9294 C561.0645,-3.1916 640.0645,-0.5096 707.4635,30.1144 C737.1185,46.5144 781.5435,57.5514 794.6645,90.9724 C777.2345,84.1874 761.3865,70.4334 742.8905,64.2074 C699.7835,44.0444 656.1775,26.5584 608.1895,23.6224 C562.7835,19.1654 506.1105,11.3764 465.1475,34.5124 C429.5985,66.2774 503.6155,62.5474 521.3855,61.4784 C536.5875,60.8034 541.1715,60.7094 542.8025,77.2304 C538.2865,81.2124 532.8895,82.5794 526.9175,82.2154 C503.7085,81.3074 482.0485,91.2554 461.5265,100.8514 C431.8525,117.8484 363.2605,178.7024 445.8955,150.4154 C455.8315,148.6864 495.2265,130.3644 499.9235,139.6824 C498.7565,144.5954 506.0825,150.8564 500.1855,153.9354 C477.0555,164.2124 458.4175,179.7514 443.2805,199.7894 C419.8215,222.7614 410.3885,298.6474 461.7115,271.8834 C489.8105,247.5014 512.9445,217.9384 539.7575,191.9624 C543.8055,189.1744 545.8915,194.5124 546.1145,197.8404 C548.9765,206.6714 562.6845,202.9754 562.8825,215.2104 C571.7255,251.9634 577.0315,289.2734 582.0345,326.6924 C598.2435,403.0044 577.9245,403.8614 643.7495,363.4104 C649.9525,358.7584 662.4695,362.4244 660.1165,371.7974 C659.7165,374.5344 659.9935,376.8224 661.3845,379.0434 C671.5195,394.0794 683.8695,407.5354 694.8145,421.9934 C705.9275,433.8844 752.3275,411.3664 752.6855,394.5534 C755.5115,382.9994 754.3765,371.6714 752.9055,359.9704 C752.8675,354.4254 760.6915,356.0844 764.4355,354.7234 C771.3205,354.0134 770.4415,363.8564 771.4265,368.4224 C777.7315,461.1754 642.5405,413.8944 756.0375,464.5204 C790.1005,479.5664 789.9575,461.8404 806.1695,437.2334 C818.2085,415.5604 857.4695,376.5784 870.3675,417.9874 C866.6575,418.5094 865.5425,415.7194 863.9475,414.2204 C850.4355,401.1344 837.0205,421.0634 828.9415,430.7804 C821.0635,442.5264 814.3395,455.0414 806.9695,467.1364 C802.9895,472.5344 807.9965,474.0184 809.1695,478.5664 C784.4985,487.1544 781.3035,537.5294 776.1815,560.7204 C763.2165,647.8084 735.6795,630.3104 830.0845,646.1624 C836.6385,648.7764 850.7905,644.4984 851.8595,653.2174 C850.7335,657.9134 853.0615,666.7694 845.4425,665.5034 C744.0175,657.7324 766.9815,622.7824 740.7415,686.8454 C716.8535,734.0534 668.1825,769.9634 614.7485,773.8874 C553.0495,782.1284 491.1445,781.7414 429.1725,783.2314 C351.4605,783.1474 269.6145,751.8684 194.3815,779.6334 C188.7095,796.9184 328.0395,800.9524 307.2945,823.1924 C277.0235,831.9914 243.3215,824.2124 214.4045,841.6114 C199.1325,849.0924 200.7195,851.8564 217.7445,852.6584 C239.8485,854.2044 261.9725,854.9444 283.6345,860.0414 C316.9845,877.0784 266.7785,880.5994 253.6075,881.7284 C244.3765,882.1774 208.9705,893.7104 226.6315,903.0104 C240.5845,910.0264 256.4085,903.9794 270.1335,910.8414 C318.3965,916.9894 366.7675,926.5724 415.7345,929.2344 C480.7335,932.8284 545.3335,930.6454 610.3875,928.4294 C672.4445,925.1544 773.4995,930.4204 820.3825,885.8804 C832.2645,870.9534 842.0235,854.8044 845.1535,835.6754 C847.2315,827.2734 848.3195,817.9574 856.1245,812.7894 C858.7175,810.5644 862.7485,813.8834 864.8905,810.2954 C864.9285,810.2314 866.2285,810.6724 866.6665,811.1364 C889.5465,830.7624 862.5395,859.9144 852.1215,879.5244 C797.7415,960.4844 614.8565,947.3464 525.7325,950.7264 C469.9025,948.6844 413.7415,950.1004 358.1655,944.3874 C319.0615,944.5664 281.7265,931.1234 243.1925,926.7764 C222.3775,926.6114 189.9925,909.4134 209.8735,886.4354 C213.5365,878.7364 229.9365,878.3234 230.2715,870.8764 C145.1775,865.6114 188.0945,833.6914 238.9755,815.1084 C221.3105,806.3124 204.0375,806.6034 186.8295,797.5514 C147.2995,767.5284 221.5175,752.7254 243.3175,752.3384 C317.8935,748.2824 391.2845,767.6924 465.8365,764.5404 C567.6565,765.2964 696.0385,777.5684 736.0735,658.4844 C754.8775,604.1514 753.6305,544.6594 775.8455,491.3984 C777.0565,488.8314 777.4995,484.9264 773.5765,484.8974 C751.4975,484.9964 731.8505,476.1574 712.2125,467.7214 C681.8935,451.5954 662.7515,419.3024 643.3625,391.9204 C637.1925,375.5444 597.5865,421.0704 588.4285,408.8514 C557.3135,381.1884 552.8605,272.8664 543.2655,228.6404 C543.2225,226.4244 542.1825,222.3774 539.3775,223.9044 C505.0345,245.7014 481.4075,301.5594 434.2185,291.5124 C415.8225,287.7564 398.9645,252.2694 412.9175,238.6254 C402.9575,218.3494 433.1075,187.8724 444.0375,171.3704 C333.0445,186.3634 417.5355,100.5994 465.3755,77.2074" id="Fill-1"/><path d="M202.6678,459.7523 C184.4958,453.7133 175.2038,435.3873 167.3138,419.0133 C159.5308,438.5263 150.2448,461.2693 125.5878,460.3913 C96.4538,461.0853 87.9228,425.1203 80.1898,402.5683 C72.2768,414.5143 74.9298,431.4923 63.3388,439.8923 C39.3448,449.9253 23.6678,422.3153 13.4678,404.8833 C1.6798,370.1043 -2.1492,332.1143 1.1178,295.4823 C-1.7572,202.9413 32.3648,142.7663 118.2778,105.4133 C194.7578,70.9123 277.0258,49.0293 361.3558,60.7003 C379.3648,63.2973 401.9418,61.6023 413.7348,78.0533 C307.3108,70.7303 233.4988,69.9853 133.4088,114.1053 C32.3678,159.1733 18.8778,214.3753 16.8788,317.6173 C13.1858,338.9683 21.6208,359.1043 23.5058,380.1043 C25.1318,399.4173 34.8848,418.8353 50.8058,429.9743 C65.2978,434.8503 68.2018,358.1703 71.6298,345.5803 C73.5418,335.8703 70.1678,324.3323 75.8268,315.7673 C81.1578,309.9123 90.2438,308.7853 92.5278,317.9993 C97.1528,342.8503 97.1058,368.6193 100.2478,393.7593 C101.8008,411.3203 107.5658,429.4033 120.9228,441.6303 C152.7618,459.8093 156.0188,373.7983 156.2758,355.1513 C153.4088,313.9143 179.7828,317.0553 178.7298,355.8993 C181.5748,381.8493 177.2238,410.5573 193.1908,432.9763 C227.8018,474.6003 220.2778,418.0493 220.4338,394.6313 C220.4248,375.3763 220.6998,356.1203 220.5998,336.8653 C219.8218,312.8713 212.6938,282.4223 235.3008,265.9293 C274.5818,236.9583 323.4038,221.3493 372.2298,219.8963 C397.5148,227.7993 361.8748,239.5473 351.3738,237.6693 C329.2928,237.0653 307.1458,244.4343 288.5738,256.0693 C283.8958,261.0893 276.9468,257.0763 271.5148,261.3253 C259.0718,270.7903 237.9388,276.8103 238.0138,295.2863 C240.0858,334.0543 240.4288,372.9113 240.1478,411.7843 C241.4748,434.8973 234.1478,474.2393 202.4748,459.5013 C203.6688,460.4033 204.6938,460.6233 205.9758,459.7253 C204.8338,458.6483 203.8608,459.0043 202.6678,459.7523" id="Fill-4"/><path d="M692.6956,275.4969 C652.3186,284.1939 616.5136,187.5199 669.5536,255.5409 C680.8576,268.0089 711.1296,266.4529 711.4496,246.4359 C711.3436,226.5719 694.3936,223.3599 695.3096,210.1599 C711.5206,189.2699 753.7686,274.5419 692.6956,275.4969" id="Fill-6"/></g></g></g></g></svg>