<svg width="277" height="170" viewBox="0 0 277 170" fill="none" xmlns="http://www.w3.org/2000/svg">
<g clip-path="url(#clip0_9_44)">
<mask id="path-1-inside-1_9_44" fill="white">
<path d="M22.0011 94.0758C22.0568 82.7166 24.3493 71.4796 28.7477 61.0064C33.1461 50.5332 39.5644 41.0289 47.6359 33.0361C55.7075 25.0433 65.2743 18.7186 75.7902 14.4231C86.306 10.1275 97.565 7.94533 108.924 8.00103C120.283 8.05673 131.52 10.3493 141.994 14.7477C152.467 19.1461 161.971 25.5644 169.964 33.6359C177.957 41.7075 184.281 51.2743 188.577 61.7901C192.872 72.306 195.055 83.5649 194.999 94.9241L174.474 94.8235C174.516 86.1597 172.852 77.5724 169.576 69.5518C166.299 61.5312 161.475 54.2345 155.379 48.0782C149.283 41.922 142.034 37.0267 134.046 33.672C126.058 30.3172 117.487 28.5687 108.824 28.5262C100.16 28.4837 91.5724 30.1481 83.5518 33.4244C75.5312 36.7006 68.2345 41.5245 62.0782 47.6207C55.922 53.7169 51.0267 60.966 47.672 68.954C44.3172 76.9421 42.5687 85.5127 42.5262 94.1765L22.0011 94.0758Z"/>
</mask>
<path d="M22.0011 94.0758C22.0568 82.7166 24.3493 71.4796 28.7477 61.0064C33.1461 50.5332 39.5644 41.0289 47.6359 33.0361C55.7075 25.0433 65.2743 18.7186 75.7902 14.4231C86.306 10.1275 97.565 7.94533 108.924 8.00103C120.283 8.05673 131.52 10.3493 141.994 14.7477C152.467 19.1461 161.971 25.5644 169.964 33.6359C177.957 41.7075 184.281 51.2743 188.577 61.7901C192.872 72.306 195.055 83.5649 194.999 94.9241L174.474 94.8235C174.516 86.1597 172.852 77.5724 169.576 69.5518C166.299 61.5312 161.475 54.2345 155.379 48.0782C149.283 41.922 142.034 37.0267 134.046 33.672C126.058 30.3172 117.487 28.5687 108.824 28.5262C100.16 28.4837 91.5724 30.1481 83.5518 33.4244C75.5312 36.7006 68.2345 41.5245 62.0782 47.6207C55.922 53.7169 51.0267 60.966 47.672 68.954C44.3172 76.9421 42.5687 85.5127 42.5262 94.1765L22.0011 94.0758Z" fill="#CACE91" stroke="black" stroke-width="2" mask="url(#path-1-inside-1_9_44)"/>
<mask id="path-2-inside-2_9_44" fill="white">
<path d="M56.2791 93.9063C56.3157 86.4333 57.7157 79.0401 60.399 72.1489C63.0823 65.2577 66.9965 59.0034 71.918 53.7432C76.8395 48.483 82.672 44.3198 89.0824 41.4913C95.4928 38.6629 102.356 37.2246 109.279 37.2585C116.202 37.2925 123.051 38.798 129.433 41.6892C135.816 44.5804 141.607 48.8005 146.477 54.1088C151.346 59.417 155.199 65.7094 157.815 72.6266C160.43 79.5438 161.758 86.9503 161.721 94.4234L149.211 94.362C149.239 88.6622 148.226 83.0132 146.232 77.7373C144.237 72.4615 141.298 67.6623 137.584 63.6136C133.87 59.5649 129.453 56.3462 124.585 54.141C119.717 51.9359 114.493 50.7876 109.213 50.7617C103.932 50.7358 98.6979 51.8328 93.8086 53.9901C88.9193 56.1474 84.4708 59.3227 80.7171 63.3348C76.9634 67.3468 73.978 72.117 71.9314 77.373C69.8848 82.629 68.8171 88.2679 68.7891 93.9677L56.2791 93.9063Z"/>
</mask>
<path d="M56.2791 93.9063C56.3157 86.4333 57.7157 79.0401 60.399 72.1489C63.0823 65.2577 66.9965 59.0034 71.918 53.7432C76.8395 48.483 82.672 44.3198 89.0824 41.4913C95.4928 38.6629 102.356 37.2246 109.279 37.2585C116.202 37.2925 123.051 38.798 129.433 41.6892C135.816 44.5804 141.607 48.8005 146.477 54.1088C151.346 59.417 155.199 65.7094 157.815 72.6266C160.43 79.5438 161.758 86.9503 161.721 94.4234L149.211 94.362C149.239 88.6622 148.226 83.0132 146.232 77.7373C144.237 72.4615 141.298 67.6623 137.584 63.6136C133.87 59.5649 129.453 56.3462 124.585 54.141C119.717 51.9359 114.493 50.7876 109.213 50.7617C103.932 50.7358 98.6979 51.8328 93.8086 53.9901C88.9193 56.1474 84.4708 59.3227 80.7171 63.3348C76.9634 67.3468 73.978 72.117 71.9314 77.373C69.8848 82.629 68.8171 88.2679 68.7891 93.9677L56.2791 93.9063Z" fill="#EDCDD1" stroke="black" stroke-width="2" mask="url(#path-2-inside-2_9_44)"/>
<mask id="path-3-inside-3_9_44" fill="white">
<path d="M260.27 76.0407C260.234 87.4 257.962 98.641 253.582 109.122C249.202 119.603 242.801 129.119 234.743 137.126C226.686 145.133 217.13 151.475 206.622 155.789C196.114 160.103 184.859 162.305 173.5 162.27C162.14 162.234 150.899 159.962 140.418 155.582C129.937 151.202 120.421 144.801 112.414 136.743C104.407 128.686 98.0656 119.13 93.7514 108.622C89.4372 98.1139 87.235 86.8589 87.2706 75.4996L107.796 75.5638C107.769 84.2276 109.448 92.812 112.739 100.827C116.029 108.841 120.866 116.13 126.973 122.275C133.08 128.421 140.338 133.303 148.332 136.643C156.326 139.984 164.9 141.717 173.564 141.744C182.228 141.771 190.812 140.092 198.827 136.801C206.841 133.511 214.13 128.674 220.275 122.567C226.421 116.46 231.303 109.202 234.643 101.208C237.984 93.214 239.717 84.6404 239.744 75.9765L260.27 76.0407Z"/>
</mask>
<path d="M260.27 76.0407C260.234 87.4 257.962 98.641 253.582 109.122C249.202 119.603 242.801 129.119 234.743 137.126C226.686 145.133 217.13 151.475 206.622 155.789C196.114 160.103 184.859 162.305 173.5 162.27C162.14 162.234 150.899 159.962 140.418 155.582C129.937 151.202 120.421 144.801 112.414 136.743C104.407 128.686 98.0656 119.13 93.7514 108.622C89.4372 98.1139 87.235 86.8589 87.2706 75.4996L107.796 75.5638C107.769 84.2276 109.448 92.812 112.739 100.827C116.029 108.841 120.866 116.13 126.973 122.275C133.08 128.421 140.338 133.303 148.332 136.643C156.326 139.984 164.9 141.717 173.564 141.744C182.228 141.771 190.812 140.092 198.827 136.801C206.841 133.511 214.13 128.674 220.275 122.567C226.421 116.46 231.303 109.202 234.643 101.208C237.984 93.214 239.717 84.6404 239.744 75.9765L260.27 76.0407Z" fill="#D8DAFF" stroke="black" stroke-width="2" mask="url(#path-3-inside-3_9_44)"/>
<mask id="path-4-inside-4_9_44" fill="white">
<path d="M225.992 76.2711C225.969 83.7442 224.582 91.1398 221.911 98.0358C219.24 104.932 215.337 111.193 210.424 116.462C205.512 121.731 199.687 125.904 193.282 128.744C186.876 131.584 180.016 133.035 173.093 133.013C166.169 132.991 159.318 131.498 152.931 128.618C146.543 125.738 140.744 121.528 135.865 116.229C130.986 110.929 127.122 104.644 124.494 97.7311C121.867 90.8186 120.526 83.4144 120.549 75.9413L133.06 75.9804C133.042 81.6802 134.064 87.3275 136.068 92.5998C138.073 97.872 141.02 102.666 144.741 106.708C148.462 110.75 152.885 113.961 157.757 116.158C162.629 118.354 167.854 119.493 173.135 119.51C178.416 119.526 183.648 118.42 188.533 116.254C193.419 114.088 197.862 110.905 201.608 106.886C205.355 102.867 208.332 98.0918 210.369 92.8322C212.406 87.5725 213.464 81.9318 213.482 76.232L225.992 76.2711Z"/>
</mask>
<path d="M225.992 76.2711C225.969 83.7442 224.582 91.1398 221.911 98.0358C219.24 104.932 215.337 111.193 210.424 116.462C205.512 121.731 199.687 125.904 193.282 128.744C186.876 131.584 180.016 133.035 173.093 133.013C166.169 132.991 159.318 131.498 152.931 128.618C146.543 125.738 140.744 121.528 135.865 116.229C130.986 110.929 127.122 104.644 124.494 97.7311C121.867 90.8186 120.526 83.4144 120.549 75.9413L133.06 75.9804C133.042 81.6802 134.064 87.3275 136.068 92.5998C138.073 97.872 141.02 102.666 144.741 106.708C148.462 110.75 152.885 113.961 157.757 116.158C162.629 118.354 167.854 119.493 173.135 119.51C178.416 119.526 183.648 118.42 188.533 116.254C193.419 114.088 197.862 110.905 201.608 106.886C205.355 102.867 208.332 98.0918 210.369 92.8322C212.406 87.5725 213.464 81.9318 213.482 76.232L225.992 76.2711Z" fill="#A4D0F4" stroke="black" stroke-width="2" mask="url(#path-4-inside-4_9_44)"/>
</g>
<defs>
<clipPath id="clip0_9_44">
<rect width="277" height="170" fill="white"/>
</clipPath>
</defs>
</svg>
