<svg viewBox="1020 1193.5897435897436 360.00000000000034 209.40170940170904" xmlns="http://www.w3.org/2000/svg" xmlns:xlink="http://www.w3.org/1999/xlink" overflow="visible" width="280.00000000000034px" height="100.40170940170904px"><defs><path d="M282.0866,151.318 C302.6196,139.612 321.8256,123.91 332.1966,102.671 C342.5666,81.43 342.3466,53.901 327.0796,35.857 C313.9286,20.311 292.8006,14.442 272.8146,10.543 C207.2806,-2.239 139.3226,-2.47 73.7046,9.867 C55.3596,13.316 36.4446,18.106 22.2326,30.207 C0.6576,48.576 -5.1734,81.471 4.5596,108.083 C14.2926,134.695 37.3526,154.983 63.3956,166.149 C88.9186,177.092 117.1036,180.083 144.6426,180.132 C174.4236,180.186 203.1066,180.179 232.0736,172.105 C249.5076,167.247 266.3616,160.282 282.0866,151.318" id="masterstickerspebble-8-path-1"/></defs><g id="Master/Stickers/Pebble 8" stroke="none" stroke-width="1" fill="none" fill-rule="evenodd"><g id="Group" transform="translate(1030.000000, 1219.000000)"><mask id="masterstickerspebble-8-mask-2" fill="#fff"><use xlink:href="#masterstickerspebble-8-path-1"/></mask><use id="Mask" fill="#f9a677" xlink:href="#masterstickerspebble-8-path-1"/><g mask="url(#masterstickerspebble-8-mask-2)" fill="#dbe8a8" fill-rule="nonzero"><g transform="translate(-80.000000, -220.000000)"><path d="M363.932335,286.9497 L362.633776,287.341951 C354.531229,289.852548 348.448536,293.000102 327.756089,304.563528 C310.934507,313.963824 300.701048,332.712984 302.251907,350.418629 C303.947592,369.777699 318.936225,383.710314 344.946733,386.497155 C371.199528,389.309954 393.715065,378.802703 406.414142,360.030155 C418.442413,342.249232 419.157215,320.376287 407.4,304.7 C402.929154,298.738872 398.500076,294.24834 393.99872,291.080135 C384.874148,284.657958 375.423214,283.561905 363.932335,286.9497 Z M393.423155,291.897892 C397.831932,295.000936 402.188348,299.417798 406.6,305.3 C418.086522,320.615362 417.386864,342.02488 405.585858,359.469845 C393.093675,377.936552 370.937402,388.276146 345.053267,385.502845 C319.499918,382.764987 304.900291,369.19397 303.248093,350.331371 C301.732033,333.023016 311.761789,314.647069 328.243911,305.436472 L334.288978,302.068423 C351.088592,292.746085 356.387527,290.216652 364.215126,287.908882 C375.428328,284.602952 384.563865,285.662428 393.423155,291.897892 Z" id="Path-23"/><path d="M367.5263,255.585923 C359.325898,257.92194 350.438946,261.546091 339.681032,266.797629 L335.4616,268.878671 C329.676839,271.758525 325.615914,273.943077 305.990178,284.539945 C277.458728,299.945432 260.097613,330.679061 262.727636,359.690936 C265.601252,391.38989 290.993823,414.196157 335.128184,418.765113 C379.703826,423.379752 417.919951,406.147965 439.475622,375.359394 C459.886456,346.206026 461.099001,310.355427 441.164058,284.673321 C433.570111,274.89007 426.052067,267.52518 418.41825,262.333733 C402.97398,251.830715 386.994421,250.040115 367.5263,255.585923 Z M417.855907,263.160637 C425.396538,268.288712 432.840673,275.581199 440.37411,285.286494 C460.02453,310.602051 458.828173,345.974007 438.656436,374.785866 C417.310003,405.275576 379.447576,422.34788 335.231157,417.770429 C291.54943,413.248331 266.551566,390.796569 263.723552,359.600652 C261.130442,330.995967 278.278699,300.639151 306.465291,285.41987 L325.926613,274.942911 C331.913582,271.752343 334.42021,270.497612 339.221493,268.136386 C350.336781,262.66999 359.438418,258.92967 367.800267,256.547662 C386.998446,251.078751 402.67267,252.835137 417.855907,263.160637 Z" id="Path-23"/><path d="M361.822437,308.561962 L360.809866,308.854468 C356.170903,310.241926 352.520729,312.041167 340.604476,318.355515 C330.682201,323.613267 324.641933,334.106992 325.558721,344.031804 C326.562089,354.893903 335.421773,362.703039 350.740277,364.259341 C366.178492,365.827805 379.42977,359.964011 386.908787,349.480428 C394.006784,339.530932 394.429209,327.273923 387.479336,318.487143 C384.848716,315.16123 382.23982,312.653069 379.584984,310.88124 C374.191559,307.281688 368.601092,306.666908 361.822437,308.561962 Z M379.029864,311.71301 C381.591244,313.422467 384.125597,315.858963 386.695015,319.107499 C393.352611,327.52475 392.946975,339.294627 386.094714,348.899666 C378.826133,359.088273 365.925408,364.796944 350.841353,363.264462 C335.973077,361.753902 327.511048,354.295269 326.554481,343.939822 C325.675817,334.427722 331.498146,324.312622 341.072697,319.239127 L345.67131,316.812847 C354.522814,312.172139 357.601254,310.796091 361.88974,309.581847 L362.091676,309.525036 C368.604561,307.704281 373.895082,308.286075 379.029864,311.71301 Z" id="Path-23"/><path d="M360.491161,323.966547 L359.990633,324.079752 C357.421594,324.679015 355.444816,325.443243 348.887084,328.173523 C343.379753,330.466473 340.001271,335.07816 340.519784,339.488563 C341.086813,344.311624 346.022627,347.729909 354.467967,348.404063 C362.939584,349.080315 370.224734,346.54738 374.356623,341.996676 C378.331565,337.618828 378.570697,332.167057 374.658147,328.280389 C373.206062,326.83791 371.763647,325.748344 370.294471,324.977933 C367.31062,323.413253 364.22417,323.14657 360.491161,323.966547 Z M369.830065,325.863556 C371.206097,326.585124 372.569091,327.614697 373.953391,328.989839 C377.463096,332.476327 377.250559,337.321793 373.616269,341.324459 C369.704013,345.633267 362.724435,348.059959 354.54754,347.407234 C346.527364,346.767019 342.014972,343.641974 341.512944,339.371801 C341.052121,335.452099 344.144145,331.231432 349.271447,329.096705 L352.217994,327.876663 C356.772148,326.007081 358.394161,325.451006 360.705702,324.943262 C364.222624,324.17075 367.071258,324.416884 369.830065,325.863556 Z" id="Path-23"/><path d="M293.901942,99.5097097 C253.903558,107.509386 201.624795,143.31285 162.877197,186.666807 C123.480993,230.746475 109.531581,269.691533 132.74534,283.430288 C165.556808,302.849321 210.701289,302.849321 268.159766,283.473788 C327.651723,252.731609 364.059381,223.33827 377.45143,195.214967 C387.988169,173.087816 387.521939,145.078127 375.301449,125.113961 C361.017261,101.778407 333.108437,91.6684107 293.901942,99.5097097 Z M374.448551,125.636039 C386.484988,145.299525 386.945272,172.951959 376.54857,194.785033 C363.273952,222.66173 327.014944,251.935058 267.770424,282.555821 C210.632044,301.817346 165.776525,301.817346 133.25466,282.569712 C110.880552,269.327892 124.617808,230.975146 163.622803,187.333193 C202.238978,144.126284 254.345457,108.440811 294.098058,100.49029 C332.915959,92.7267102 360.397949,102.682086 374.448551,125.636039 Z" id="Path-24"/><path d="M282.942477,122.938106 C253.647821,129.021932 215.38262,156.234038 187.021396,189.18494 C158.158052,222.719221 147.933134,252.361714 165.01065,262.856777 C189.054483,277.63302 222.122114,277.63302 264.190352,262.902696 C307.751687,239.530486 334.403414,217.187566 344.21324,195.796178 C351.935311,178.957364 351.593677,157.645264 342.635041,142.448088 C332.156595,124.672752 311.679354,116.970117 282.942477,122.938106 Z M341.773581,142.955914 C350.558917,157.859107 350.89503,178.82684 343.304262,195.379332 C333.607387,216.52442 307.103356,238.743523 263.788667,261.99023 C222.0493,276.598984 189.281817,276.598984 165.534234,262.004803 C149.264168,252.005962 159.292082,222.934594 187.779314,189.83729 C216.009789,157.038295 254.102524,129.948838 283.145815,123.917214 C311.483881,118.03205 331.525092,125.570669 341.773581,142.955914 Z" id="Path-24"/><path d="M272.028607,149.22019 C252.914185,153.111259 227.971881,170.497836 209.48454,191.551911 C190.623683,213.03136 183.9285,232.056885 195.196058,238.84438 C210.899527,248.304035 232.477309,248.304035 259.90848,238.889006 L261.600168,237.993281 C289.014748,223.376064 305.829618,209.393391 312.10897,195.971557 C317.161557,185.171876 316.938065,171.505696 311.07256,161.752527 C304.209556,150.340714 290.804367,145.398061 272.028607,149.22019 Z M310.215595,162.267901 C315.902155,171.723521 316.119905,185.038549 311.203196,195.547794 C304.911023,208.997033 287.681839,223.154928 259.513373,237.973582 C232.406414,247.271106 211.122794,247.271106 195.71206,237.987792 C185.268952,231.69694 191.759207,213.253751 210.235965,192.211729 C228.592177,171.306988 253.362072,154.040593 272.228083,150.200093 C290.61049,146.458038 303.584502,151.241711 310.215595,162.267901 Z" id="Path-24"/><path d="M260.159801,176.598553 C252.121926,178.585471 241.697328,187.409519 233.971092,198.094179 L233.438983,198.839029 C225.92643,209.48576 223.348765,218.830936 228.088084,222.297719 C234.722425,227.150699 243.81628,227.150699 255.321151,222.355682 C267.234379,214.754223 274.502092,207.502141 277.189895,200.525837 C279.311863,195.018177 279.218131,188.058246 276.750392,183.075478 C273.838264,177.195418 268.113767,174.632376 260.159801,176.598553 Z M275.85427,183.519286 C278.19219,188.239927 278.282014,194.909678 276.256756,200.166321 C273.661493,206.902434 266.532855,214.01574 254.859625,221.472801 C243.724138,226.105724 234.98765,226.105724 228.678482,221.490606 C224.496381,218.431425 227.169793,209.206321 234.781428,198.680145 C242.382109,188.169115 252.637786,179.488053 260.399772,177.569333 C267.903603,175.714427 273.152853,178.064685 275.85427,183.519286 Z" id="Path-24"/><path d="M474.834047,59.5283438 C423.968249,77.4255691 394.674746,128.671116 398.751393,183.162302 C400.692917,209.113995 410.32472,233.038283 426.536165,250.883085 C444.186435,270.311677 468.831532,281.824745 498.972265,283.49923 C528.801755,285.156424 550.913,271.549814 564.038517,245.994059 C575.740446,223.210071 579.560226,191.907016 575.245543,159.808389 C570.979226,128.069576 559.157061,98.6731306 542.408076,79.4682376 C523.818802,58.1532144 500.464083,50.5103683 474.834047,59.5283438 Z M541.654424,80.1255124 C558.26356,99.1700492 570.01258,128.384615 574.254457,159.941611 C578.543784,191.851602 574.748709,222.952194 563.148983,245.537191 C550.198589,270.751977 528.450116,284.135347 499.027735,282.50077 C469.146592,280.840706 444.748216,269.442896 427.276335,250.210665 C411.220699,232.537371 401.674063,208.824628 399.748607,183.087698 C395.704011,129.024935 424.751274,78.2101543 475.165953,60.4716562 C500.385962,51.5979493 523.320513,59.1032949 541.654424,80.1255124 Z" id="Path-25"/><path d="M479.36539,95.7261899 C446.630275,107.748595 427.786116,142.158161 430.408,178.739046 C433.092127,216.188358 457.250796,243.945875 494.916674,246.130079 C514.146057,247.245171 528.407495,238.084703 536.863049,220.900398 C544.390408,205.602472 546.846112,184.596541 544.072568,163.059293 C541.330097,141.763334 533.729661,122.036656 522.95512,109.141109 C510.975271,94.8029842 495.900182,89.6535686 479.36539,95.7261899 Z M522.187726,109.782285 C532.828897,122.518209 540.361019,142.067579 543.080758,163.187017 C545.830937,184.542827 543.397949,205.354443 535.965787,220.4589 C527.680763,237.296636 513.784525,246.222526 494.974565,245.131757 C457.845542,242.978684 434.055748,215.644991 431.405441,178.667556 C428.813536,142.50494 447.423798,108.522471 479.710138,96.6648851 C495.820768,90.7480429 510.463112,95.7496399 522.187726,109.782285 Z" id="Path-25"/><path d="M484.349291,107.308644 C459.602694,117.295443 445.371327,145.850461 447.350893,176.199448 C449.378001,207.277296 467.637091,230.329907 496.128084,232.145364 C510.700145,233.073902 521.505127,225.447639 527.899696,211.167432 C533.582901,198.475825 535.436319,181.05484 533.343057,163.193583 C531.273079,145.530996 525.535922,129.168653 517.398407,118.466623 C508.330474,106.540956 496.891105,102.247238 484.349291,107.308644 Z M516.602387,119.071894 C524.620586,129.617005 530.299219,145.812438 532.349855,163.309982 C534.423612,181.004814 532.58907,198.248374 526.987022,210.758743 C520.752733,224.681017 510.315961,232.047393 496.191675,231.147388 C468.258444,229.367472 450.345887,206.752369 448.348773,176.13436 C446.39513,146.182813 460.418851,118.044434 484.723528,108.235977 C496.808962,103.358749 507.788007,107.479686 516.602387,119.071894 Z" id="Path-25"/><path d="M487.908497,141.173265 C477.42383,145.66567 471.414126,158.468393 472.249188,172.061111 C473.105392,185.997966 480.841975,196.368559 492.937308,197.186854 C504.902731,197.99636 510.790177,184.03706 508.82521,166.23554 C506.887653,148.682327 498.316244,136.713819 487.908497,141.173265 Z M507.831247,166.345255 C509.737605,183.61581 504.117617,196.940958 493.004807,196.189135 C481.480697,195.409485 474.07566,185.483317 473.247306,171.999792 C472.435909,158.792273 478.253916,146.397929 488.302341,142.092443 C497.828026,138.010936 505.956486,149.360941 507.831247,166.345255 Z" id="Path-25"/><path d="M372.613021,227.683381 C368.314457,232.937182 368.553295,237.577462 372.542818,241.123705 C375.751809,243.976141 381.309011,245.933395 386.950248,246.497519 C397.312078,247.533702 404.579123,238.190358 401.478913,227.856326 C398.251342,217.097755 381.583919,216.71895 372.613021,227.683381 Z M400.521087,228.143674 C403.420877,237.809642 396.687922,246.466298 387.049752,245.502481 C381.599966,244.957503 376.235495,243.068129 373.207182,240.376295 C369.627998,237.194798 369.420554,233.164471 373.386979,228.316619 C381.904925,217.905796 397.556438,218.261512 400.521087,228.143674 Z" id="Path-26"/><path d="M369.613021,81.6833811 C359.954271,93.4885204 372.244004,114.5 390,114.5 C398.448533,114.5 405.153037,110.163753 409.307516,103.000859 C412.876161,96.8480225 414.079376,89.1912009 412.478913,83.8563261 C409.21178,72.9658809 378.491019,70.8324947 369.613021,81.6833811 Z M411.521087,84.1436739 C413.037812,89.1994241 411.878907,96.5742748 408.442484,102.499141 C404.45803,109.36889 398.070698,113.5 390,113.5 C373.039015,113.5 361.297563,93.425905 370.386979,82.3166189 C378.71518,72.1377061 407.915338,74.0579222 411.422715,83.8447014 L411.521087,84.1436739 Z" id="Path-26-Copy"/><path d="M85.8215659,336.532923 C44.1187409,352.464339 21.3478096,384.142723 20.250213,421.735408 C19.2303383,456.666116 37.5068756,491.60242 67.7258215,511.418122 C101.920692,533.840988 145.979923,545.398656 180.850552,538.239785 C223.777839,529.426898 250.289065,494.313967 253.499358,431.02533 C256.786129,366.228993 240.108568,330.509143 205.658114,319.025658 C177.35481,309.591224 138.614497,316.364837 85.8215659,336.532923 Z M205.341886,319.974342 C239.291019,331.290719 255.767088,366.579016 252.500642,430.97467 C249.312252,493.831505 223.10291,528.544604 180.649448,537.260215 C146.064973,544.360339 102.264336,532.870506 68.2741785,510.581878 C38.3453235,490.956399 20.2400669,456.347505 21.249787,421.764592 C22.3355282,384.577957 44.8508779,353.255133 86.1784341,337.467077 C138.768551,317.376471 177.324265,310.635135 205.341886,319.974342 Z" id="Path-27"/><path d="M99.1389217,360.144264 C68.2646622,371.943976 51.3998752,395.415919 50.5870264,423.267912 C49.8318487,449.143827 63.3635401,475.021254 85.7381663,489.699423 C111.040586,506.29828 143.64146,514.853841 169.454034,509.552301 C201.246257,503.022626 220.881782,477.005115 223.257573,430.148035 C225.689688,382.180088 213.335975,355.709683 187.805984,347.196042 C166.84782,340.206995 138.188169,345.220185 99.1389217,360.144264 Z M187.489635,348.144685 C212.518322,356.491154 224.670659,382.530066 222.258856,430.097397 C219.904955,476.522747 200.571206,502.140398 169.252847,508.572748 C143.726541,513.815493 111.384351,505.327819 86.2866875,488.863287 C64.2020791,474.375374 50.8415702,448.82531 51.5866008,423.297085 C52.387602,395.851043 68.9969132,372.734665 99.4959232,361.078368 C138.342286,346.231828 166.817262,341.250943 187.489635,348.144685 Z" id="Path-27"/><path d="M107.914867,375.486752 C84.177142,384.602039 71.2052769,402.741609 70.5801287,424.263771 C69.9994348,444.255494 80.4035841,464.246376 97.6081269,475.586444 C117.050313,488.401415 142.100169,495.006537 161.943729,490.911605 C186.397732,485.865259 201.501347,465.757645 203.327102,429.577873 C205.195904,392.545052 195.692366,372.085092 176.041393,365.50086 C159.923389,360.10038 137.906873,363.96982 107.914867,375.486752 Z M175.723693,366.449051 C194.873565,372.865385 204.176996,392.894537 202.328373,429.527473 C200.524364,465.276322 185.721328,484.983772 161.741627,489.932241 C142.185581,493.967841 117.395411,487.431192 98.1584643,474.751502 C81.2431294,463.60206 71.0090784,443.93801 71.5797072,424.292806 C72.193095,403.175519 84.9106542,385.391564 108.273345,376.42029 C138.061691,364.981564 159.89268,361.14473 175.723693,366.449051 Z" id="Path-27"/><path d="M124.152406,404.555935 C113.616971,408.584104 107.845396,416.62016 107.567374,426.150468 C107.309362,434.994839 111.929055,443.833013 119.570062,448.847738 C128.17015,454.491899 139.249239,457.400631 148.048401,455.592656 C158.92609,453.357604 165.647327,444.448115 166.455713,428.4979 C167.282571,412.18324 163.050104,403.11053 154.275033,400.183038 C147.112983,397.793673 137.387444,399.495586 124.152406,404.555935 Z M153.958565,401.131641 C162.232351,403.891897 166.263552,412.533174 165.456995,428.447283 C164.670486,443.965839 158.250921,452.475441 147.847135,454.61312 C139.334348,456.362253 128.514032,453.52146 120.118743,448.011706 C112.767683,443.187271 108.319076,434.676412 108.566948,426.179628 C108.833131,417.055177 114.349333,409.374691 124.509536,405.489989 C137.541622,400.507238 147.082411,398.837656 153.958565,401.131641 Z" id="Path-27"/><path d="M543.893152,304.51155 C481.335811,318.195968 465.5,340.744786 465.5,412 C465.5,436.730904 472.483587,455.347258 485.695529,469.310161 C496.417263,480.641314 510.517058,488.483558 530.02159,495.362174 L531.329956,495.819642 C534.837631,497.035623 538.51791,498.228279 542.922973,499.593224 L556.905099,503.867876 L558.849434,504.476791 C568.153507,507.41492 576.204728,497.056266 581.99422,476.753159 L582.168966,476.134873 C587.541595,456.955836 590.501156,430.370229 590.249978,403.745283 C589.983679,375.517598 586.181993,349.74151 579.153416,331.693554 C571.118792,311.062275 559.226464,301.157388 543.893152,304.51155 Z M578.221584,332.056446 C585.199803,349.975091 588.984768,375.637811 589.250022,403.754717 C589.500366,430.291164 586.551064,456.784616 581.206034,475.865127 L580.863813,477.065628 C575.232858,496.47622 567.584398,506.186524 559.150566,503.523209 L556.118673,502.57872 C552.813593,501.563411 545.657823,499.390828 544.052277,498.895636 L541.604231,498.135204 C537.381631,496.813384 533.815175,495.639683 530.354181,494.419103 C510.985956,487.588558 497.014816,479.817871 486.421899,468.622857 C473.390827,454.851104 466.5,436.482025 466.5,412 C466.5,341.189996 482.037357,319.066151 544.106848,305.48845 C558.85695,302.261865 570.344457,311.829586 578.221584,332.056446 Z" id="Path-29"/><path d="M553.787945,324.431916 C504.705487,335.386385 492.264751,353.460063 492.264751,410.480847 C492.264751,430.279511 497.746645,445.189029 508.11906,456.373256 C516.385461,465.286639 527.206367,471.502602 542.08671,476.937862 L542.9024,477.233568 C545.732248,478.251798 548.649514,479.228669 552.139877,480.339736 L563.976336,484.036419 L565.499699,484.52317 C572.956561,486.92571 579.354493,478.404992 583.916403,461.789866 C588.129651,446.444617 590.450103,425.177489 590.253169,403.879236 C589.787484,353.515821 576.731588,319.311238 553.787945,324.431916 Z M589.253211,403.888482 C589.449343,425.099937 587.138753,446.276678 582.95209,461.5251 L582.676461,462.511111 C578.279352,477.960336 572.322862,485.670915 565.806366,483.571353 L563.687161,482.896736 C561.231959,482.125694 555.27393,480.280307 553.972419,479.870748 L552.444485,479.387256 C548.964521,478.27951 546.058009,477.306248 543.240967,476.292626 C528.07634,470.836125 517.140825,464.630525 508.852276,455.69326 C498.65686,444.699886 493.264751,430.03456 493.264751,410.480847 C493.264751,353.901321 505.412578,336.253177 554.005771,325.407903 C575.95473,320.509224 588.793252,354.144319 589.253211,403.888482 Z" id="Path-29"/><path d="M565.261307,355.235245 C531.790787,361.959766 523.264751,373.109937 523.264751,408.131523 C523.264751,420.316214 527.01725,429.503505 534.113209,436.391155 C539.861889,441.971077 547.408987,445.826379 557.840139,449.205072 L558.863896,449.532535 C560.06888,449.913186 561.318305,450.291366 562.689238,450.692152 L566.497752,451.778023 C568.305698,452.284218 571.222242,453.098766 572.183585,453.373182 L573.219562,453.671162 C578.393134,455.171673 582.807326,449.87965 585.935647,439.623082 C588.809505,430.200798 590.391075,417.152358 590.256859,404.085733 C589.938968,373.137634 581.00662,352.071873 565.261307,355.235245 Z M589.256911,404.096004 C589.390141,417.066574 587.820693,430.015004 584.979148,439.331344 C581.994579,449.116607 577.925536,453.994843 573.498117,452.710742 L570.674981,451.908995 C568.762577,451.372544 566.136915,450.639792 565.44536,450.443894 L564.173488,450.081108 C561.909506,449.430478 560.000305,448.853609 558.148282,448.253732 C547.849767,444.918001 540.427484,441.126458 534.809705,435.673595 C527.911058,428.977465 524.264751,420.050163 524.264751,408.131523 C524.264751,373.57292 532.469078,362.843474 565.45828,356.215653 C580.258448,353.242169 588.944982,373.728211 589.256911,404.096004 Z" id="Path-29"/><path d="M36.7256718,158.581976 C-5.75539697,186.460177 -11.4292033,243.165663 19.5800492,328.576203 L20.6439933,331.479341 L20.9697525,331.499084 C65.172599,334.178045 92.0578652,321.407543 101.474342,293.158114 C108.910161,270.850657 108.052147,226.38994 98.7300802,194.360275 C87.2634871,154.962238 65.8645393,139.459594 36.7256718,158.581976 Z M97.7699198,194.639725 C107.038429,226.485373 107.892493,270.741383 100.525658,292.841886 L100.242993,293.669847 C90.8407135,320.567724 64.9201407,332.879013 22.3389576,330.575982 L21.356,330.519 L21.4690482,330.826813 C-10.4599298,244.352497 -5.14883466,187.258225 37.2743282,159.418024 C65.7090014,140.75777 86.4640571,155.79394 97.7699198,194.639725 Z" id="Path-34"/><path d="M27.523262,185.92087 C-4.33050146,208.054179 -8.5820154,253.041282 14.6454309,320.780504 L15.4668895,323.153273 L15.7978014,323.174508 C48.9472305,325.301708 69.1340586,315.149092 76.200491,292.703155 C81.772664,275.00361 81.13001,239.744152 74.146837,214.339733 C65.5448961,183.046322 49.4395379,170.692538 27.523262,185.92087 Z M73.1826021,214.604782 C80.1176698,239.834196 80.7567998,274.900309 75.2466432,292.402865 L75.0355297,293.057615 C68.0133768,314.328346 48.6643563,324.0587 16.8399532,322.235967 L16.192,322.196 L16.3019373,322.510896 C-7.59026785,253.997638 -3.61726663,208.776298 28.0938777,186.742088 C49.28129,172.0202 64.7354468,183.874473 73.1826021,214.604782 Z" id="Path-34"/><path d="M22.6084742,198.39523 C-4.06104479,215.147422 -7.6209048,249.200067 11.8046821,300.41451 L12.5163112,302.272268 L12.83791,302.290924 C40.5579686,303.898966 57.4526326,296.217744 63.3768661,279.206324 C68.0435967,265.80582 67.5060121,239.142384 61.6630041,219.926347 C54.4584917,196.2327 40.9565309,186.870082 22.6084742,198.39523 Z M60.706256,220.217265 C66.4911454,239.242165 67.0244183,265.691748 62.4324937,278.877446 L62.2567421,279.370179 C56.4105293,295.377621 40.2745213,302.71288 13.7122116,301.337429 L13.218,301.31 L13.3333609,301.611811 C-6.60605489,249.922388 -3.29437581,215.846761 23.1403839,199.242031 C40.8030034,188.147433 53.6672197,197.067823 60.706256,220.217265 Z" id="Path-34"/><path d="M59.5550913,30.7718417 C46.4982581,56.2326663 36.3143488,81.05729 29.003842,105.245884 L28.4692153,107.030798 L28.5404275,107.19696 C38.6312732,130.742266 68.1273479,144.484756 116.959042,148.49832 C151.167517,151.309975 196.481755,134.348579 229.432536,108.644235 C262.907283,82.5311548 272.863207,55.7903339 249.244302,42.563747 C223.755831,28.2902036 181.253987,15.6904169 143.306455,11.3781974 C100.074217,6.46544302 68.8854465,12.577649 59.5550913,30.7718417 Z M143.193545,12.3718026 C181.015963,16.6698046 223.390913,29.2319731 248.755698,43.436253 C271.480718,56.1622642 261.819548,82.1114003 228.817464,107.855765 C196.049545,133.417461 150.971404,150.290484 117.040958,147.50168 L115.591708,147.379206 C68.4389833,143.28426 39.8511278,129.965949 29.7626256,107.493822 L29.531,106.968 L29.4792682,107.142485 C36.8035174,82.5063743 47.125227,57.2015376 60.4449087,31.2281583 C69.5124579,13.5464375 100.3495,7.50316118 143.193545,12.3718026 Z" id="Path-35"/><path d="M64.8080507,20.0746626 C54.064277,44.9057921 45.6782444,69.1176386 39.6502761,92.7102812 L39.1654537,94.6266588 L39.217371,94.7702388 C47.546882,117.805933 71.9228426,131.266641 112.251483,135.195324 C140.525393,137.949675 177.949132,121.346961 205.158306,96.1898264 C232.787555,70.6442977 240.990082,44.5319552 221.495043,31.5924659 C200.448036,17.6228847 165.358738,5.29367897 134.026646,1.07368598 C98.3137451,-3.73634054 72.5179733,2.25540374 64.8080507,20.0746626 Z M133.893166,2.06473739 C165.081947,6.26542838 200.02795,18.5442854 220.942037,32.4256428 C239.687259,44.8674548 231.702922,70.2852006 204.479429,95.4555743 C177.461425,120.435956 140.29873,136.922861 112.34844,134.200036 L111.153674,134.080367 C72.2809812,130.079299 48.7284208,117.074201 40.4077374,95.1055057 L40.21,94.572 L40.1725517,94.7218651 C46.2167995,70.6252352 54.734442,45.8751719 65.7258271,20.4717602 C73.1967651,3.20484519 98.5810186,-2.69131317 133.893166,2.06473739 Z" id="Path-35"/><path d="M71.4590694,28.8189062 C63.5586867,47.1069337 57.3813861,64.9421035 52.9274835,82.3244926 L52.4779454,84.100639 L52.5297103,84.2440216 C58.7103003,101.363512 76.7831606,111.359189 106.654356,114.273696 C127.607631,116.318089 155.319704,104.004631 175.468076,85.3466394 C195.954732,66.3753869 202.049285,46.9433116 187.534079,37.2940215 C171.95072,26.9346542 145.980527,17.7953168 122.789087,14.6668671 C96.5888244,11.1325371 77.5755731,15.459479 71.635077,28.4234152 L71.4590694,28.8189062 Z M122.655401,15.6578909 C145.703357,18.766985 171.530106,27.8558422 186.980472,38.1267997 C200.747126,47.2784736 194.870145,66.0168341 174.788627,84.6129167 C154.831482,103.093826 127.380671,115.291197 106.751464,113.278422 L105.869179,113.189916 C77.1634904,110.230847 59.7880809,100.621832 53.6545396,84.4030069 L53.523,84.047 L53.4850208,84.1957041 C57.9534976,66.3533289 64.2507324,48.0265596 72.3770719,29.215481 C77.8714524,16.4969348 96.5913712,12.1419382 122.655401,15.6578909 Z" id="Path-35"/><path d="M137,162.5 C130.031137,162.5 122.775707,165.528966 118.129232,170.664543 C112.749759,176.610276 111.22946,184.740573 114.528071,194.165175 C117.849719,203.6556 124.580291,206.395179 133.056604,203.090854 C140.204382,200.304432 148.088185,193.26911 153.416025,185.27735 C158.182426,178.127749 158.148889,172.191782 153.978553,168.021447 C150.428217,164.47111 144.030755,162.5 137,162.5 Z M137,163.5 C143.789421,163.5 149.937018,165.394125 153.271447,168.728553 C157.074122,172.531229 157.104689,177.941579 152.583975,184.72265 C147.361999,192.555613 139.630842,199.454718 132.693396,202.159146 C124.726517,205.264878 118.599592,202.771004 115.471929,193.834825 C112.292493,184.750722 113.740802,177.005419 118.870768,171.335457 C123.32199,166.415685 130.306072,163.5 137,163.5 Z" id="Path-36"/><path d="M135.978804,172.960922 C127.51315,172.960922 121.053792,179.820574 124.318477,188.782888 C126.058647,193.560058 129.625229,194.95492 134.055962,193.295339 C137.742333,191.914567 141.790905,188.443228 144.528168,184.498157 C147.020334,180.906332 147.002428,177.861079 144.781702,175.727337 C142.922919,173.94136 139.611073,172.960922 135.978804,172.960922 Z M135.978804,173.960922 C139.376308,173.960922 142.445636,174.869566 144.088859,176.448425 C145.923687,178.211385 145.938388,180.711491 143.706567,183.928094 C141.077558,187.717144 137.183421,191.056068 133.705198,192.358875 C129.771934,193.832123 126.798417,192.669205 125.258079,188.440621 C122.259583,180.209055 128.143107,173.960922 135.978804,173.960922 Z" id="Path-36"/></g></g></g></g></svg>