<svg viewBox="214.25898203592817 205.9749999999999 308.75748502994014 543.0250000000001" xmlns="http://www.w3.org/2000/svg" xmlns:xlink="http://www.w3.org/1999/xlink" overflow="visible" width="308.75748502994014px" height="543.0250000000001px"><defs><polygon id="mastercharacterpride-standing-path-1" points="0.334 0.905 316.026 0.905 316.026 213.5885 0.334 213.5885"/></defs><g id="Master/Character/Pride Standing" stroke="none" stroke-width="1" fill="none" fill-rule="evenodd"><g id="Pride Month Lower Body" transform="translate(16.000000, 442.000000) scale(1 1)"><defs><polygon id="pride-month-lower-bodycross-lines-path-1" points="0.7579 0.5799 140.125 0.5799 140.125 43 0.7579 43"/></defs><g id="Pride Month Lower Body/Cross Lines" stroke="none" stroke-width="1" fill="none" fill-rule="evenodd"><g id="Lower-Body" transform="translate(241.000000, 0.000000)"><path d="M1.1245,25.6561 C1.1245,25.6561 1.7495,97.8171 1.1245,114.1121 C0.5885,128.0901 0.9725,228.8101 1.0925,257.1681 C1.1095,261.2701 4.2415,264.5801 8.0975,264.5801 L131.0605,264.5801 C135.1905,264.5801 138.3195,260.6111 137.6005,256.2841 L99.2795,25.6561 L1.1245,25.6561 Z" id="Fill-1" fill="#7ffc51"/><path d="M59.2525,173.5087 C69.5595,178.9757 80.2335,183.5687 91.1665,187.4347 C89.5445,187.4627 87.9245,187.5037 86.3065,187.5667 C73.7545,188.0547 61.3315,189.5887 49.0635,191.9787 C52.6465,185.9447 56.0315,179.7727 59.2525,173.5087 M42.3575,151.7477 C48.1165,151.4117 53.8795,151.1977 59.6455,151.1397 C58.2765,154.0197 56.8945,156.8827 55.5105,159.7257 C55.4595,159.8317 55.4055,159.9377 55.3545,160.0427 C50.9365,157.4287 46.6065,154.6557 42.3575,151.7477 M78.3955,72.4037 C70.1225,66.1317 62.0535,59.5417 54.3165,52.5707 C63.6165,49.8827 72.8975,47.1157 82.1505,44.2517 C82.8745,53.3487 83.1575,62.4657 82.7655,71.5787 C81.3095,71.8587 79.8525,72.1327 78.3955,72.4037 M41.6905,203.7527 C70.1505,197.2387 99.5265,195.3127 128.2615,200.0797 L126.0575,186.8157 C104.4865,182.1037 83.4345,175.2937 63.6925,164.7317 C65.9145,160.2767 68.1195,155.7707 70.2575,151.2077 C73.8625,151.2947 77.4665,151.4417 81.0715,151.6687 C94.7075,152.5287 108.2315,154.5017 121.2885,158.1107 L119.5205,147.4707 C104.9725,143.7737 89.9295,141.9047 74.7375,141.3057 C81.3665,126.0817 86.9335,110.3087 89.7755,94.0667 C89.8625,93.5697 89.9385,93.0707 90.0205,92.5727 C97.5005,97.7917 105.1255,102.7747 112.8815,107.5147 L110.7535,94.7107 C104.2435,90.6267 97.7825,86.3647 91.4145,81.9127 C91.4755,81.2877 91.5155,80.6617 91.5695,80.0357 C96.9725,78.9437 102.3575,77.7647 107.7345,76.5387 L106.0935,66.6627 C101.4605,67.7217 96.8225,68.7477 92.1705,69.7067 C92.4605,60.2747 92.0915,50.8297 91.2805,41.4027 C94.6445,40.3347 97.9995,39.2387 101.3545,38.1427 L99.7085,28.2337 C96.5625,29.2627 93.4115,30.2787 90.2585,31.2837 C90.0435,29.4047 89.7925,27.5307 89.5515,25.6557 L80.1475,25.6557 C80.5205,28.4787 80.8705,31.3047 81.1855,34.1337 C69.4395,37.7847 57.6475,41.2707 45.8275,44.6427 C39.5505,38.5717 33.5235,32.2457 27.8055,25.6557 L15.5075,25.6557 C21.8085,33.3157 28.5125,40.6207 35.4955,47.5587 C24.1275,50.7337 12.7355,53.8137 1.3285,56.8227 C1.3445,60.1597 1.3595,63.6127 1.3715,67.0997 C15.5535,63.3687 29.7155,59.5567 43.8355,55.5707 C46.3365,57.8877 48.8635,60.1607 51.4135,62.3897 C56.1915,66.5667 61.0555,70.6297 65.9935,74.5867 C44.5855,78.1707 23.0235,80.8027 1.4025,82.7047 C1.4035,86.1587 1.3995,89.5187 1.3905,92.7067 C18.1615,91.2557 34.9035,89.3737 51.6045,86.9537 C59.9905,85.7387 68.3565,84.3777 76.6995,82.8767 C78.2915,84.0747 79.8765,85.2827 81.4825,86.4597 C78.8665,105.5227 72.1405,123.6597 64.3025,141.0887 C52.8395,141.0507 41.3415,141.6637 29.9495,142.6647 C22.1745,136.5837 14.7325,130.0177 7.6625,123.0177 C5.4235,120.8017 3.2255,118.5447 1.0645,116.2507 C0.9965,119.2747 0.9475,123.9877 0.9135,129.9227 C5.8465,134.8297 10.9315,139.5627 16.2025,144.0487 C11.0465,144.6357 5.9295,145.2857 0.8585,145.9757 C0.8535,149.1767 0.8495,152.5257 0.8475,155.9867 C9.6115,154.7917 18.3975,153.7227 27.2025,152.9037 C34.8135,158.6917 42.7285,164.0317 50.9345,168.8637 C46.3505,177.7527 41.4445,186.4557 36.1005,194.8317 C24.2025,197.7487 12.4675,201.4457 0.9155,205.7397 C0.9245,209.3157 0.9345,212.8347 0.9445,216.2697 C4.8655,214.7707 8.8095,213.3387 12.7815,211.9877 C17.6575,210.3287 22.5815,208.7977 27.5395,207.3907 C23.3255,213.1697 18.8575,218.7437 14.0695,224.0417 C9.8985,228.6547 5.5365,233.0487 1.0145,237.2397 C1.0315,242.0947 1.0485,246.4857 1.0645,250.2637 C5.9805,246.0207 10.7445,241.5607 15.3245,236.8577 C25.1615,226.7587 33.8635,215.5957 41.6905,203.7527" id="Fill-3" fill="#FF3800"/><path d="M99.5508,250.8456 C99.4478,250.9516 99.3438,251.0566 99.2408,251.1616 C94.9288,255.6136 90.5488,260.0746 86.1778,264.5796 L99.7878,264.5796 C100.9608,263.3536 102.1318,262.1246 103.3088,260.9036 C105.2518,258.8876 107.2148,256.8936 109.1678,254.8886 C110.9588,255.7466 112.7288,256.6366 114.4488,257.5896 C117.5008,259.2796 120.0078,261.7146 122.1268,264.5796 L131.0608,264.5796 C131.7938,264.5796 132.4938,264.4496 133.1478,264.2186 C131.8698,261.7996 130.4718,259.4926 128.9228,257.3646 C125.7358,252.9856 121.3208,249.8426 116.5058,247.3696 C122.0748,241.7196 127.6848,236.1156 133.3238,230.5436 L131.3838,218.8696 C123.1688,226.9306 115.0158,235.0636 106.9448,243.2876 C105.0078,242.5746 103.0888,241.9076 101.2378,241.2576 C90.1918,237.3746 78.6038,234.9006 66.9668,234.3846 C43.7578,233.3566 22.3388,241.8466 2.4978,254.0196 C2.0238,254.3106 1.5548,254.6116 1.0828,254.9056 C1.0858,255.6996 1.0898,256.4616 1.0928,257.1676 C1.1048,260.1586 2.7758,262.7206 5.1728,263.8936 C20.0478,254.4036 36.2888,246.5016 53.5808,244.7396 C68.6308,243.2036 84.8048,245.4886 99.5508,250.8456" id="Fill-5" fill="#FFED53"/><g id="Group-9" transform="translate(7.000000, 264.000000)"><mask id="pride-month-lower-bodycross-lines-mask-2" fill="#fff"><use xlink:href="#pride-month-lower-bodycross-lines-path-1"/></mask><g id="Clip-8"/><path d="M131.7969,21.3309 L108.8799,0.5799 L57.6949,0.5799 L53.4969,0.5799 L0.7579,0.5799 L0.7579,38.7479 C0.7579,38.7479 1.0429,42.9149 5.3089,42.9149 L20.6689,42.9149 C20.6689,42.9149 22.7409,43.6529 23.5939,40.0359 C24.0739,38.0039 25.0539,33.8839 25.8199,30.6649 C26.1919,29.1049 28.2509,28.8499 28.9819,30.2689 L31.1939,34.5699 C31.1939,34.5699 35.0449,42.9149 41.0399,42.9149 C44.3309,42.9149 69.9259,42.9769 69.9259,42.9769 L69.9569,42.9149 L73.4069,42.9149 C73.4069,42.9149 75.4789,43.6529 76.3329,40.0359 C76.8119,38.0039 77.7919,33.8839 78.5589,30.6649 C78.9299,29.1049 80.9889,28.8499 81.7199,30.2689 L83.9329,34.5699 C83.9329,34.5699 87.1859,42.9149 98.0979,42.9149 C101.3879,42.9149 130.0899,42.9769 130.0899,42.9769 C130.0899,42.9769 139.1269,43.8489 140.0859,34.9239 C140.7919,28.3529 131.7969,21.3309 131.7969,21.3309" id="Fill-7" fill="#000" mask="url(#pride-month-lower-bodycross-lines-mask-2)"/></g><path d="M46.6309,304.829 C45.5929,304.829 44.7509,303.933 44.7509,302.829 C44.7509,302.334 44.7269,302.087 44.7029,301.84 C44.6719,301.513 44.6359,301.141 44.6359,300.442 C44.6359,299.661 44.7109,299.229 44.7719,298.883 C44.8149,298.632 44.8439,298.466 44.8439,298.053 L44.8489,295.666 C44.8489,295.302 44.8199,295.17 44.7669,294.931 C44.6899,294.583 44.5839,294.106 44.5839,293.276 C44.5839,292.44 44.6929,291.962 44.7729,291.611 C44.8279,291.368 44.8559,291.246 44.8559,290.888 C44.8559,290.517 44.8269,290.384 44.7749,290.141 C44.6989,289.795 44.5969,289.322 44.5969,288.497 C44.5969,287.615 44.7579,287.08 44.9229,286.607 C44.9999,286.387 45.0129,286.347 45.0129,286.108 C45.0129,285.359 45.0729,284.945 45.1199,284.612 C45.1569,284.351 45.1849,284.164 45.1849,283.718 C45.1709,283.635 45.1409,283.589 45.1139,283.541 C44.8919,283.142 44.5189,282.473 44.5189,281.327 C44.5189,280.596 44.5699,280.19 44.6119,279.865 C44.6459,279.597 44.6709,279.402 44.6709,278.94 C44.6709,278.439 44.6479,278.188 44.6259,277.937 C44.5939,277.591 44.5629,277.244 44.5629,276.551 C44.5629,275.988 44.5529,275.706 44.5449,275.425 C44.5339,275.108 44.5239,274.792 44.5239,274.159 L44.5269,271.766 C44.5269,271.221 44.5139,270.947 44.4999,270.675 C44.4839,270.35 44.4679,270.024 44.4679,269.374 C44.4679,268.622 44.5279,268.206 44.5759,267.872 C44.6139,267.611 44.6409,267.424 44.6409,266.976 C44.6409,265.839 45.0049,265.173 45.2209,264.774 C45.2479,264.725 45.2769,264.68 45.2999,264.624 C45.2949,264.392 45.2949,264.392 45.1969,264.165 C44.9759,263.649 44.7589,263.064 44.7589,262.089 C44.7589,261.119 44.9699,260.537 45.1869,260.024 C45.2809,259.801 45.2849,259.792 45.2849,259.596 C45.2849,259.117 45.2569,258.916 45.2189,258.637 C45.1729,258.296 45.1139,257.871 45.1139,257.102 C45.1139,256.88 45.1049,256.855 45.0149,256.626 C44.8199,256.125 44.6289,255.557 44.6289,254.614 C44.6289,253.772 44.7459,253.277 44.8779,252.804 C44.9449,252.558 44.9739,252.457 44.9739,252.123 C44.9739,251.875 44.9589,251.833 44.8739,251.601 C44.7319,251.214 44.5169,250.628 44.5169,249.629 C44.5169,248.475 44.8809,247.797 45.0969,247.391 C45.1259,247.339 45.1579,247.288 45.1819,247.227 C45.1809,247.227 45.1849,247.196 45.1849,247.134 C45.1849,246.788 45.1549,246.676 45.0899,246.431 C44.9899,246.055 44.8529,245.54 44.8529,244.639 C44.8529,243.766 44.9889,243.255 45.1399,242.766 C45.2139,242.525 45.2389,242.444 45.2389,242.14 C45.2389,241.803 45.2109,241.701 45.1419,241.454 C45.0109,240.979 44.8929,240.483 44.8929,239.64 C44.8929,239.053 44.8899,238.759 44.8869,238.465 C44.8829,238.16 44.8799,237.854 44.8799,237.243 C44.8799,236.985 44.8619,236.933 44.7879,236.709 C44.6669,236.341 44.4829,235.786 44.4829,234.844 C44.4829,234.04 44.5679,233.597 44.6369,233.241 C44.6859,232.992 44.7149,232.842 44.7149,232.446 C44.7149,231.496 44.9229,230.927 45.1349,230.426 C45.2229,230.219 45.2229,230.219 45.2229,230.049 C45.2229,229.609 45.1949,229.424 45.1559,229.168 C45.1059,228.831 45.0429,228.412 45.0429,227.653 C45.0429,226.871 45.1179,226.439 45.1779,226.092 C45.2219,225.841 45.2509,225.674 45.2509,225.259 C45.2319,225.144 45.2029,225.098 45.1759,225.049 C44.9649,224.653 44.6119,223.991 44.6119,222.864 C44.6119,222.391 44.5879,222.181 44.5569,221.915 C44.5189,221.594 44.4719,221.193 44.4719,220.471 C44.4719,219.543 44.6459,218.995 44.7609,218.632 C44.8339,218.406 44.8529,218.346 44.8529,218.077 C44.8529,217.584 44.8279,217.337 44.8039,217.09 C44.7709,216.761 44.7339,216.387 44.7339,215.683 L44.7309,213.289 C44.7309,212.937 44.7029,212.817 44.6459,212.579 C44.5629,212.225 44.4479,211.74 44.4479,210.893 C44.4479,209.954 44.6309,209.399 44.7519,209.033 C44.8259,208.808 44.8429,208.756 44.8429,208.497 C44.8429,208.012 44.8199,207.797 44.7909,207.525 C44.7549,207.191 44.7139,206.812 44.7139,206.1 C44.7139,205.264 44.8379,204.773 44.9759,204.304 C45.0439,204.072 45.0669,203.995 45.0669,203.7 C45.0669,202.889 45.1609,202.422 45.2299,202.081 C45.2789,201.837 45.3089,201.688 45.3089,201.301 C45.3089,200.946 45.2799,200.825 45.2239,200.584 C45.1419,200.23 45.0289,199.747 45.0289,198.903 C45.0289,198.468 45.0019,198.294 44.9609,198.03 C44.9089,197.691 44.8429,197.269 44.8429,196.507 C44.8429,196.037 44.8179,195.829 44.7859,195.566 C44.7459,195.242 44.6969,194.839 44.6969,194.111 C44.6969,193.636 44.6729,193.425 44.6419,193.159 C44.6049,192.837 44.5579,192.437 44.5579,191.715 C44.5579,190.595 44.9049,189.934 45.1119,189.54 C45.1379,189.491 45.1669,189.444 45.1889,189.388 C45.1879,188.739 45.1829,188.448 45.1779,188.158 C45.1729,187.85 45.1669,187.541 45.1669,186.923 C45.1669,186.695 45.1549,186.661 45.0759,186.442 C44.9029,185.964 44.7349,185.422 44.7349,184.526 C44.7349,183.679 44.8499,183.192 44.9339,182.838 C44.9899,182.599 45.0189,182.479 45.0189,182.128 C45.0189,182.043 45.0119,182.01 45.0119,182.009 C44.9919,181.953 44.9629,181.904 44.9369,181.852 C44.7479,181.466 44.4299,180.817 44.4299,179.726 C44.4299,178.692 44.6969,178.069 44.8569,177.696 C44.9439,177.492 44.9439,177.492 44.9439,177.328 C44.9439,176.907 44.9159,176.738 44.8729,176.483 C44.8139,176.138 44.7419,175.708 44.7419,174.93 C44.7419,174.232 44.7759,173.861 44.8059,173.535 C44.8289,173.284 44.8529,173.034 44.8529,172.533 C44.8529,171.7 44.9749,171.212 45.1099,170.744 C45.1779,170.512 45.2009,170.433 45.2009,170.136 C45.2009,169.42 45.2419,169.04 45.2789,168.705 C45.3089,168.434 45.3329,168.222 45.3329,167.738 C45.3329,167.398 45.3049,167.289 45.2459,167.05 C45.1569,166.69 45.0349,166.199 45.0349,165.34 C45.0349,164.6 45.0889,164.192 45.1319,163.863 C45.1669,163.595 45.1929,163.401 45.1929,162.94 C45.1929,162.701 45.1779,162.661 45.1009,162.439 C44.9339,161.964 44.7719,161.427 44.7719,160.54 C44.7719,159.617 44.9589,159.06 45.1509,158.57 C45.2359,158.353 45.2419,158.34 45.2419,158.141 C45.2419,157.569 45.2339,157.283 45.2259,156.998 C45.2179,156.683 45.2099,156.37 45.2099,155.743 C45.2099,155.579 45.2099,155.579 45.1229,155.376 C44.9619,155.004 44.6939,154.38 44.6939,153.345 C44.6939,152.711 44.7039,152.393 44.7139,152.077 C44.7229,151.794 44.7319,151.512 44.7319,150.945 C44.7319,150.516 44.7039,150.344 44.6619,150.084 C44.6069,149.741 44.5379,149.315 44.5379,148.545 C44.5379,147.768 44.6099,147.34 44.6669,146.995 C44.7099,146.738 44.7379,146.568 44.7379,146.144 C44.7379,145.074 45.0369,144.435 45.2159,144.054 C45.2989,143.875 45.2989,143.875 45.2989,143.745 C45.2869,143.674 45.2569,143.628 45.2299,143.58 C45.0009,143.177 44.6179,142.503 44.6179,141.347 C44.6179,140.576 44.6869,140.15 44.7419,139.808 C44.7839,139.548 44.8119,139.376 44.8119,138.946 C44.8119,137.882 45.1059,137.245 45.2809,136.864 C45.3659,136.681 45.3659,136.681 45.3659,136.545 C45.3659,136.179 45.3369,136.047 45.2829,135.807 C45.2049,135.457 45.0989,134.978 45.0989,134.144 C45.0989,133.999 45.0989,133.999 45.0129,133.808 C44.8439,133.431 44.5599,132.799 44.5599,131.745 C44.5599,130.855 44.7239,130.315 44.8929,129.84 C44.9709,129.62 44.9849,129.58 44.9849,129.345 C44.9849,128.565 45.0579,128.135 45.1169,127.789 C45.1599,127.533 45.1889,127.365 45.1889,126.943 C45.1849,126.924 45.1539,126.878 45.1259,126.832 C44.8919,126.448 44.4569,125.735 44.4569,124.543 C44.4569,123.738 44.5439,123.295 44.6129,122.938 C44.6609,122.688 44.6909,122.538 44.6909,122.142 C44.6909,121.686 44.6639,121.494 44.6289,121.227 C44.5839,120.897 44.5269,120.485 44.5269,119.742 C44.5269,118.903 44.6369,118.423 44.7169,118.071 C44.7729,117.827 44.8009,117.704 44.8009,117.345 C44.8009,116.524 44.8999,116.054 44.9719,115.71 C45.0249,115.463 45.0529,115.327 45.0529,114.949 C45.0529,114.743 45.0459,114.725 44.9629,114.509 C44.7749,114.02 44.5909,113.468 44.5909,112.552 C44.5909,111.618 44.7679,111.067 44.8859,110.703 C44.9589,110.478 44.9779,110.418 44.9779,110.15 C44.9779,109.467 45.0049,109.125 45.0319,108.782 C45.0519,108.524 45.0729,108.267 45.0729,107.75 C45.0729,107.655 45.0649,107.619 45.0649,107.619 C45.0449,107.556 45.0149,107.507 44.9899,107.454 C44.8069,107.071 44.5019,106.429 44.5019,105.352 C44.5019,104.661 44.5309,104.316 44.5609,103.971 C44.5829,103.716 44.6049,103.461 44.6049,102.952 C44.6049,102.28 44.6279,101.944 44.6499,101.608 C44.6679,101.344 44.6849,101.079 44.6849,100.55 C44.6849,99.92 44.6939,99.605 44.7029,99.291 C44.7109,99.006 44.7179,98.72 44.7179,98.149 C44.7179,97.52 44.7269,97.206 44.7349,96.892 C44.7429,96.605 44.7499,96.319 44.7499,95.746 C44.7499,95.124 44.7559,94.813 44.7619,94.503 C44.7679,94.213 44.7749,93.924 44.7749,93.345 C44.7749,92.795 44.7609,92.519 44.7479,92.244 C44.7329,91.918 44.7169,91.593 44.7169,90.941 C44.7169,90.557 44.6889,90.419 44.6369,90.168 C44.5669,89.825 44.4689,89.355 44.4689,88.539 C44.4689,87.612 44.6589,87.055 44.8539,86.562 C44.9389,86.346 44.9439,86.333 44.9439,86.136 C44.9439,85.37 45.0099,84.947 45.0629,84.607 C45.1039,84.343 45.1309,84.168 45.1309,83.73 C45.1309,83.356 45.1019,83.222 45.0489,82.976 C44.9749,82.63 44.8729,82.156 44.8729,81.331 C44.8729,80.403 45.0639,79.845 45.2589,79.352 C45.3329,79.167 45.3469,79.132 45.3489,79.001 C45.3339,78.979 45.3179,78.959 45.3029,78.938 C45.0189,78.54 44.4879,77.8 44.4879,76.523 C44.4879,75.61 44.6689,75.058 44.8529,74.572 C44.9359,74.353 44.9439,74.331 44.9439,74.118 C44.9439,73.525 44.9429,73.228 44.9399,72.933 C44.9369,72.627 44.9349,72.322 44.9349,71.712 C44.9349,71.03 44.9599,70.689 44.9849,70.349 C45.0049,70.087 45.0239,69.825 45.0239,69.302 C45.0239,68.844 44.9979,68.65 44.9609,68.384 C44.9159,68.052 44.8599,67.639 44.8599,66.892 C44.8599,65.787 45.7009,64.892 46.7399,64.892 C47.7779,64.892 48.6199,65.787 48.6199,66.892 C48.6199,67.35 48.6459,67.542 48.6829,67.809 C48.7279,68.142 48.7839,68.555 48.7839,69.302 C48.7839,69.982 48.7589,70.323 48.7339,70.664 C48.7139,70.926 48.6939,71.187 48.6939,71.712 C48.6939,72.305 48.6969,72.6 48.6999,72.896 C48.7019,73.202 48.7049,73.508 48.7049,74.118 C48.7049,75.031 48.5249,75.583 48.3399,76.069 C48.2669,76.261 48.2519,76.302 48.2489,76.452 C48.2639,76.473 48.2789,76.493 48.2949,76.515 C48.5789,76.912 49.1099,77.653 49.1099,78.929 C49.1099,79.856 48.9189,80.415 48.7229,80.907 C48.6379,81.122 48.6329,81.136 48.6329,81.331 C48.6329,81.706 48.6619,81.841 48.7149,82.086 C48.7889,82.432 48.8909,82.905 48.8909,83.73 C48.8909,84.495 48.8249,84.918 48.7719,85.258 C48.7309,85.523 48.7039,85.698 48.7039,86.136 C48.7039,87.061 48.5149,87.62 48.3199,88.112 C48.2349,88.328 48.2299,88.341 48.2299,88.539 C48.2299,88.923 48.2579,89.061 48.3099,89.311 C48.3799,89.654 48.4769,90.124 48.4769,90.941 C48.4769,91.491 48.4899,91.767 48.5029,92.041 C48.5189,92.367 48.5339,92.693 48.5339,93.345 C48.5339,93.967 48.5279,94.277 48.5219,94.589 C48.5159,94.878 48.5099,95.168 48.5099,95.746 C48.5099,96.375 48.5019,96.689 48.4939,97.004 C48.4859,97.29 48.4789,97.577 48.4789,98.149 C48.4789,98.778 48.4699,99.093 48.4609,99.408 C48.4529,99.693 48.4449,99.978 48.4449,100.55 C48.4449,101.221 48.4229,101.557 48.4009,101.892 C48.3829,102.157 48.3649,102.422 48.3649,102.952 C48.3649,103.642 48.3359,103.988 48.3059,104.334 C48.2839,104.588 48.2619,104.843 48.2619,105.352 C48.2619,105.446 48.2709,105.483 48.2709,105.483 C48.2899,105.546 48.3199,105.596 48.3449,105.647 C48.5269,106.031 48.8329,106.673 48.8329,107.75 C48.8329,108.434 48.8059,108.776 48.7779,109.118 C48.7579,109.376 48.7379,109.635 48.7379,110.15 C48.7379,111.084 48.5609,111.635 48.4429,111.999 C48.3709,112.224 48.3509,112.284 48.3509,112.552 C48.3509,112.757 48.3579,112.774 48.4419,112.992 C48.6299,113.479 48.8129,114.032 48.8129,114.949 C48.8129,115.768 48.7139,116.239 48.6419,116.584 C48.5889,116.831 48.5609,116.967 48.5609,117.345 C48.5609,118.183 48.4509,118.664 48.3709,119.015 C48.3159,119.259 48.2869,119.382 48.2869,119.742 C48.2869,120.198 48.3139,120.391 48.3489,120.656 C48.3939,120.987 48.4499,121.398 48.4499,122.142 C48.4499,122.947 48.3639,123.392 48.2949,123.748 C48.2469,123.997 48.2169,124.147 48.2169,124.543 C48.2209,124.563 48.2519,124.608 48.2799,124.655 C48.5139,125.038 48.9489,125.752 48.9489,126.943 C48.9489,127.723 48.8759,128.153 48.8169,128.5 C48.7739,128.755 48.7449,128.924 48.7449,129.345 C48.7449,130.235 48.5799,130.774 48.4109,131.251 C48.3339,131.471 48.3189,131.51 48.3189,131.745 C48.3189,131.892 48.3189,131.892 48.4049,132.082 C48.5749,132.46 48.8589,133.091 48.8589,134.144 C48.8589,134.511 48.8879,134.643 48.9419,134.884 C49.0199,135.232 49.1269,135.711 49.1269,136.545 C49.1269,137.61 48.8319,138.247 48.6559,138.628 C48.5719,138.81 48.5719,138.81 48.5719,138.946 C48.5719,139.717 48.5029,140.142 48.4479,140.484 C48.4059,140.745 48.3789,140.917 48.3789,141.347 C48.3909,141.418 48.4209,141.464 48.4479,141.512 C48.6769,141.914 49.0599,142.588 49.0599,143.745 C49.0599,144.815 48.7599,145.455 48.5819,145.837 C48.4979,146.015 48.4979,146.015 48.4979,146.144 C48.4979,146.92 48.4259,147.35 48.3689,147.693 C48.3259,147.951 48.2979,148.12 48.2979,148.545 C48.2979,148.974 48.3259,149.145 48.3679,149.405 C48.4229,149.748 48.4919,150.175 48.4919,150.945 C48.4919,151.579 48.4819,151.895 48.4719,152.212 C48.4639,152.495 48.4539,152.778 48.4539,153.345 C48.4539,153.508 48.4539,153.508 48.5419,153.711 C48.7019,154.084 48.9699,154.707 48.9699,155.743 C48.9699,156.314 48.9769,156.6 48.9849,156.886 C48.9929,157.199 49.0019,157.513 49.0019,158.141 C49.0019,159.063 48.8139,159.619 48.6219,160.109 C48.5369,160.327 48.5319,160.34 48.5319,160.54 C48.5319,160.779 48.5459,160.819 48.6239,161.041 C48.7899,161.516 48.9529,162.054 48.9529,162.94 C48.9529,163.679 48.8989,164.088 48.8559,164.416 C48.8199,164.684 48.7949,164.879 48.7949,165.34 C48.7949,165.681 48.8219,165.79 48.8809,166.029 C48.9699,166.388 49.0919,166.88 49.0919,167.738 C49.0919,168.454 49.0509,168.834 49.0139,169.17 C48.9839,169.439 48.9609,169.653 48.9609,170.136 C48.9609,170.968 48.8389,171.457 48.7029,171.925 C48.6359,172.157 48.6129,172.235 48.6129,172.533 C48.6129,173.23 48.5779,173.6 48.5479,173.928 C48.5249,174.178 48.5019,174.429 48.5019,174.93 C48.5019,175.35 48.5299,175.519 48.5729,175.774 C48.6319,176.12 48.7049,176.55 48.7049,177.328 C48.7049,178.363 48.4369,178.986 48.2769,179.358 C48.1899,179.562 48.1899,179.562 48.1899,179.726 C48.1899,179.812 48.1959,179.846 48.1959,179.846 C48.2159,179.901 48.2459,179.951 48.2709,180.002 C48.4609,180.39 48.7779,181.037 48.7779,182.128 C48.7779,182.975 48.6629,183.461 48.5789,183.815 C48.5229,184.055 48.4939,184.175 48.4939,184.526 C48.4939,184.755 48.5069,184.788 48.5859,185.008 C48.7589,185.486 48.9269,186.028 48.9269,186.923 C48.9269,187.504 48.9319,187.794 48.9379,188.085 C48.9429,188.393 48.9479,188.702 48.9479,189.319 C48.9479,190.44 48.6009,191.1 48.3939,191.494 C48.3669,191.543 48.3389,191.591 48.3169,191.647 C48.3179,192.19 48.3419,192.4 48.3729,192.667 C48.4099,192.988 48.4569,193.389 48.4569,194.111 C48.4569,194.581 48.4829,194.789 48.5149,195.052 C48.5539,195.376 48.6029,195.778 48.6029,196.507 C48.6029,196.941 48.6309,197.116 48.6709,197.379 C48.7229,197.719 48.7889,198.141 48.7889,198.903 C48.7889,199.259 48.8179,199.38 48.8739,199.621 C48.9559,199.974 49.0689,200.457 49.0689,201.301 C49.0689,202.113 48.9749,202.58 48.9059,202.92 C48.8569,203.165 48.8269,203.312 48.8269,203.7 C48.8269,204.535 48.7029,205.026 48.5649,205.496 C48.4979,205.726 48.4749,205.805 48.4749,206.1 C48.4749,206.585 48.4979,206.8 48.5269,207.072 C48.5629,207.406 48.6029,207.784 48.6029,208.497 C48.6029,209.437 48.4209,209.991 48.2989,210.357 C48.2259,210.582 48.2079,210.635 48.2079,210.893 C48.2079,211.244 48.2359,211.364 48.2929,211.603 C48.3769,211.957 48.4909,212.442 48.4909,213.289 L48.4939,215.683 C48.4939,216.177 48.5179,216.423 48.5429,216.67 C48.5759,217 48.6129,217.373 48.6129,218.077 C48.6129,219.005 48.4389,219.553 48.3229,219.915 C48.2509,220.141 48.2319,220.201 48.2319,220.471 C48.2319,220.944 48.2559,221.154 48.2869,221.42 C48.3249,221.741 48.3719,222.141 48.3719,222.864 C48.3919,222.979 48.4209,223.026 48.4469,223.075 C48.6579,223.471 49.0109,224.133 49.0109,225.259 C49.0109,226.041 48.9359,226.474 48.8759,226.82 C48.8309,227.072 48.8019,227.238 48.8019,227.653 C48.8019,228.093 48.8309,228.278 48.8689,228.535 C48.9199,228.872 48.9829,229.291 48.9829,230.049 C48.9829,230.998 48.7759,231.567 48.5629,232.069 C48.4749,232.276 48.4749,232.276 48.4749,232.446 C48.4749,233.25 48.3889,233.693 48.3199,234.05 C48.2719,234.299 48.2419,234.449 48.2419,234.844 C48.2419,235.101 48.2599,235.155 48.3339,235.379 C48.4559,235.746 48.6399,236.301 48.6399,237.243 C48.6399,237.83 48.6429,238.124 48.6469,238.418 C48.6499,238.724 48.6529,239.029 48.6529,239.64 C48.6529,239.976 48.6819,240.079 48.7499,240.325 C48.8809,240.801 48.9989,241.297 48.9989,242.14 C48.9989,243.012 48.8629,243.523 48.7129,244.013 C48.6379,244.253 48.6129,244.334 48.6129,244.639 C48.6129,244.985 48.6429,245.097 48.7079,245.342 C48.8079,245.718 48.9449,246.232 48.9449,247.134 C48.9449,248.288 48.5819,248.967 48.3639,249.372 C48.3359,249.425 48.3029,249.475 48.2799,249.536 C48.2809,249.536 48.2769,249.566 48.2769,249.629 C48.2769,249.876 48.2919,249.918 48.3769,250.149 C48.5189,250.537 48.7339,251.123 48.7339,252.123 C48.7339,252.965 48.6159,253.46 48.4849,253.934 C48.4169,254.179 48.3879,254.28 48.3879,254.614 C48.3879,254.838 48.3979,254.861 48.4869,255.091 C48.6829,255.592 48.8749,256.16 48.8749,257.102 C48.8749,257.581 48.9019,257.783 48.9399,258.061 C48.9869,258.403 49.0449,258.828 49.0449,259.596 C49.0449,260.565 48.8339,261.147 48.6179,261.66 C48.5239,261.885 48.5199,261.893 48.5199,262.089 C48.5199,262.276 48.5199,262.276 48.6169,262.503 C48.8379,263.018 49.0539,263.603 49.0539,264.58 C49.0539,265.717 48.6909,266.384 48.4739,266.781 C48.4469,266.83 48.4179,266.877 48.3949,266.932 C48.4009,267.728 48.3409,268.143 48.2929,268.477 C48.2559,268.738 48.2279,268.927 48.2279,269.374 C48.2279,269.92 48.2409,270.192 48.2549,270.466 C48.2709,270.791 48.2869,271.116 48.2869,271.766 L48.2839,274.159 C48.2839,274.723 48.2929,275.004 48.3019,275.286 C48.3129,275.602 48.3229,275.919 48.3229,276.551 C48.3229,277.053 48.3459,277.303 48.3679,277.554 C48.3999,277.9 48.4309,278.247 48.4309,278.94 C48.4309,279.672 48.3799,280.077 48.3379,280.402 C48.3039,280.671 48.2789,280.865 48.2789,281.327 C48.2939,281.409 48.3229,281.455 48.3489,281.503 C48.5719,281.903 48.9449,282.572 48.9449,283.718 C48.9449,284.467 48.8849,284.882 48.8379,285.215 C48.7999,285.475 48.7739,285.662 48.7739,286.108 C48.7739,286.99 48.6129,287.525 48.4479,287.998 C48.3709,288.219 48.3569,288.259 48.3569,288.497 C48.3569,288.868 48.3859,289.002 48.4389,289.244 C48.5129,289.59 48.6159,290.063 48.6159,290.888 C48.6159,291.724 48.5059,292.203 48.4269,292.553 C48.3709,292.796 48.3439,292.918 48.3439,293.276 C48.3439,293.641 48.3729,293.772 48.4259,294.011 C48.5039,294.359 48.6089,294.835 48.6089,295.666 L48.6039,298.053 C48.6039,298.834 48.5289,299.266 48.4679,299.612 C48.4249,299.863 48.3959,300.028 48.3959,300.442 C48.3959,300.936 48.4199,301.183 48.4429,301.432 C48.4749,301.759 48.5109,302.13 48.5109,302.829 C48.5109,303.933 47.6689,304.829 46.6309,304.829" id="Fill-10" fill="#000"/><polygon id="Fill-12" fill="#000" points="7.7583 264.5799 7.7583 271.5699 48.3353 269.0759 48.3353 264.5799"/><polygon id="Fill-14" fill="#000" points="48.3355 264.5799 48.3355 271.5699 118.5755 267.0199 115.8795 264.5799"/><path d="M99.0767,22.3466 L99.0717,22.3466 C97.5457,9.8696 87.5247,0.2326 75.3807,0.2326 L25.0237,0.2326 C11.8247,0.2326 1.1247,11.6156 1.1247,25.6566 L1.1247,34.9666 L100.5027,33.0166 L99.0767,22.3466 Z" id="Fill-16" fill="#7ffc51"/></g></g></g><g id="Pride Month Upper Body" transform="translate(2.500000, 0.000000) scale(1 1)"><g id="Pride Month Upper Body/Waving Hand" stroke="none" stroke-width="1" fill="none" fill-rule="evenodd"><g id="Group-691" transform="translate(220.500000, 222.500000)"><g id="Group-285" transform="translate(0.000000, 0.095000)"><path d="M131.8575,79.9957 L177.7735,94.3937 C177.7735,94.3937 196.6615,101.1827 203.1265,93.7957 C218.4975,76.2267 230.3755,55.8647 230.3755,55.8647 C230.3755,55.8647 227.1445,47.6377 227.0565,38.1227 C226.9755,29.3327 228.9785,16.2387 235.7655,16.8377 C241.9695,17.3847 240.3575,33.4067 240.3575,33.4067 C240.3575,33.4067 253.6325,-3.4253 264.8615,0.5427 C264.8615,0.5427 269.2035,3.1627 265.2355,12.5197 C265.2355,12.5197 269.6115,3.5827 275.7915,5.6337 C280.9825,7.3547 276.0905,17.5357 276.0905,17.5357 C276.0905,17.5357 281.2605,11.0977 286.2725,12.8947 C291.699528,14.8417 283.5775,32.9577 283.5775,32.9577 C283.5775,32.9577 287.3955,28.3157 290.6145,30.5617 C293.8335,32.8077 290.0835,47.6447 276.7645,59.9077 C268.5845,67.4387 264.2965,68.8727 259.4715,77.8747 C255.0045,86.2087 243.6505,107.5697 222.2905,127.9327 C203.6525,145.6987 174.0035,132.6057 144.7395,125.3637 L131.8575,79.9957 Z" id="Fill-239" fill="#5e0606"/><path d="M131.8575,80.0319 C131.8575,80.0319 145.0855,80.6589 152.7805,81.0019 C162.6375,81.4399 174.0635,80.7519 171.1915,92.3299 C170.3775,95.6139 160.1795,132.8779 160.1795,132.8779 C160.1795,132.8779 159.1815,137.0349 155.3575,136.0369 C151.5335,135.0399 146.8775,132.9299 146.8775,132.9299 L131.8575,80.0319 Z" id="Fill-241" fill="#FF6CD9"/><path d="M131.8575,80.0319 L174.6055,230.5859 C176.6265,237.7029 171.2805,244.7779 163.8815,244.7779 L15.2535,244.7779 C7.8635,244.7779 2.6105,237.5859 4.8595,230.5459 L52.9345,80.0319 L131.8575,80.0319 Z" id="Fill-243" fill="#FF6CD9"/><path d="M4.1016,157.6158 L23.5756,115.8428 C23.5756,115.8428 31.3066,99.2458 44.9216,100.6018 C67.2516,102.8258 55.7826,128.3388 55.7826,128.3388 L41.7496,163.0588 C41.7496,163.0588 36.0466,176.5048 43.4016,186.2508 C49.1006,193.8018 66.6436,218.2778 66.6436,218.2778 C66.6436,218.2778 79.6216,235.1348 73.0096,248.5528 C66.9166,260.9188 47.2636,274.6738 31.2526,262.9698 C11.8426,248.7818 21.7036,228.7978 32.1896,226.7378 L9.6256,199.6798 C9.6256,199.6798 -6.9224,180.9298 4.1016,157.6158" id="Fill-245" fill="#5e0606"/><path d="M78.2051,86.8512 C75.3451,92.7332 84.2761,98.1732 87.5641,91.6192 C91.2841,84.2032 81.4131,80.2532 78.2051,86.8512" id="Fill-247" fill="#65FF6E"/><path d="M89.8438,96.5778 C86.9848,102.4608 95.9158,107.9008 99.2028,101.3458 C102.9228,93.9298 93.0518,89.9798 89.8438,96.5778" id="Fill-249" fill="#FFED53"/><path d="M105.5679,98.3239 C102.7079,104.2059 111.6389,109.6459 114.9269,103.0919 C118.6469,95.6759 108.7759,91.7259 105.5679,98.3239" id="Fill-251" fill="#FF1C00"/><path d="M119.3804,92.7692 C116.5204,98.6512 125.4514,104.0912 128.7394,97.5372 C132.4594,90.1212 122.5884,86.1712 119.3804,92.7692" id="Fill-253" fill="#7ffc51"/><path d="M129.9966,86.3707 C132.2916,92.4947 142.3876,89.7667 139.8986,82.8687 C137.0846,75.0637 127.4226,79.5007 129.9966,86.3707" id="Fill-255" fill="#FFA648"/><path d="M253.955097,35.6139 C253.7581,35.6139 253.5581,35.5749 253.3651,35.4919 C252.6031,35.1659 252.2501,34.2839 252.5771,33.5219 C254.9751,27.9269 263.5601,12.4489 263.9241,11.7929 C264.3261,11.0689 265.2401,10.8059 265.9641,11.2089 C266.6881,11.6109 266.9491,12.5239 266.5471,13.2489 C266.4591,13.4079 257.6721,29.2489 255.3341,34.7039 C255.0901,35.2729 254.5371,35.6139 253.955097,35.6139" id="Fill-257" fill="#000"/><path d="M264.2632,41.5699 C264.0572,41.5699 263.8472,41.5269 263.6472,41.4359 C262.8922,41.0959 262.5562,40.2079 262.8972,39.4529 C265.1902,34.3689 274.3842,17.5309 274.7742,16.8169 C275.1712,16.0899 276.0832,15.8239 276.8102,16.2189 C277.5372,16.6169 277.8042,17.5279 277.4072,18.2559 C277.3122,18.4289 267.8782,35.7059 265.6312,40.6859 C265.3812,41.2409 264.8352,41.5699 264.2632,41.5699" id="Fill-259" fill="#000"/><path d="M274.2393,47.5846 C273.9643,47.5846 273.6853,47.5086 273.4363,47.3506 C272.7373,46.9056 272.5303,45.9796 272.9743,45.2796 C274.8303,42.3596 282.0603,32.4896 282.3663,32.0706 C282.8573,31.4026 283.7953,31.2596 284.4633,31.7476 C285.1313,32.2366 285.2763,33.1756 284.7863,33.8446 C284.7123,33.9456 277.3093,44.0526 275.5073,46.8896 C275.2203,47.3386 274.7353,47.5846 274.2393,47.5846" id="Fill-261" fill="#000"/><path d="M250.2398,56.8668 C250.1158,56.8668 249.9898,56.8508 249.8638,56.8178 C249.0618,56.6108 248.5788,55.7928 248.7868,54.9908 C251.5928,44.1288 239.5628,34.6888 239.4418,34.5948 C239.0008,34.2548 238.7838,33.6978 238.8798,33.1488 C239.3528,30.4198 240.0688,22.6538 237.7168,19.5468 C237.1568,18.8068 236.4878,18.4208 235.6108,18.3298 C230.5948,17.7888 229.5818,26.9808 229.5718,27.0728 C229.4868,27.8958 228.7508,28.4938 227.9258,28.4098 C227.1018,28.3248 226.5028,27.5898 226.5878,26.7658 C226.6158,26.4828 227.3398,19.8018 231.0378,16.7928 C232.4508,15.6428 234.0938,15.1578 235.9198,15.3458 C237.6338,15.5228 239.0438,16.3278 240.1108,17.7388 C243.2008,21.8248 242.3718,29.9788 241.9708,32.7898 C244.7628,35.1658 254.5978,44.4898 251.6908,55.7408 C251.5168,56.4178 250.9068,56.8668 250.2398,56.8668" id="Fill-263" fill="#000"/><path d="M33.6153,243.4987 C33.3323,243.4987 33.0463,243.4187 32.7913,243.2517 C32.0993,242.7957 31.9083,241.8647 32.3643,241.1737 C33.7443,239.0777 36.1143,236.5907 37.4653,235.2357 L31.0483,227.7107 C30.5103,227.0807 30.5853,226.1347 31.2163,225.5967 C31.8453,225.0587 32.7933,225.1347 33.3303,225.7647 L40.6563,234.3537 C41.1743,234.9617 41.1263,235.8677 40.5473,236.4167 C40.5083,236.4527 36.6463,240.1247 34.8693,242.8237 C34.5813,243.2617 34.1033,243.4987 33.6153,243.4987" id="Fill-265" fill="#000"/><path d="M52.9341,80.0319 C52.9341,80.0319 34.3121,78.5079 26.6641,94.6049 C20.6071,107.3519 10.8501,112.9429 6.4291,121.0029 C4.5231,124.4769 5.8481,128.8389 9.3591,130.6779 L46.8511,150.3219 C50.2471,152.1009 53.8591,150.4569 56.3191,147.5149 C61.7471,141.0249 65.2621,127.8519 67.7331,121.4049 C73.9341,105.2209 75.1731,81.0429 52.9341,80.0319" id="Fill-267" fill="#FF6CD9"/><path d="M53.5513,151.4235 C53.3133,151.4235 53.0723,151.3665 52.8473,151.2475 C52.1163,150.8585 51.8393,149.9495 52.2283,149.2185 C52.3983,148.9005 69.2173,117.3025 72.5663,109.8465 C72.9053,109.0905 73.7923,108.7525 74.5493,109.0935 C75.3043,109.4325 75.6413,110.3195 75.3023,111.0755 C71.9123,118.6225 55.5713,149.3245 54.8773,150.6285 C54.6073,151.1345 54.0883,151.4235 53.5513,151.4235" id="Fill-269" fill="#000"/><path d="M146.8931,134.4264 C146.2391,134.4264 145.6381,133.9944 145.4511,133.3344 C145.2231,132.5294 145.2511,132.0264 145.2721,131.6584 C145.2871,131.4074 145.2931,131.2924 145.2021,130.9724 C145.1221,130.6924 145.0701,130.6244 144.9141,130.4264 C144.6141,130.0414 144.3261,129.6324 144.1041,128.8514 C143.9801,128.4134 143.8951,128.2394 143.7791,127.9954 C143.6391,127.7054 143.4651,127.3444 143.2701,126.6574 C142.9901,125.6714 143.1981,124.9904 143.3221,124.5834 C143.3961,124.3424 143.3961,124.3424 143.3571,124.2054 C143.3211,124.1324 143.2271,124.0664 143.1601,124.0174 C142.7741,123.7394 142.1281,123.2774 141.8251,122.2114 C141.5851,121.3644 141.6481,120.8104 141.6901,120.4434 C141.7191,120.1954 141.7281,120.1114 141.6501,119.8344 C141.4411,119.1004 141.4261,118.6664 141.4131,118.3194 C141.4041,118.0674 141.3981,117.9014 141.2891,117.5154 C141.2501,117.3794 141.2501,117.3794 141.0601,117.2124 C140.7411,116.9324 140.2061,116.4624 139.9261,115.4754 C139.6471,114.4934 139.8501,113.8164 139.9711,113.4114 C140.0431,113.1674 140.0431,113.1674 140.0031,113.0264 C139.9501,112.8374 139.9321,112.8194 139.7531,112.6394 C139.4581,112.3414 139.0121,111.8914 138.7471,110.9584 C138.5211,110.1604 138.9831,109.3314 139.7811,109.1064 C140.5781,108.8814 141.4071,109.3424 141.6331,110.1394 C141.6861,110.3284 141.7051,110.3474 141.8831,110.5274 C142.1791,110.8244 142.6241,111.2744 142.8901,112.2064 C143.1681,113.1904 142.9661,113.8664 142.8451,114.2714 C142.7721,114.5154 142.7721,114.5154 142.8121,114.6554 C142.8511,114.7914 142.8511,114.7914 143.0401,114.9584 C143.3601,115.2394 143.8941,115.7084 144.1751,116.6964 C144.3841,117.4314 144.3991,117.8644 144.4121,118.2124 C144.4201,118.4634 144.4261,118.6294 144.5361,119.0154 C144.7761,119.8624 144.7131,120.4164 144.6711,120.7834 C144.6431,121.0324 144.6331,121.1154 144.7111,121.3914 C144.7471,121.4634 144.8401,121.5304 144.9091,121.5794 C145.2941,121.8564 145.9401,122.3204 146.2431,123.3864 C146.5231,124.3714 146.3151,125.0534 146.1911,125.4594 C146.1171,125.7014 146.1171,125.7014 146.1561,125.8384 C146.2811,126.2774 146.3651,126.4514 146.4811,126.6944 C146.6221,126.9844 146.7951,127.3454 146.9901,128.0314 C147.0691,128.3114 147.1261,128.3844 147.2781,128.5774 C147.5781,128.9624 147.8671,129.3714 148.0881,130.1544 C148.3171,130.9594 148.2881,131.4624 148.2671,131.8294 C148.2531,132.0814 148.2471,132.1964 148.3371,132.5164 C148.5631,133.3134 148.1001,134.1434 147.3031,134.3684 C147.1661,134.4074 147.0291,134.4264 146.8931,134.4264" id="Fill-271" fill="#000"/><polygon id="Fill-273" fill="#000" points="11.6617 141.3981 45.5937 153.6271 46.8517 150.3221 15.2257 133.7521"/><polygon id="Fill-275" fill="#000" points="169.191 132.0592 174.534 93.3782 171.191 92.3302 161.037 129.7762"/><path d="M198.253,131.7252 C197.442,131.7252 196.934,131.6962 196.831,131.6892 C196.004,131.6372 195.377,130.9252 195.428,130.0992 C195.48,129.2742 196.192,128.6462 197.018,128.6952 C197.147,128.7042 210.028,129.4062 216.435,122.3892 C216.993,121.7772 217.942,121.7332 218.554,122.2922 C219.166,122.8512 219.209,123.7992 218.65,124.4122 C212.561,131.0812 202.07,131.7252 198.253,131.7252" id="Fill-277" fill="#000"/><path d="M7.4869,185.4674 C6.8539,185.4674 6.2649,185.0634 6.0599,184.4274 C2.2579,172.6334 6.7259,163.3634 6.9189,162.9754 C7.2849,162.2324 8.1849,161.9274 8.9269,162.2944 C9.6699,162.6604 9.9749,163.5594 9.6089,164.3014 C9.5399,164.4454 5.5129,172.9514 8.9149,183.5074 C9.1689,184.2954 8.7359,185.1404 7.9469,185.3954 C7.7949,185.4444 7.6399,185.4674 7.4869,185.4674" id="Fill-279" fill="#000"/><path d="M108.4263,50.8785 L97.0273,50.8785 C91.8733,50.8785 87.4873,54.5725 86.5713,59.6145 C86.5613,59.6775 86.5523,59.7375 86.5433,59.8005 L86.5373,59.8345 C86.5003,60.0805 86.4623,60.3305 86.4253,60.5795 C85.0983,69.3205 83.4603,80.0315 83.4603,80.0315 L118.8933,80.0315 L118.9653,72.2665 L119.0633,61.6145 C119.1183,55.7015 114.3403,50.8785 108.4263,50.8785" id="Fill-281" fill="#5e0606"/><path d="M118.8931,80.0319 C105.0181,79.0559 101.2271,76.0809 101.3611,73.6039 C101.4801,71.3859 103.5651,71.6949 104.4761,71.7159 C108.4901,71.8049 118.9651,72.2659 118.9651,72.2659" id="Fill-283" fill="#000"/></g></g></g></g><g id="Head" transform="translate(204.000000, 145.000000) scale(1 1)"><g id="Head/Afro" stroke="none" stroke-width="1" fill="none" fill-rule="evenodd"><g id="Group-183" transform="translate(74.000000, 64.000000)"><g id="Group-57" transform="translate(0.000000, 0.738000)"><path d="M78.1342,57.069 C75.8972,53.402 70.4822,51.97 68.4112,51.545 C67.1232,46.132 65.7452,41.323 64.4902,38.976 C61.7852,33.919 53.5392,28.604 40.3502,30.645 C31.5922,32 22.2672,40.169 28.3232,54.389 C28.3232,54.389 30.0562,57.838 29.2272,63.522 C29.1352,64.148 29.0062,65.022 28.8502,66.064 L28.8492,66.071 C28.5852,67.832 28.2442,70.088 27.8712,72.552 C27.8622,72.615 27.8522,72.675 27.8432,72.738 L27.8382,72.772 L27.8382,72.773 C27.8012,73.018 27.7622,73.268 27.7252,73.517 C27.4952,76.107 28.2022,84.583 47.2792,84.678 L60.2652,85.204 L60.4632,85.213 C60.4632,85.213 64.8142,85.164 67.4482,85.164 C72.9222,85.164 73.8632,79.945 73.2482,76.083 C73.0092,74.583 72.1722,69.653 71.0292,63.798 C78.1632,63.695 80.7372,61.334 78.1342,57.069" id="Fill-43" fill="#5e0606"/><path d="M39.035,52.8336 C39.035,52.8336 44.938,52.8336 46.768,50.5886 C49.742,46.9406 44.69,44.0216 44.69,44.0216 C44.69,44.0216 52.983,47.8346 56.587,45.5346 C60.192,43.2356 58.452,40.1286 58.452,40.1286 C58.452,40.1286 68.296,42.9506 76.226,38.6366 C85.177,33.7676 84.179,19.5576 71.254,22.3546 C71.254,22.3546 78.276,13.5106 73.347,7.0256 C68.34,0.4386 55.081,2.1206 51.616,10.1106 C51.616,10.1106 49.345,-0.2904 37.54,1.0396 C26.961,2.2316 25.845,10.3516 27.005,17.3826 C27.005,17.3826 16.923,11.5156 10.77,18.8306 C4.85,25.8706 11.841,32.1106 11.841,32.1106 C11.841,32.1106 -1.801,35.0786 0.738,49.8026 C1.566,54.6086 5.688,58.7106 10.66,59.3946 C10.66,59.3946 3.296,61.9186 6.198,70.2916 C7.889,75.1686 15.446,75.4286 15.446,75.4286 C9.873,82.4586 20.915,99.2526 37.54,84.7056 C43.508,79.4826 44.717,69.7466 44.025,66.2186 C43.403,63.0486 39.95,63.8076 39.95,63.8076 C39.95,63.8076 32.971,63.8076 32.22,59.5666 C31.585,55.9866 32.972,52.3346 39.035,52.8336" id="Fill-45" fill="#d5e1d5"/><path d="M21.5365,52.4625 C21.1935,52.4625 20.8495,52.3455 20.5675,52.1065 C19.9385,51.5715 19.8575,50.6335 20.3885,50.0015 C20.5095,49.8585 23.4185,46.4655 29.7705,44.7885 C30.5705,44.5785 31.3915,45.0555 31.6035,45.8565 C31.8155,46.6565 31.3375,47.4785 30.5365,47.6895 C25.1655,49.1075 22.7035,51.9105 22.6795,51.9395 C22.3815,52.2845 21.9605,52.4625 21.5365,52.4625" id="Fill-47" fill="#000"/><path d="M34.7933,34.067 C34.5013,34.067 34.2063,33.982 33.9473,33.804 C31.6793,32.253 28.3463,31.913 27.2533,31.913 C26.4253,31.913 25.7533,31.241 25.7533,30.413 C25.7533,29.584 26.4253,28.913 27.2533,28.913 C27.4513,28.913 32.1493,28.94 35.6413,31.329 C36.3243,31.796 36.5003,32.73 36.0323,33.414 C35.7413,33.838 35.2723,34.067 34.7933,34.067" id="Fill-49" fill="#000"/><path d="M48.1351,26.111 C47.7651,26.111 47.3951,25.975 47.1051,25.701 C46.5041,25.132 46.4761,24.184 47.0441,23.583 C47.2281,23.387 51.6261,18.789 57.4811,18.069 C58.3011,17.964 59.0521,18.551 59.1541,19.375 C59.2541,20.197 58.6701,20.945 57.8481,21.047 C53.0841,21.632 49.2621,25.603 49.2241,25.643 C48.9291,25.954 48.5321,26.111 48.1351,26.111" id="Fill-51" fill="#000"/><path d="M64.0873,35.2692 C60.3913,35.2692 58.3893,33.9742 58.1393,33.8012 C57.4573,33.3322 57.2853,32.3972 57.7553,31.7152 C58.2233,31.0382 59.1493,30.8652 59.8283,31.3232 C59.9383,31.3932 61.9393,32.6402 65.8473,32.1562 C66.6643,32.0572 67.4193,32.6352 67.5223,33.4572 C67.6243,34.2802 67.0413,35.0302 66.2203,35.1322 C65.4553,35.2282 64.7443,35.2692 64.0873,35.2692" id="Fill-53" fill="#000"/><path d="M32.9701,74.0075 C32.6801,74.0075 32.3871,73.9235 32.1281,73.7485 C30.7291,72.7985 27.1621,72.4805 25.2871,72.5155 L25.2651,72.5155 C24.4481,72.5155 23.7781,71.8585 23.7661,71.0375 C23.7531,70.2095 24.4131,69.5285 25.2411,69.5155 C25.8371,69.5075 31.1761,69.4775 33.8141,71.2665 C34.4981,71.7315 34.6771,72.6635 34.2121,73.3495 C33.9221,73.7775 33.4501,74.0075 32.9701,74.0075" id="Fill-55" fill="#000"/></g></g></g></g><g id="Expression" transform="translate(315.000000, 246.000000) scale(1 1)"><g id="Expression/Smile" stroke="none" stroke-width="1" fill="none" fill-rule="evenodd"><g id="Expression" transform="translate(14.000000, 12.000000)" fill="#000"><path d="M8.5371,3.6102 C8.8431,6.5462 13.2671,6.1902 13.3041,3.3662 C13.3451,0.1732 8.1761,0.1392 8.5371,3.6102" id="Fill-95"/><path d="M3.8824,24.6669 C10.1784,28.8049 17.2924,27.1859 17.6314,27.1049 C18.4374,26.9129 18.9354,26.1039 18.7434,25.2989 C18.5514,24.4919 17.7444,23.9949 16.9394,24.1859 C16.8054,24.2169 9.0204,25.9289 3.5054,20.5259 C2.9134,19.9499 1.9634,19.9569 1.3834,20.5479 C0.8044,21.1409 0.8144,22.0899 1.4064,22.6699 C2.2044,23.4509 3.0364,24.1109 3.8824,24.6669" id="Fill-97"/></g></g></g><g id="Facial Hair" transform="translate(311.300000, 250.950000) scale(1 1)"><g id="Facial Hair/None" stroke="none" stroke-width="1" fill="none" fill-rule="evenodd" fill-opacity="0"/></g><g id="Accesories" transform="translate(311.300000, 250.950000) scale(1 1)"><g id="Accesories/None" stroke="none" stroke-width="1" fill="none" fill-rule="evenodd" fill-opacity="0"/></g></g></svg>